<mxfile host="127.0.0.1" modified="2020-05-22T17:09:16.531Z" agent="5.0 (Windows NT 10.0; Win64; x64) AppleWebKit/537.36 (KHTML, like Gecko) Code/1.45.1 Chrome/78.0.3904.130 Electron/7.2.4 Safari/537.36" etag="NCEN4hjNg-enWnGEWPPZ" version="13.0.9">
    <diagram id="-t8rFtua34XNX5cKnBF_" name="Page-1">
        <mxGraphModel dx="1031" dy="746" grid="1" gridSize="10" guides="1" tooltips="1" connect="1" arrows="1" fold="1" page="1" pageScale="1" pageWidth="850" pageHeight="1100" math="0" shadow="0">
            <root>
                <mxCell id="0"/>
                <mxCell id="1" parent="0"/>
                <mxCell id="RHqKMBRxgFxfujLm67wK-2" value="" style="shape=ext;rounded=1;html=1;whiteSpace=wrap;" parent="1" vertex="1">
                    <mxGeometry x="190" y="410" width="470" height="260" as="geometry"/>
                </mxCell>
                <mxCell id="w8AWbL9sRovNboO9tG6S-15" value="&lt;font color=&quot;#ffffff&quot;&gt;&lt;br&gt;&lt;/font&gt;" style="shape=ext;rounded=1;html=1;whiteSpace=wrap;dashed=1;dashPattern=1 4;" parent="1" vertex="1">
                    <mxGeometry x="510" y="550" width="130" height="110" as="geometry"/>
                </mxCell>
                <mxCell id="w8AWbL9sRovNboO9tG6S-13" value="" style="shape=ext;rounded=1;html=1;whiteSpace=wrap;dashed=1;dashPattern=1 4;" parent="1" vertex="1">
                    <mxGeometry x="200" y="420" width="200" height="220" as="geometry"/>
                </mxCell>
                <mxCell id="GHSybZS2uKIvbN632wCA-1" value="" style="shape=image;verticalLabelPosition=bottom;verticalAlign=top;imageAspect=0;aspect=fixed;image=data:image/svg+xml,PHN2ZyB4bWxuczpkYz0iaHR0cDovL3B1cmwub3JnL2RjL2VsZW1lbnRzLzEuMS8iIHhtbG5zOmNjPSJodHRwOi8vY3JlYXRpdmVjb21tb25zLm9yZy9ucyMiIHhtbG5zOnJkZj0iaHR0cDovL3d3dy53My5vcmcvMTk5OS8wMi8yMi1yZGYtc3ludGF4LW5zIyIgeG1sbnM6c3ZnPSJodHRwOi8vd3d3LnczLm9yZy8yMDAwL3N2ZyIgeG1sbnM9Imh0dHA6Ly93d3cudzMub3JnLzIwMDAvc3ZnIiB4bWxuczpzb2RpcG9kaT0iaHR0cDovL3NvZGlwb2RpLnNvdXJjZWZvcmdlLm5ldC9EVEQvc29kaXBvZGktMC5kdGQiIHhtbG5zOmlua3NjYXBlPSJodHRwOi8vd3d3Lmlua3NjYXBlLm9yZy9uYW1lc3BhY2VzL2lua3NjYXBlIiB2ZXJzaW9uPSIxLjEiIGlkPSJMYXllcl8xIiB4PSIwcHgiIHk9IjBweCIgd2lkdGg9IjUwcHgiIGhlaWdodD0iNTBweCIgdmlld0JveD0iMCAwIDUwIDUwIiBlbmFibGUtYmFja2dyb3VuZD0ibmV3IDAgMCA1MCA1MCIgeG1sOnNwYWNlPSJwcmVzZXJ2ZSIgc29kaXBvZGk6ZG9jbmFtZT0iUmVzb3VyY2UgR3JvdXBzLnN2ZyIgaW5rc2NhcGU6dmVyc2lvbj0iMC45Mi4zICgyNDA1NTQ2LCAyMDE4LTAzLTExKSI+PG1ldGFkYXRhIGlkPSJtZXRhZGF0YTMzODAiPjxyZGY6UkRGPjxjYzpXb3JrIHJkZjphYm91dD0iIj48ZGM6Zm9ybWF0PmltYWdlL3N2Zyt4bWw8L2RjOmZvcm1hdD48ZGM6dHlwZSByZGY6cmVzb3VyY2U9Imh0dHA6Ly9wdXJsLm9yZy9kYy9kY21pdHlwZS9TdGlsbEltYWdlIi8+PGRjOnRpdGxlLz48L2NjOldvcms+PC9yZGY6UkRGPjwvbWV0YWRhdGE+PGRlZnMgaWQ9ImRlZnMzMzc4Ii8+PHNvZGlwb2RpOm5hbWVkdmlldyBwYWdlY29sb3I9IiNmZmZmZmYiIGJvcmRlcmNvbG9yPSIjNjY2NjY2IiBib3JkZXJvcGFjaXR5PSIxIiBvYmplY3R0b2xlcmFuY2U9IjEwIiBncmlkdG9sZXJhbmNlPSIxMCIgZ3VpZGV0b2xlcmFuY2U9IjEwIiBpbmtzY2FwZTpwYWdlb3BhY2l0eT0iMCIgaW5rc2NhcGU6cGFnZXNoYWRvdz0iMiIgaW5rc2NhcGU6d2luZG93LXdpZHRoPSIxNjAwIiBpbmtzY2FwZTp3aW5kb3ctaGVpZ2h0PSI4MzciIGlkPSJuYW1lZHZpZXczMzc2IiBzaG93Z3JpZD0iZmFsc2UiIGlua3NjYXBlOnpvb209IjYuMjYiIGlua3NjYXBlOmN4PSIyNSIgaW5rc2NhcGU6Y3k9IjI1IiBpbmtzY2FwZTp3aW5kb3cteD0iLTgiIGlua3NjYXBlOndpbmRvdy15PSItOCIgaW5rc2NhcGU6d2luZG93LW1heGltaXplZD0iMSIgaW5rc2NhcGU6Y3VycmVudC1sYXllcj0iTGF5ZXJfMSIvPiYjeGE7PHBhdGggZmlsbD0iIzM5OTlDNiIgZD0iTTI1LjA0NywyMi42NDdjLTAuMDc4LDAtMC4xNS0wLjAyMy0wLjIyLTAuMDY0bC0xNC43MTEtOC40OWMtMC4xNC0wLjA4LTAuMjIzLTAuMjI4LTAuMjIzLTAuMzg5ICBjMC0wLjE1NiwwLjA4My0wLjMwNCwwLjIyMy0wLjM4MmwxNC42MTYtOC40MzVjMC4xMzktMC4wNzcsMC4zMDktMC4wNzcsMC40NDIsMGwxNC43MTQsOC40OTVjMC4xMzMsMC4wNzgsMC4yMjEsMC4yMjQsMC4yMjEsMC4zODIgIGMwLDAuMTYzLTAuMDg4LDAuMzA4LTAuMjIxLDAuMzg3bC0xNC42MTksOC40MzNDMjUuMiwyMi42MjQsMjUuMTI2LDIyLjY0NywyNS4wNDcsMjIuNjQ3IiBpZD0icGF0aDMzNjMiLz4mI3hhOzxwYXRoIGZpbGw9IiM1OUI0RDkiIGQ9Ik0yMi45MzIsNDMuMjg0Yy0wLjA4LDAtMC4xNTgtMC4wMTktMC4yMjYtMC4wNTlMOC4wNDIsMzQuNzYxYy0wLjE0Mi0wLjA3OS0wLjIyNi0wLjIyNC0wLjIyNi0wLjM4NlYxNy4zOSAgYzAtMC4xNTksMC4wODQtMC4zMDUsMC4yMjYtMC4zODljMC4xMzQtMC4wNzcsMC4zMDYtMC4wNzcsMC40NDgsMGwxNC42NjIsOC40NjRjMC4xMzYsMC4wODIsMC4yMTgsMC4yMjgsMC4yMTgsMC4zODd2MTYuOTg3ICBjMCwwLjE2My0wLjA4MywwLjMwNS0wLjIxOCwwLjM4NkMyMy4wNzksNDMuMjY2LDIzLjAwNiw0My4yODQsMjIuOTMyLDQzLjI4NCIgaWQ9InBhdGgzMzY1Ii8+JiN4YTs8cGF0aCBmaWxsPSIjNTlCNEQ5IiBkPSJNMjcuMDgxLDQzLjI4NGMtMC4wNzUsMC0wLjE1Mi0wLjAxOS0wLjIyNi0wLjA1OWMtMC4xMzYtMC4wODEtMC4yMi0wLjIyMy0wLjIyLTAuMzg2VjI1Ljk2MiAgYzAtMC4xNTksMC4wODQtMC4zMDUsMC4yMi0wLjM4N2wxNC42Ni04LjQ2MWMwLjE0Mi0wLjA3OCwwLjMwOC0wLjA3OCwwLjQ0OCwwYzAuMTM0LDAuMDgsMC4yMiwwLjIyNywwLjIyLDAuMzg1djE2Ljg3NyAgYzAsMC4xNjItMC4wODUsMC4zMDYtMC4yMiwwLjM4NmwtMTQuNjY1LDguNDY0QzI3LjIzNyw0My4yNjYsMjcuMTU4LDQzLjI4NCwyNy4wODEsNDMuMjg0IiBpZD0icGF0aDMzNjciLz4mI3hhOzxwYXRoIG9wYWNpdHk9IjAuNSIgZmlsbD0iI0ZGRkZGRiIgZD0iTTI3LjA4MSw0My4yODRjLTAuMDc1LDAtMC4xNTItMC4wMTktMC4yMjYtMC4wNTljLTAuMTM2LTAuMDgxLTAuMjItMC4yMjMtMC4yMi0wLjM4NlYyNS45NjIgIGMwLTAuMTU5LDAuMDg0LTAuMzA1LDAuMjItMC4zODdsMTQuNjYtOC40NjFjMC4xNDItMC4wNzgsMC4zMDgtMC4wNzgsMC40NDgsMGMwLjEzNCwwLjA4LDAuMjIsMC4yMjcsMC4yMiwwLjM4NXYxNi44NzcgIGMwLDAuMTYyLTAuMDg1LDAuMzA2LTAuMjIsMC4zODZsLTE0LjY2NSw4LjQ2NEMyNy4yMzcsNDMuMjY2LDI3LjE1OCw0My4yODQsMjcuMDgxLDQzLjI4NCIgaWQ9InBhdGgzMzY5Ii8+JiN4YTs8cGF0aCBmaWxsPSIjN0E3QTdBIiBkPSJNOS41NTgsNDUuMTcxYy0wLjI0NywwLTAuNDk3LTAuMDYzLTAuNzI2LTAuMTk1bC02Ljg0NS0zLjk1MkMwLjgzNSw0MC4zNTgsMCwzOC45MTEsMCwzNy41ODJWMTIuNDE4ICBjMC0xLjMyOSwwLjgzNS0yLjc3NywxLjk4Ny0zLjQ0MWw2Ljg0NS0zLjk1MmMwLjY5Ny0wLjQwMSwxLjU4Ni0wLjE2MywxLjk4NywwLjUzMmMwLjQwMiwwLjY5NiwwLjE2MywxLjU4NS0wLjUzMiwxLjk4NyAgbC02Ljg0NSwzLjk1MmMtMC4yNDMsMC4xNDEtMC41MzIsMC42NDEtMC41MzIsMC45MjJ2MjUuMTY0YzAsMC4yODEsMC4yODksMC43ODIsMC41MzIsMC45MjJsNi44NDUsMy45NTIgIGMwLjY5NiwwLjQwMiwwLjkzNCwxLjI5MSwwLjUzMiwxLjk4N0MxMC41NSw0NC45MSwxMC4wNjEsNDUuMTcxLDkuNTU4LDQ1LjE3MXoiIGlkPSJwYXRoMzM3MSIvPiYjeGE7PHBhdGggZmlsbD0iIzdBN0E3QSIgZD0iTTQwLjQ0Miw0LjgyOWMwLjI0NywwLDAuNDk3LDAuMDYzLDAuNzI2LDAuMTk1bDYuODQ1LDMuOTUyQzQ5LjE2NSw5LjY0Miw1MCwxMS4wODksNTAsMTIuNDE4djI1LjE2NCAgYzAsMS4zMjktMC44MzUsMi43NzctMS45ODcsMy40NDFsLTYuODQ1LDMuOTUyYy0wLjY5NywwLjQwMS0xLjU4NiwwLjE2My0xLjk4Ny0wLjUzMmMtMC40MDItMC42OTYtMC4xNjMtMS41ODUsMC41MzItMS45ODcgIGw2Ljg0NS0zLjk1MmMwLjI0My0wLjE0MSwwLjUzMi0wLjY0MSwwLjUzMi0wLjkyMlYxMi40MThjMC0wLjI4MS0wLjI4OS0wLjc4Mi0wLjUzMi0wLjkyMmwtNi44NDUtMy45NTIgIGMtMC42OTYtMC40MDItMC45MzQtMS4yOTEtMC41MzItMS45ODdDMzkuNDUsNS4wOSwzOS45MzksNC44MjksNDAuNDQyLDQuODI5eiIgaWQ9InBhdGgzMzczIi8+JiN4YTs8L3N2Zz4=" parent="1" vertex="1">
                    <mxGeometry x="190" y="650" width="50" height="50" as="geometry"/>
                </mxCell>
                <mxCell id="RHqKMBRxgFxfujLm67wK-1" value="" style="shape=image;verticalLabelPosition=bottom;verticalAlign=top;imageAspect=0;aspect=fixed;image=data:image/svg+xml,PHN2ZyB4bWxuczpkYz0iaHR0cDovL3B1cmwub3JnL2RjL2VsZW1lbnRzLzEuMS8iIHhtbG5zOmNjPSJodHRwOi8vY3JlYXRpdmVjb21tb25zLm9yZy9ucyMiIHhtbG5zOnJkZj0iaHR0cDovL3d3dy53My5vcmcvMTk5OS8wMi8yMi1yZGYtc3ludGF4LW5zIyIgeG1sbnM6c3ZnPSJodHRwOi8vd3d3LnczLm9yZy8yMDAwL3N2ZyIgeG1sbnM9Imh0dHA6Ly93d3cudzMub3JnLzIwMDAvc3ZnIiB4bWxuczpzb2RpcG9kaT0iaHR0cDovL3NvZGlwb2RpLnNvdXJjZWZvcmdlLm5ldC9EVEQvc29kaXBvZGktMC5kdGQiIHhtbG5zOmlua3NjYXBlPSJodHRwOi8vd3d3Lmlua3NjYXBlLm9yZy9uYW1lc3BhY2VzL2lua3NjYXBlIiB2ZXJzaW9uPSIxLjEiIGlkPSJMYXllcl8xIiB4PSIwcHgiIHk9IjBweCIgaGVpZ2h0PSI1MHB4IiB3aWR0aD0iNTBweCIgdmlld0JveD0iMCAwIDUwIDUwIiBlbmFibGUtYmFja2dyb3VuZD0ibmV3IDAgMCA1MCA1MCIgeG1sOnNwYWNlPSJwcmVzZXJ2ZSIgc29kaXBvZGk6ZG9jbmFtZT0iVmlydHVhbCBOZXR3b3Jrcy5zdmciIGlua3NjYXBlOnZlcnNpb249IjAuOTIuMyAoMjQwNTU0NiwgMjAxOC0wMy0xMSkiPjxtZXRhZGF0YSBpZD0ibWV0YWRhdGEzMTQ3Ij48cmRmOlJERj48Y2M6V29yayByZGY6YWJvdXQ9IiI+PGRjOmZvcm1hdD5pbWFnZS9zdmcreG1sPC9kYzpmb3JtYXQ+PGRjOnR5cGUgcmRmOnJlc291cmNlPSJodHRwOi8vcHVybC5vcmcvZGMvZGNtaXR5cGUvU3RpbGxJbWFnZSIvPjxkYzp0aXRsZS8+PC9jYzpXb3JrPjwvcmRmOlJERj48L21ldGFkYXRhPjxkZWZzIGlkPSJkZWZzMzE0NSIvPjxzb2RpcG9kaTpuYW1lZHZpZXcgcGFnZWNvbG9yPSIjZmZmZmZmIiBib3JkZXJjb2xvcj0iIzY2NjY2NiIgYm9yZGVyb3BhY2l0eT0iMSIgb2JqZWN0dG9sZXJhbmNlPSIxMCIgZ3JpZHRvbGVyYW5jZT0iMTAiIGd1aWRldG9sZXJhbmNlPSIxMCIgaW5rc2NhcGU6cGFnZW9wYWNpdHk9IjAiIGlua3NjYXBlOnBhZ2VzaGFkb3c9IjIiIGlua3NjYXBlOndpbmRvdy13aWR0aD0iNjQwIiBpbmtzY2FwZTp3aW5kb3ctaGVpZ2h0PSI0ODAiIGlkPSJuYW1lZHZpZXczMTQzIiBzaG93Z3JpZD0iZmFsc2UiIGlua3NjYXBlOnpvb209IjYuMjYiIGlua3NjYXBlOmN4PSIyNSIgaW5rc2NhcGU6Y3k9IjI1IiBpbmtzY2FwZTp3aW5kb3cteD0iMCIgaW5rc2NhcGU6d2luZG93LXk9IjAiIGlua3NjYXBlOndpbmRvdy1tYXhpbWl6ZWQ9IjEiIGlua3NjYXBlOmN1cnJlbnQtbGF5ZXI9IkxheWVyXzEiLz4mI3hhOzxwYXRoIGZpbGw9IiMzOTk5QzYiIGQ9Ik00OS43LDI1LjdjMC41LTAuNSwwLjQtMS4zLDAtMS44bC0yLjQtMi40TDM2LjUsMTFjLTAuNS0wLjUtMS4yLTAuNS0xLjcsMGwwLDBjLTAuNSwwLjUtMC42LDEuMywwLDEuOCAgbDExLjMsMTEuMWMwLjUsMC41LDAuNSwxLjMsMCwxLjhMMzQuNiwzNy4yYy0wLjUsMC41LTAuNSwxLjMsMCwxLjhsMCwwYzAuNSwwLjUsMS4zLDAuNCwxLjcsMGwxMC43LTEwLjZjMCwwLDAsMCwwLjEtMC4xTDQ5LjcsMjUuNyAgeiIgaWQ9InBhdGgzMTMyIi8+JiN4YTs8cGF0aCBmaWxsPSIjMzk5OUM2IiBkPSJNMC4zLDI1LjdjLTAuNS0wLjUtMC40LTEuMywwLTEuOGwyLjQtMi40TDEzLjUsMTFjMC41LTAuNSwxLjItMC41LDEuNywwbDAsMGMwLjUsMC41LDAuNiwxLjMsMCwxLjggIEw0LjEsMjMuOWMtMC41LDAuNS0wLjUsMS4zLDAsMS44bDExLjMsMTEuNWMwLjUsMC41LDAuNSwxLjMsMCwxLjhsMCwwYy0wLjUsMC41LTEuMywwLjQtMS43LDBMMi44LDI4LjVjMCwwLDAsMC0wLjEtMC4xTDAuMywyNS43eiIgaWQ9InBhdGgzMTM0Ii8+JiN4YTs8cGF0aCBmaWxsPSIjN0ZCQTAwIiBkPSJNMTguMiwyNC44YzAsMS45LTEuNiwzLjMtMy4zLDMuM3MtMy41LTEuNi0zLjUtMy4zczEuNC0zLjMsMy41LTMuM0MxNi45LDIxLjUsMTguMiwyMy4xLDE4LjIsMjQuOHoiIGlkPSJwYXRoMzEzNiIvPiYjeGE7PHBhdGggZmlsbD0iIzdGQkEwMCIgZD0iTTI4LjMsMjQuOGMwLDEuOS0xLjYsMy4zLTMuMywzLjNzLTMuNS0xLjYtMy41LTMuM3MxLjYtMy4zLDMuNS0zLjNTMjguMywyMy4xLDI4LjMsMjQuOHoiIGlkPSJwYXRoMzEzOCIvPiYjeGE7PGNpcmNsZSBmaWxsPSIjN0ZCQTAwIiBjeD0iMzUuMiIgY3k9IjI0LjgiIHI9IjMuMyIgaWQ9ImNpcmNsZTMxNDAiLz4mI3hhOzwvc3ZnPg==" parent="1" vertex="1">
                    <mxGeometry x="240" y="640" width="50" height="50" as="geometry"/>
                </mxCell>
                <mxCell id="RHqKMBRxgFxfujLm67wK-3" value="" style="shape=image;verticalLabelPosition=bottom;verticalAlign=top;imageAspect=0;aspect=fixed;image=data:image/svg+xml,PHN2ZyB4bWxuczpkYz0iaHR0cDovL3B1cmwub3JnL2RjL2VsZW1lbnRzLzEuMS8iIHhtbG5zOmNjPSJodHRwOi8vY3JlYXRpdmVjb21tb25zLm9yZy9ucyMiIHhtbG5zOnJkZj0iaHR0cDovL3d3dy53My5vcmcvMTk5OS8wMi8yMi1yZGYtc3ludGF4LW5zIyIgeG1sbnM6c3ZnPSJodHRwOi8vd3d3LnczLm9yZy8yMDAwL3N2ZyIgeG1sbnM9Imh0dHA6Ly93d3cudzMub3JnLzIwMDAvc3ZnIiB4bWxuczpzb2RpcG9kaT0iaHR0cDovL3NvZGlwb2RpLnNvdXJjZWZvcmdlLm5ldC9EVEQvc29kaXBvZGktMC5kdGQiIHhtbG5zOmlua3NjYXBlPSJodHRwOi8vd3d3Lmlua3NjYXBlLm9yZy9uYW1lc3BhY2VzL2lua3NjYXBlIiB2ZXJzaW9uPSIxLjEiIGlkPSJMYXllcl8xIiB4PSIwcHgiIHk9IjBweCIgd2lkdGg9IjUwcHgiIGhlaWdodD0iNTBweCIgdmlld0JveD0iMCAwIDUwIDUwIiBlbmFibGUtYmFja2dyb3VuZD0ibmV3IDAgMCA1MCA1MCIgeG1sOnNwYWNlPSJwcmVzZXJ2ZSIgc29kaXBvZGk6ZG9jbmFtZT0iVk0tTGludXguc3ZnIiBpbmtzY2FwZTp2ZXJzaW9uPSIwLjkyLjMgKDI0MDU1NDYsIDIwMTgtMDMtMTEpIj48bWV0YWRhdGEgaWQ9Im1ldGFkYXRhMTc2NCI+PHJkZjpSREY+PGNjOldvcmsgcmRmOmFib3V0PSIiPjxkYzpmb3JtYXQ+aW1hZ2Uvc3ZnK3htbDwvZGM6Zm9ybWF0PjxkYzp0eXBlIHJkZjpyZXNvdXJjZT0iaHR0cDovL3B1cmwub3JnL2RjL2RjbWl0eXBlL1N0aWxsSW1hZ2UiLz48ZGM6dGl0bGUvPjwvY2M6V29yaz48L3JkZjpSREY+PC9tZXRhZGF0YT48ZGVmcyBpZD0iZGVmczE3NjIiLz48c29kaXBvZGk6bmFtZWR2aWV3IHBhZ2Vjb2xvcj0iI2ZmZmZmZiIgYm9yZGVyY29sb3I9IiM2NjY2NjYiIGJvcmRlcm9wYWNpdHk9IjEiIG9iamVjdHRvbGVyYW5jZT0iMTAiIGdyaWR0b2xlcmFuY2U9IjEwIiBndWlkZXRvbGVyYW5jZT0iMTAiIGlua3NjYXBlOnBhZ2VvcGFjaXR5PSIwIiBpbmtzY2FwZTpwYWdlc2hhZG93PSIyIiBpbmtzY2FwZTp3aW5kb3ctd2lkdGg9IjY0MCIgaW5rc2NhcGU6d2luZG93LWhlaWdodD0iNDgwIiBpZD0ibmFtZWR2aWV3MTc2MCIgc2hvd2dyaWQ9ImZhbHNlIiBpbmtzY2FwZTp6b29tPSI2LjI2IiBpbmtzY2FwZTpjeD0iMjUiIGlua3NjYXBlOmN5PSIyNSIgaW5rc2NhcGU6d2luZG93LXg9IjAiIGlua3NjYXBlOndpbmRvdy15PSIwIiBpbmtzY2FwZTp3aW5kb3ctbWF4aW1pemVkPSIxIiBpbmtzY2FwZTpjdXJyZW50LWxheWVyPSJMYXllcl8xIi8+JiN4YTs8cGF0aCBmaWxsPSIjN0E3QTdBIiBkPSJNMzMsMzhoLTEuMjA3SDE5Ljg5MmgtMC42MjFDMjAuOTIsNDMuOTk5LDE4LjcwNSw0NC44NTksOSw0NC44NTlWNDhoMTIuMzQyaDkuMDExSDQydi0zLjE0MSAgYy05LjcwNSwwLTEwLjY1Ni0wLjg1Ny05LjAwNS02Ljg1OSIgaWQ9InBhdGgxNzE0Ii8+JiN4YTs8cGF0aCBmaWxsPSIjQTBBMUEyIiBkPSJNNDYuOTgsMkgyLjcxOUMxLjIxNSwyLDAuMDAyLDMuMzQ1LDAuMDAyLDQuODQ3djMxLjMyOWMwLDEuNDkzLDEuMjEzLDIuODIzLDIuNzE3LDIuODIzSDQ2Ljk4ICBjMS41MDEsMCwzLjAyMS0xLjMzLDMuMDIxLTIuODIzVjQuODQ3QzUwLjAwMSwzLjM0MSw0OC40ODEsMiw0Ni45OCwyIiBpZD0icGF0aDE3MTYiLz4mI3hhOzxwYXRoIG9wYWNpdHk9IjAuMiIgZmlsbD0iI0ZGRkZGRiIgZW5hYmxlLWJhY2tncm91bmQ9Im5ldyAgICAiIGQ9Ik00Ny4wMTEsMi4wMDNjLTAuMDExLDAtMC4wMjEtMC4wMDItMC4wMzEtMC4wMDJIMi43MTggIGMtMS41MDQsMC0yLjcxNywxLjM0NC0yLjcxNywyLjg0N3YzMS4zMjhDMC4wMDEsMzcuNjcsMS4yMTQsMzksMi43MTgsMzloMS4wNTNMNDcuMDExLDIuMDAzeiIgaWQ9InBhdGgxNzE4Ii8+JiN4YTs8cG9seWdvbiBmaWxsPSIjNTlCNEQ5IiBwb2ludHM9IjQ2LDYgNDYsMzUgNCwzNSA0LDYgIiBpZD0icG9seWdvbjE3MjAiLz4mI3hhOzxyZWN0IHg9IjkiIHk9IjQ1IiBmaWxsPSIjQTBBMUEyIiB3aWR0aD0iMzMiIGhlaWdodD0iMyIgaWQ9InJlY3QxNzIyIi8+JiN4YTs8cGF0aCBmaWxsPSIjQjhENDMyIiBkPSJNMjUuNTE4LDQuMDk1YzAsMC4zOTItMC4zMTgsMC43MS0wLjcxLDAuNzFjLTAuMzkzLDAtMC43MDktMC4zMTgtMC43MDktMC43MWMwLTAuMzkzLDAuMzE2LTAuNzEsMC43MDktMC43MSAgQzI1LjIsMy4zODUsMjUuNTE4LDMuNzAyLDI1LjUxOCw0LjA5NSIgaWQ9InBhdGgxNzI0Ii8+JiN4YTs8ZyBpZD0iTGF5ZXJfMiIgb3BhY2l0eT0iMC44NSI+JiN4YTsJPHBhdGggb3BhY2l0eT0iMC40IiBmaWxsPSIjRkZGRkZGIiBlbmFibGUtYmFja2dyb3VuZD0ibmV3ICAgICIgZD0iTTI2LjcwNSwxMy44MzFsLTAuNTEyLDAuMzE1bC0wLjQ0My0wLjgwNyAgIGMtMC4xNjktMC4zMDgtMC4xOTMtMC41NjktMC4wNzgtMC44NDZjMC4wOTktMC4yMzgsMC4zMDItMC4zNzUsMC41NTYtMC4zNzVsMC4wNiwwLjAwMmMwLjI4NSwwLjAyMywwLjU2OSwwLjMxOCwwLjY1NSwwLjU4ICAgQzI3LjAzNCwxMi45NzgsMjcuMDM0LDEzLjYyOSwyNi43MDUsMTMuODMxeiIgaWQ9InBhdGgxNzI2Ii8+JiN4YTsJPHBhdGggZmlsbD0iI0ZCRkJGOSIgZD0iTTIxLjczLDI5LjM0OWMwLjAwMS0wLjAzMS0yLjUzMy00LjA5NS0yLjM4NC00LjhjMS4xOTQtNS42NzMsMi42MTQtNi41MDEsMy4xMzQtNy43ICAgYzAuNTItMS4xOTksMC4yMi0yLjMwNSwwLjg0Mi0yLjMxOWMwLjYyMS0wLjAxNCwyLjQ0MywwLjEyMywyLjg4NywwLjI3MWMwLjQ0NCwwLjE0NywxLjA3NCwwLjU5NSwxLjQyMywxLjU3NCAgIGMwLjQ3MywwLjg5NSwwLjkzOCwxLjc5MywxLjA4NCwyLjgxNGMwLjAxMywwLjA5NCwwLjA1NSwwLjE4NCwwLjExOSwwLjI1NGMxLjE4LDEuMzAxLDEuNDE5LDIuODgxLDEuMzMzLDQuNTUxICAgYy0wLjAyMiwwLjQyMy0wLjA3NywxLjA0Ni0wLjEzNCwxLjI2NGMtMC4wNTcsMC4yMTktMS42NTEsNS4zNzctNC4xNjEsNS4zMTVDMjMuMzYyLDMwLjUwOSwyMi4wMjYsMjkuNTc1LDIxLjczLDI5LjM0OXoiIGlkPSJwYXRoMTcyOCIvPiYjeGE7CTxwYXRoIGZpbGw9IiNGRjhDMDAiIGQ9Ik0zNS4yMjksMjguMTQ2Yy0wLjkxOS0wLjA0Ni0xLjQwNC0wLjU5OC0xLjQwOC0xLjEyNmMtMC4wMDUtMC42MTgsMC4yNTUtMS4zOTUtMC42NC0xLjQ3MyAgIGMtMC44OTUtMC4wNzktMi43MjYtMC4xNzQtMy4yMTctMC4yNjRjLTEuMDcxLTAuMTk3LTEuMTI1LDAuMjQtMS4xNDIsMC41NWMtMC4wMDgsMC4xNDYsMC4xMjcsMS41OTctMC4wMTQsMi4xNjMgICBjMC4wMDksMC4yNDYtMC4wMDgsMC40ODktMC4wNDYsMC43MzVjLTAuMTAyLDAuNjYtMC4xOCwxLjMyNS0wLjI2NywxLjk4N2MtMC4wMDYsMC4zMjMtMC4wMTEsMC42NDYtMC4wMTcsMC45NjkgICBjMC43NzksMS4xNDYsMi4yOTMsMS4xODksMy4yMywwLjE5NmMwLjg3OS0wLjg5NCwxLjk0LTEuNTExLDMuMDU3LTIuMDUyYzAuMzE2LTAuMTU0LDAuNjE1LTAuMzg1LDAuNzgzLTAuODMgICBDMzUuNzE3LDI4LjU1NSwzNS41NTksMjguMTYyLDM1LjIyOSwyOC4xNDZ6IiBpZD0icGF0aDE3MzAiLz4mI3hhOwk8cGF0aCBmaWxsPSIjMUUxRTFFIiBkPSJNMjMuMDEsMjcuNTkzYy0wLjEyNiwwLjYxOC0wLjc5NiwxLjE2NS0xLjE0MywxLjExOGMtMC4yMTUtMC4xMTgtMC43OTktMC44ODktMC45MjUtMS4wNzkgICBjLTAuMzgtMC41NzctMi4wNDQtMi45NjItMi41MjktMi43NzljLTAuMTU4LDAuMDItMC4yNDgsMC4xMjktMC4zMjksMC4yNDljLTAuMDMzLDAuMDEzLTAuMDY2LDAuMDI2LTAuMDk5LDAuMDM5ICAgYy0wLjI0OC0wLjUzNS0wLjIyOC0xLjA3MSwwLjA1LTEuNThjMC42MTMtMS4xMiwwLjg5Ni0yLjI3MSwxLjIwOC0zLjUxNWMwLjEwNS0wLjQxOCwwLjM2LTAuNzY2LDAuNjI0LTEuMSAgIGMwLjQ5Mi0wLjYyNSwwLjQ4LTEuMjUzLDAuOTgyLTEuODY5YzAuMzIxLTAuMzk0LDAuNjAyLTAuODIzLDAuNTcyLTEuMzMzYy0wLjA4NS0xLjQzNy0wLjI2OC0yLjgzNC0wLjIwNy00LjI3NCAgIGMwLjA2LTEuNDExLDEuMjkyLTIuNTk2LDIuNjc1LTMuMTA0YzEuNDM0LTAuNTI3LDIuNzkxLTAuMjY4LDMuOTQzLDAuNzY0YzAuOTA1LDAuODEsMS4zMDEsMS44NzQsMS4zNywzLjA3ICAgYzAuMDEzLDAuMjE5LDAuMDI0LDAuNDQsMC4wMTUsMC42NThjLTAuMTAzLDIuMjQ3LDAuODQyLDQuMDc2LDIuMjc0LDUuNzA5YzEuMzc0LDEuNTY2LDEuOTEyLDMuNDQzLDIuMDM2LDUuNDcxICAgYzAuMDMyLDAuNTMtMC4xMzgsMS4wMjUtMC4zNTUsMS41MDJjLTAuMywwLjY5MS0wLjczMSwxLjEyLTEuMTI0LDEuMjk3Yy0wLjM5NCwwLjE3Ny0xLjk0NywwLjI5OS0xLjY0Ni0wLjcyMSAgIGMwLjE0OC0wLjUwMiwwLjE3Mi0wLjcxNS0wLjQ0Ny0wLjg0YzAuMDQ2LTAuNDIxLDAuMTEyLTAuODQyLDAuMTM0LTEuMjY0YzAuMDg3LTEuNjcxLTAuMjA2LTIuOTktMS40NzItNC4xNzcgICBjLTAuMzkxLTAuMzY3LTAuMDI0LTAuNDI3LTAuMDM3LTAuNzU3Yy0wLjAzMy0wLjg5MS0wLjU1NC0xLjc5LTEuMDI3LTIuNjg0Yy0wLjA0MS0wLjE2NS0wLjEyLTAuMzExLTAuMjI4LTAuNDQyICAgYzAuMDM1LTAuMTQtMC4wNTMtMC4yNDEtMC4xMDktMC4zNTJjMC4wNy0wLjI4MywwLjE5MS0wLjU1NywwLjEzNC0wLjg1OWMwLjAwNC0wLjI2LTIuNjY2LTAuMzcyLTIuOTk5LTAuMjM5ICAgYy0wLjE0LTAuMDQ3LTEuNTYyLTAuMTA4LTEuNTU4LTAuMDg0Yy0wLjE5MiwwLjE0My0wLjMyNywwLjMzMi0wLjM4NywwLjU2Yy0wLjA1NywwLjIxNiwwLjI5LDAuNjYzLDAuMzI3LDAuNzM2ICAgYy0wLjAxNiwwLjMwNi0wLjAzMiwwLjYxMS0wLjA0OCwwLjkxNmMtMC4wMywwLjEwNy0wLjA2LDAuMjE0LTAuMDksMC4zMjFjLTAuMjI3LDAuMzUtMC40NiwwLjY5Ny0wLjY3OSwxLjA1MiAgIGMtMC4xOTcsMC4zMTktMC40MjIsMC42MjktMC40NSwxLjAyM2MtMC4xNTUsMC40LDAuMzk5LDAuOTMtMC4xMDUsMS4zOTZjLTAuNTA0LDAuNDY2LTEuMDExLDIuNzE0LTEuMDE5LDMuMjQ0ICAgYy0wLjAwOSwwLjU3LDEuMDMyLDEuODcyLDEuNDMsMi4yNDhDMjIuNTAzLDI2LjYwMiwyMy4xNTksMjYuODY1LDIzLjAxLDI3LjU5M3oiIGlkPSJwYXRoMTczMiIvPiYjeGE7CTxwYXRoIGZpbGw9IiMxRTFFMUUiIGQ9Ik0yMi41MDYsMjkuNzM4YzEuMDc2LDAuMzA0LDQuMTA1LDAuMzk1LDUuNTc2LTEuMDhjMC4yNDYtMC4yMjUsMC40OTMtMC40NSwwLjc0LTAuNjc1ICAgYzAuMDA5LDAuMjQ2LTAuMDA4LDAuNDg5LTAuMDQ2LDAuNzM1Yy0wLjEwMiwwLjY2LTAuMTgsMS4zMjUtMC4yNjcsMS45ODdjLTAuMDA2LDAuMzIzLTAuMDExLDAuNjQ2LTAuMDE3LDAuOTY5ICAgYy0xLjM1Ni0wLjM3My0zLjM5MS0wLjUwNS0zLjk5OS0wLjQ3M2MtMC42MDcsMC4wMzItMS40MzcsMC4xODQtMS45MTgsMC4zMUwyMi41MDYsMjkuNzM4eiIgaWQ9InBhdGgxNzM0Ii8+JiN4YTsJPHBhdGggZmlsbD0iI0REQTUxNiIgZD0iTTMzLjkwMiwyNy4xODRjLTAuMDIyLTAuMDMyLTAuMDQ0LTAuMDY0LTAuMDY3LTAuMDk2QzMzLjg1NywyNy4xMiwzMy44NzksMjcuMTUyLDMzLjkwMiwyNy4xODR6IiBpZD0icGF0aDE3MzYiLz4mI3hhOwk8cGF0aCBmaWxsPSIjRERBNTE2IiBkPSJNMzMuNTA3LDI1Ljc4M2MtMC4wMjktMC4wMjgtMC4wNTgtMC4wNTUtMC4wODctMC4wODNDMzMuNDQ5LDI1LjcyOCwzMy40NzgsMjUuNzU1LDMzLjUwNywyNS43ODN6IiBpZD0icGF0aDE3MzgiLz4mI3hhOwk8cGF0aCBmaWxsPSIjOEM1RjA3IiBkPSJNMjEuODg5LDI4LjgzN2MwLjAxNCwwLjAyMywwLjAyOSwwLjA0NiwwLjA0MywwLjA2OUMyMS45MTksMjguODgzLDIxLjkwNCwyOC44NTksMjEuODg5LDI4LjgzN3oiIGlkPSJwYXRoMTc0MCIvPiYjeGE7CTxwb2x5Z29uIGZpbGw9IiNFM0E5MDYiIHBvaW50cz0iMzMuNDIsMjUuNyAzMy40MjEsMjUuNzAxIDMzLjQyMiwyNS43MDEgICIgaWQ9InBvbHlnb24xNzQyIi8+JiN4YTsJPHBhdGggZmlsbD0iI0ZGOEMwMCIgZD0iTTIxLjQ0OSwyOC4xODljLTAuNzg2LTAuODE1LTEuMzg5LTEuODA0LTEuOTQyLTIuOTExYy0wLjI5MS0wLjU4Mi0xLjE4LTEuMDQ0LTEuNTEyLTAuMTMgICBjLTAuMzMyLDAuOTE0LTAuODYsMS4yODUtMS43MjQsMS4xNzFjLTAuNjMtMC4wODQtMS4yMjMsMC40MDEtMC45NTksMS4xOThjMC4yODUsMC44NiwwLjYxLDEuNTMzLTAuMDE0LDIuMTM1ICAgYy0wLjYyNCwwLjYwMy0wLjM3MSwxLjIyNSwwLjUwOCwxLjM0NGMwLjg3OSwwLjExOSwzLjE5LDAuNjQ1LDQuNTIzLDEuMzVjMS4zMzQsMC43MDQsMi4zOTgtMC42MjgsMi41MzktMS4wMjIgICBDMjMuMjIsMzAuMzQ4LDIyLjIzNiwyOS4wMDQsMjEuNDQ5LDI4LjE4OXoiIGlkPSJwYXRoMTc0NCIvPiYjeGE7CTxwYXRoIGZpbGw9IiMxRTFFMUUiIGQ9Ik0yNC40MjMsMTguNjI4Yy0wLjc1MSwwLTEuMjUzLTAuNzExLTEuNjA3LTEuMzMxbDAsMGMtMC4wMDMsMC0xLjE2Mi0xLjYyNi0wLjczOS0yLjUyNCAgIGMwLjA1OS0wLjEyNiwwLjE1OC0wLjMzOCwxLjM1MS0xLjA3NWwwLjIyMi0wLjE4OGwwLjIxMi0wLjEwN2wwLjEzNy0wLjA1NGMwLjE2NC0wLjA1MiwwLjM1MS0wLjEwNCwwLjUyOC0wLjEwNGgwLjA4MmwwLjE1OCwwLjAzNyAgIGwwLjM1NSwwLjExOWwyLjg5NywxLjA3bDAuMDgxLDAuNDM0YzAuMDY2LDAuMzUzLTAuMDIyLDAuNjU5LTAuMDk0LDAuOTA1bC0wLjExLDAuNDI1bC0wLjI0OCwwLjA5MSAgIGMtMC4yMTksMC4wOC0wLjU2MSwwLjQ0Ni0wLjgzNiwwLjc0MWMtMC4yNzMsMC4yOTItMC41MzEsMC41NjgtMC43OTYsMC43MzljLTAuMDk0LDAuMDY2LTAuMTk4LDAuMTQ1LTAuMjk4LDAuMjE5ICAgQzI1LjMwMywxOC4zMzQsMjQuOTEyLDE4LjYyOCwyNC40MjMsMTguNjI4eiIgaWQ9InBhdGgxNzQ2Ii8+JiN4YTsJPHBhdGggZmlsbD0iI0ZGOEMwMCIgZD0iTTI2LjM1NiwxNS4wNjljLTAuNTEzLDAuNDQzLTEuMDk5LDAuODI0LTEuODI4LDAuODQ0Yy0wLjAyNywwLjAyMy0wLjAyNywwLjAyMywwLDAgICBjMC4wMDUtMC4xNjYtMC4wMDUtMC4zMjUtMC4xNDYtMC40NDZjLTAuMTE3LTAuMS0wLjEzMS0wLjI0OC0wLjA5Ny0wLjM3OGMwLjEzNy0wLjUyNCwwLjA1My0xLjA1NSwwLjA3My0xLjU4MiAgIGMtMC4xMzctMC4wNDYtMC40NTEsMC4wNjktMC40OTIsMC4wNzljLTAuMDY0LDAuMDMyLTAuMTI4LDAuMDY0LTAuMTkxLDAuMDk2Yy0wLjA3MywwLjA2MS0wLjE0NSwwLjEyMS0wLjIxOCwwLjE4MiAgIGMtMC4wOTMsMC4wNTgtMS4wNzgsMC42NTktMS4xNzksMC44NzNjLTAuMjYsMC41NTIsMC41OTYsMS45MDUsMC43MjEsMi4wNjNjMSwxLjc1NSwxLjU1NSwwLjk5NCwyLjQ5NCwwLjMzNyAgIGMwLjUwNC0wLjMyNiwxLjE2LTEuMzIsMS43My0xLjUzYzAuMDctMC4yODMsMC4xOTEtMC41NTcsMC4xMzQtMC44NTlDMjYuOTk3LDE0Ljc2OCwyNi42NzcsMTQuNzkyLDI2LjM1NiwxNS4wNjl6IiBpZD0icGF0aDE3NDgiLz4mI3hhOwk8cGF0aCBmaWxsPSIjRTNBOTA2IiBkPSJNMjMuOTQzLDEzLjUxNmMwLjAwMywwLjAwMiwwLjAwNSwwLjAwMSwwLjAwOCwwLjAwMmMtMC4wMDItMC4wMDUsMC0wLjAwNi0wLjAwMy0wLjAxMUwyMy45NDMsMTMuNTE2eiIgaWQ9InBhdGgxNzUwIi8+JiN4YTsJPHBhdGggZmlsbD0iI0ZDRDExNiIgZD0iTTI2Ljk0NywxNC4zNTFjMC4yMTcsMC4xMDksMC40MTUsMC4yMzMsMC40MTEsMC41MThjLTAuMzk1LDAuMDI0LTAuNzQ2LDAuMDUtMS4wOTYsMC4zNTMgICBjLTAuNTYxLDAuNDg1LTEuMzIxLDEuMjAzLTIuMTE5LDEuMjI1YzAuMDMyLTAuMjYyLTAuMzQ1LTAuNjM5LTAuMjQzLTEuMDg2YzAuMTMyLTAuNTc3LDAuMTUzLTEuMjcyLDAuMTc1LTEuODUgICBjMC4zNjUtMC4xNDYsMC43MDQtMC4wMTMsMS4wNDYsMC4wOTRjMC4xNDIsMC4wODYsMC4yODUsMC4xNzMsMC40MjcsMC4yNThjMC4yNDksMC4wOTUsMC40OTgsMC4xOSwwLjc0NywwLjI4NiAgIEMyNi40OTEsMTQuMjgzLDI2LjcyNCwxNC4zLDI2Ljk0NywxNC4zNTF6IiBpZD0icGF0aDE3NTIiLz4mI3hhOzwvZz4mI3hhOzxyZWN0IHg9IjIzIiB5PSIxMi41NTQiIG9wYWNpdHk9IjAuOSIgZmlsbD0iI0ZGRkZGRiIgd2lkdGg9IjEiIGhlaWdodD0iMSIgaWQ9InJlY3QxNzU1Ii8+JiN4YTs8cmVjdCB4PSIyNiIgeT0iMTIuNTU0IiBvcGFjaXR5PSIwLjkiIGZpbGw9IiNGRkZGRkYiIHdpZHRoPSIxIiBoZWlnaHQ9IjEiIGlkPSJyZWN0MTc1NyIvPiYjeGE7PC9zdmc+" parent="1" vertex="1">
                    <mxGeometry x="275" y="505" width="50" height="50" as="geometry"/>
                </mxCell>
                <mxCell id="RHqKMBRxgFxfujLm67wK-4" value="" style="shape=image;verticalLabelPosition=bottom;verticalAlign=top;imageAspect=0;aspect=fixed;image=data:image/svg+xml,PHN2ZyB4bWxuczpkYz0iaHR0cDovL3B1cmwub3JnL2RjL2VsZW1lbnRzLzEuMS8iIHhtbG5zOmNjPSJodHRwOi8vY3JlYXRpdmVjb21tb25zLm9yZy9ucyMiIHhtbG5zOnJkZj0iaHR0cDovL3d3dy53My5vcmcvMTk5OS8wMi8yMi1yZGYtc3ludGF4LW5zIyIgeG1sbnM6c3ZnPSJodHRwOi8vd3d3LnczLm9yZy8yMDAwL3N2ZyIgeG1sbnM9Imh0dHA6Ly93d3cudzMub3JnLzIwMDAvc3ZnIiB4bWxuczpzb2RpcG9kaT0iaHR0cDovL3NvZGlwb2RpLnNvdXJjZWZvcmdlLm5ldC9EVEQvc29kaXBvZGktMC5kdGQiIHhtbG5zOmlua3NjYXBlPSJodHRwOi8vd3d3Lmlua3NjYXBlLm9yZy9uYW1lc3BhY2VzL2lua3NjYXBlIiB2ZXJzaW9uPSIxLjEiIGlkPSJMYXllcl8xIiB4PSIwcHgiIHk9IjBweCIgaGVpZ2h0PSI1MHB4IiB3aWR0aD0iNTBweCIgdmlld0JveD0iMCAwIDUwIDUwIiB4bWw6c3BhY2U9InByZXNlcnZlIiBzb2RpcG9kaTpkb2NuYW1lPSJEaXNrcy5zdmciIGlua3NjYXBlOnZlcnNpb249IjAuOTIuMyAoMjQwNTU0NiwgMjAxOC0wMy0xMSkiPjxtZXRhZGF0YSBpZD0ibWV0YWRhdGE5OTQiPjxyZGY6UkRGPjxjYzpXb3JrIHJkZjphYm91dD0iIj48ZGM6Zm9ybWF0PmltYWdlL3N2Zyt4bWw8L2RjOmZvcm1hdD48ZGM6dHlwZSByZGY6cmVzb3VyY2U9Imh0dHA6Ly9wdXJsLm9yZy9kYy9kY21pdHlwZS9TdGlsbEltYWdlIi8+PGRjOnRpdGxlLz48L2NjOldvcms+PC9yZGY6UkRGPjwvbWV0YWRhdGE+PGRlZnMgaWQ9ImRlZnM5OTIiLz48c29kaXBvZGk6bmFtZWR2aWV3IHBhZ2Vjb2xvcj0iI2ZmZmZmZiIgYm9yZGVyY29sb3I9IiM2NjY2NjYiIGJvcmRlcm9wYWNpdHk9IjEiIG9iamVjdHRvbGVyYW5jZT0iMTAiIGdyaWR0b2xlcmFuY2U9IjEwIiBndWlkZXRvbGVyYW5jZT0iMTAiIGlua3NjYXBlOnBhZ2VvcGFjaXR5PSIwIiBpbmtzY2FwZTpwYWdlc2hhZG93PSIyIiBpbmtzY2FwZTp3aW5kb3ctd2lkdGg9IjY0MCIgaW5rc2NhcGU6d2luZG93LWhlaWdodD0iNDgwIiBpZD0ibmFtZWR2aWV3OTkwIiBzaG93Z3JpZD0iZmFsc2UiIGlua3NjYXBlOnpvb209IjYuMjYiIGlua3NjYXBlOmN4PSIyNSIgaW5rc2NhcGU6Y3k9IjI1IiBpbmtzY2FwZTp3aW5kb3cteD0iMCIgaW5rc2NhcGU6d2luZG93LXk9IjAiIGlua3NjYXBlOndpbmRvdy1tYXhpbWl6ZWQ9IjEiIGlua3NjYXBlOmN1cnJlbnQtbGF5ZXI9IkxheWVyXzEiLz4mI3hhOzxwYXRoIGZpbGw9IiM3RkJBMDAiIGQ9Ik01MCwzNy4xOThjMCw1LjAwMS0xMS4xOTQsOS4wNTQtMjUsOS4wNTRTMCw0Mi4xOTksMCwzNy4xOTh2LTQuODhoNTBWMzcuMTk4eiIgaWQ9InBhdGg5NjkiLz4mI3hhOzxwYXRoIGZpbGw9IiNCOEQ0MzIiIGQ9Ik01MCwzMi4zMThjMCw1LjAwMS0xMS4xOTQsOS4wNTQtMjUsOS4wNTRTMCwzNy4zMTksMCwzMi4zMThjMC01LDExLjE5My05LjA1NCwyNS05LjA1NFM1MCwyNy4zMTgsNTAsMzIuMzE4ICAiIGlkPSJwYXRoOTcxIi8+JiN4YTs8cGF0aCBmaWxsPSIjN0ZCQTAwIiBkPSJNMzMuMDEzLDMxLjc5N2MwLDEuMzMtMy41ODgsMi40MDctOC4wMTQsMi40MDdzLTguMDE1LTEuMDc3LTguMDE1LTIuNDA3czMuNTg5LTIuNDA3LDguMDE1LTIuNDA3ICBTMzMuMDEzLDMwLjQ2OCwzMy4wMTMsMzEuNzk3IiBpZD0icGF0aDk3MyIvPiYjeGE7PHBhdGggb3BhY2l0eT0iMC4yNSIgZmlsbD0iI0ZGRkZGRiIgZD0iTTQzLjA3MSwyNi4xMTVjLTMuNTAyLTEuMzI3LTguMTA0LTIuMjY5LTEzLjI3OS0yLjYzM2wtMy4yNDQsNi4wMDQgIGMxLjU5NiwwLjA5NCwzLjAyMywwLjMyOSw0LjEyNywwLjY2Mkw0My4wNzEsMjYuMTE1eiIgaWQ9InBhdGg5NzUiLz4mI3hhOzxwYXRoIG9wYWNpdHk9IjAuMjUiIGZpbGw9IiNGRkZGRkYiIGQ9Ik01LjkwMiwzOC4yMDhjMy42MDEsMS41NDMsOC41OTgsMi42NDMsMTQuMjg4LDMuMDQ1bDMuNzkzLTcuMDIgIGMtMS41NzktMC4wNi0zLjAxNC0wLjI1Ny00LjE2OC0wLjU1Mkw1LjkwMiwzOC4yMDh6IiBpZD0icGF0aDk3NyIvPiYjeGE7PHBhdGggZmlsbD0iIzAwNzJDNiIgZD0iTTUwLDE3LjY4MmMwLDUuMDAxLTExLjE5NCw5LjA1NC0yNSw5LjA1NFMwLDIyLjY4MiwwLDE3LjY4MnYtNC44OGg1MFYxNy42ODJ6IiBpZD0icGF0aDk3OSIvPiYjeGE7PHBhdGggZmlsbD0iIzU5QjREOSIgZD0iTTUwLDEyLjgwMmMwLDUuMDAxLTExLjE5NCw5LjA1NC0yNSw5LjA1NFMwLDE3LjgwMiwwLDEyLjgwMnMxMS4xOTMtOS4wNTQsMjUtOS4wNTRTNTAsNy44MDEsNTAsMTIuODAyIiBpZD0icGF0aDk4MSIvPiYjeGE7PHBhdGggZmlsbD0iIzAwNzJDNiIgZD0iTTMzLjAxMywxMi4yODFjMCwxLjMzLTMuNTg4LDIuNDA3LTguMDE0LDIuNDA3cy04LjAxNS0xLjA3Ny04LjAxNS0yLjQwN3MzLjU4OS0yLjQwNyw4LjAxNS0yLjQwNyAgUzMzLjAxMywxMC45NTEsMzMuMDEzLDEyLjI4MSIgaWQ9InBhdGg5ODMiLz4mI3hhOzxwYXRoIG9wYWNpdHk9IjAuMjUiIGZpbGw9IiNGRkZGRkYiIGQ9Ik00My4wNzEsNi41NDljLTMuNTAyLTEuMzI3LTguMTA0LTIuMjY5LTEzLjI3OS0yLjYzM0wyNi41NDgsOS45MiAgYzEuNTk2LDAuMDk0LDMuMDIzLDAuMzI5LDQuMTI3LDAuNjYyTDQzLjA3MSw2LjU0OXoiIGlkPSJwYXRoOTg1Ii8+JiN4YTs8cGF0aCBvcGFjaXR5PSIwLjI1IiBmaWxsPSIjRkZGRkZGIiBkPSJNNS45MDIsMTguNjQyYzMuNjAxLDEuNTQzLDguNTk4LDIuNjQzLDE0LjI4OCwzLjA0NWwzLjc5My03LjAyICBjLTEuNTc5LTAuMDYtMy4wMTQtMC4yNTctNC4xNjgtMC41NTJMNS45MDIsMTguNjQyeiIgaWQ9InBhdGg5ODciLz4mI3hhOzwvc3ZnPg==" parent="1" vertex="1">
                    <mxGeometry x="335" y="505" width="50" height="50" as="geometry"/>
                </mxCell>
                <mxCell id="RHqKMBRxgFxfujLm67wK-5" value="" style="shape=image;verticalLabelPosition=bottom;verticalAlign=top;imageAspect=0;aspect=fixed;image=data:image/svg+xml,PHN2ZyB4bWxuczpkYz0iaHR0cDovL3B1cmwub3JnL2RjL2VsZW1lbnRzLzEuMS8iIHhtbG5zOmNjPSJodHRwOi8vY3JlYXRpdmVjb21tb25zLm9yZy9ucyMiIHhtbG5zOnJkZj0iaHR0cDovL3d3dy53My5vcmcvMTk5OS8wMi8yMi1yZGYtc3ludGF4LW5zIyIgeG1sbnM6c3ZnPSJodHRwOi8vd3d3LnczLm9yZy8yMDAwL3N2ZyIgeG1sbnM9Imh0dHA6Ly93d3cudzMub3JnLzIwMDAvc3ZnIiB4bWxuczpzb2RpcG9kaT0iaHR0cDovL3NvZGlwb2RpLnNvdXJjZWZvcmdlLm5ldC9EVEQvc29kaXBvZGktMC5kdGQiIHhtbG5zOmlua3NjYXBlPSJodHRwOi8vd3d3Lmlua3NjYXBlLm9yZy9uYW1lc3BhY2VzL2lua3NjYXBlIiB2aWV3Qm94PSIwIDAgNTAgNTAiIGNsYXNzPSJmeHMtcG9ydGFsLXN2ZyIgcm9sZT0icHJlc2VudGF0aW9uIiBmb2N1c2FibGU9ImZhbHNlIiBpZD0iRnhTeW1ib2wwLTA2ZiIgdmVyc2lvbj0iMS4xIiBzb2RpcG9kaTpkb2NuYW1lPSJOZXR3b3JrIFNlY3VyaXR5IEdyb3VwcyAoQ2xhc3NpYykuc3ZnIiBpbmtzY2FwZTp2ZXJzaW9uPSIwLjkyLjMgKDI0MDU1NDYsIDIwMTgtMDMtMTEpIj4mI3hhOyAgPG1ldGFkYXRhIGlkPSJtZXRhZGF0YTIxMzEiPiYjeGE7ICAgIDxyZGY6UkRGPiYjeGE7ICAgICAgPGNjOldvcmsgcmRmOmFib3V0PSIiPiYjeGE7ICAgICAgICA8ZGM6Zm9ybWF0PmltYWdlL3N2Zyt4bWw8L2RjOmZvcm1hdD4mI3hhOyAgICAgICAgPGRjOnR5cGUgcmRmOnJlc291cmNlPSJodHRwOi8vcHVybC5vcmcvZGMvZGNtaXR5cGUvU3RpbGxJbWFnZSIvPiYjeGE7ICAgICAgICA8ZGM6dGl0bGUvPiYjeGE7ICAgICAgPC9jYzpXb3JrPiYjeGE7ICAgIDwvcmRmOlJERj4mI3hhOyAgPC9tZXRhZGF0YT4mI3hhOyAgPGRlZnMgaWQ9ImRlZnMyMTI5Ii8+JiN4YTsgIDxzb2RpcG9kaTpuYW1lZHZpZXcgcGFnZWNvbG9yPSIjZmZmZmZmIiBib3JkZXJjb2xvcj0iIzY2NjY2NiIgYm9yZGVyb3BhY2l0eT0iMSIgb2JqZWN0dG9sZXJhbmNlPSIxMCIgZ3JpZHRvbGVyYW5jZT0iMTAiIGd1aWRldG9sZXJhbmNlPSIxMCIgaW5rc2NhcGU6cGFnZW9wYWNpdHk9IjAiIGlua3NjYXBlOnBhZ2VzaGFkb3c9IjIiIGlua3NjYXBlOndpbmRvdy13aWR0aD0iNjQwIiBpbmtzY2FwZTp3aW5kb3ctaGVpZ2h0PSI0ODAiIGlkPSJuYW1lZHZpZXcyMTI3IiBzaG93Z3JpZD0iZmFsc2UiIGlua3NjYXBlOnpvb209IjYuMjYiIGlua3NjYXBlOmN4PSIyNSIgaW5rc2NhcGU6Y3k9IjI1IiBpbmtzY2FwZTp3aW5kb3cteD0iMCIgaW5rc2NhcGU6d2luZG93LXk9IjAiIGlua3NjYXBlOndpbmRvdy1tYXhpbWl6ZWQ9IjEiIGlua3NjYXBlOmN1cnJlbnQtbGF5ZXI9IkZ4U3ltYm9sMC0wNmYiLz4mI3hhOyAgPGcgaWQ9ImcyMTI0Ij4mI3hhOyAgICA8dGl0bGUgaWQ9InRpdGxlMjExMCIvPiYjeGE7ICAgIDxwYXRoIGQ9Ik0zOC4yIDZjLTExLTEuMi0xMi45LTYtMTIuOS02UzIyLjggNi4yIDcgNi4ydjI1LjZjMCAzLjEgMS43IDYgNC4xIDguNSA1LjQgNS43IDE0LjIgOS42IDE0LjIgOS42czE4LjMtOCAxOC4zLTE4LjFWNi4yYy0yIDAtMy44LS4xLTUuNC0uMnoiIGNsYXNzPSJtc3BvcnRhbGZ4LXN2Zy1jMTkiIGZpbGw9IiMwMDcyYzYiIGlkPSJwYXRoMjExMiIvPiYjeGE7ICAgIDxwYXRoIG9wYWNpdHk9Ii40IiBkPSJNMjkuOSAxNi41TDM4LjIgNmMtMTEtMS4yLTEyLjktNi0xMi45LTZTMjIuOCA2LjIgNyA2LjJ2MjUuNmMwIDMuMSAxLjcgNiA0LjEgOC41bDYuMi03LjggMTIuNi0xNnoiIGNsYXNzPSJtc3BvcnRhbGZ4LXN2Zy1jMTYiIGZpbGw9IiMzOTk5YzYiIGlkPSJwYXRoMjExNCIvPiYjeGE7ICAgIDxnIGNsYXNzPSJtc3BvcnRhbGZ4LXN2Zy1jMDEiIGZpbGw9IiNmZmZmZmYiIGlkPSJnMjEyMiI+JiN4YTsgICAgICA8cGF0aCBvcGFjaXR5PSIuMyIgZD0iTTEwLjggMjQuNHY2LjFjMCAyLjUgMS40IDQuOCAzLjMgNi44IDQuMyA0LjYgMTEuMyA3LjYgMTEuMyA3LjZWMjQuNEgxMC44eiIgaWQ9InBhdGgyMTE2Ii8+JiN4YTsgICAgICA8cGF0aCBvcGFjaXR5PSIuNyIgZD0iTTI1LjMgNDQuOXMxNC42LTYuNCAxNC42LTE0LjR2LTYuMUgyNS4zdjIwLjV6bTAtMzkuOHMtMiA1LTE0LjYgNXYxNC4zaDE0LjZWNS4xeiIgaWQ9InBhdGgyMTE4Ii8+JiN4YTsgICAgICA8cGF0aCBvcGFjaXR5PSIuMyIgZD0iTTM1LjUgOS45Yy04LjctMS0xMC4yLTQuNy0xMC4yLTQuN3YxOS4yaDE0LjZWMTAuMWMtMS42IDAtMy4xLS4xLTQuNC0uMnoiIGlkPSJwYXRoMjEyMCIvPiYjeGE7ICAgIDwvZz4mI3hhOyAgPC9nPiYjeGE7PC9zdmc+" parent="1" vertex="1">
                    <mxGeometry x="290" y="640" width="50" height="50" as="geometry"/>
                </mxCell>
                <mxCell id="RHqKMBRxgFxfujLm67wK-6" value="" style="shape=image;verticalLabelPosition=bottom;verticalAlign=top;imageAspect=0;aspect=fixed;image=data:image/svg+xml,PHN2ZyB4bWxuczpkYz0iaHR0cDovL3B1cmwub3JnL2RjL2VsZW1lbnRzLzEuMS8iIHhtbG5zOmNjPSJodHRwOi8vY3JlYXRpdmVjb21tb25zLm9yZy9ucyMiIHhtbG5zOnJkZj0iaHR0cDovL3d3dy53My5vcmcvMTk5OS8wMi8yMi1yZGYtc3ludGF4LW5zIyIgeG1sbnM6c3ZnPSJodHRwOi8vd3d3LnczLm9yZy8yMDAwL3N2ZyIgeG1sbnM9Imh0dHA6Ly93d3cudzMub3JnLzIwMDAvc3ZnIiB4bWxuczpzb2RpcG9kaT0iaHR0cDovL3NvZGlwb2RpLnNvdXJjZWZvcmdlLm5ldC9EVEQvc29kaXBvZGktMC5kdGQiIHhtbG5zOmlua3NjYXBlPSJodHRwOi8vd3d3Lmlua3NjYXBlLm9yZy9uYW1lc3BhY2VzL2lua3NjYXBlIiB2ZXJzaW9uPSIxLjEiIGlkPSJMYXllcl8xIiB4PSIwcHgiIHk9IjBweCIgd2lkdGg9IjUwcHgiIGhlaWdodD0iNTBweCIgdmlld0JveD0iMCAwIDUwIDUwIiBlbmFibGUtYmFja2dyb3VuZD0ibmV3IDAgMCA1MCA1MCIgeG1sOnNwYWNlPSJwcmVzZXJ2ZSIgc29kaXBvZGk6ZG9jbmFtZT0iQ29ubmVjdGlvbnMuc3ZnIiBpbmtzY2FwZTp2ZXJzaW9uPSIwLjkyLjMgKDI0MDU1NDYsIDIwMTgtMDMtMTEpIj48bWV0YWRhdGEgaWQ9Im1ldGFkYXRhMTEyMyI+PHJkZjpSREY+PGNjOldvcmsgcmRmOmFib3V0PSIiPjxkYzpmb3JtYXQ+aW1hZ2Uvc3ZnK3htbDwvZGM6Zm9ybWF0PjxkYzp0eXBlIHJkZjpyZXNvdXJjZT0iaHR0cDovL3B1cmwub3JnL2RjL2RjbWl0eXBlL1N0aWxsSW1hZ2UiLz48ZGM6dGl0bGUvPjwvY2M6V29yaz48L3JkZjpSREY+PC9tZXRhZGF0YT48ZGVmcyBpZD0iZGVmczExMjEiLz48c29kaXBvZGk6bmFtZWR2aWV3IHBhZ2Vjb2xvcj0iI2ZmZmZmZiIgYm9yZGVyY29sb3I9IiM2NjY2NjYiIGJvcmRlcm9wYWNpdHk9IjEiIG9iamVjdHRvbGVyYW5jZT0iMTAiIGdyaWR0b2xlcmFuY2U9IjEwIiBndWlkZXRvbGVyYW5jZT0iMTAiIGlua3NjYXBlOnBhZ2VvcGFjaXR5PSIwIiBpbmtzY2FwZTpwYWdlc2hhZG93PSIyIiBpbmtzY2FwZTp3aW5kb3ctd2lkdGg9IjY0MCIgaW5rc2NhcGU6d2luZG93LWhlaWdodD0iNDgwIiBpZD0ibmFtZWR2aWV3MTExOSIgc2hvd2dyaWQ9ImZhbHNlIiBpbmtzY2FwZTp6b29tPSI2LjI2IiBpbmtzY2FwZTpjeD0iMjUiIGlua3NjYXBlOmN5PSIyNSIgaW5rc2NhcGU6d2luZG93LXg9IjAiIGlua3NjYXBlOndpbmRvdy15PSIwIiBpbmtzY2FwZTp3aW5kb3ctbWF4aW1pemVkPSIxIiBpbmtzY2FwZTpjdXJyZW50LWxheWVyPSJMYXllcl8xIi8+JiN4YTs8cG9seWdvbiBmaWxsPSIjQjhENDMyIiBwb2ludHM9IjM3LjgsMTMuMSAzNC41LDkuOCAyMy44LDIwLjYgMzQuNSwzMS40IDM3LjgsMjguMyAzMC41LDIwLjkgIiBpZD0icG9seWdvbjExMTIiLz4mI3hhOzxwb2x5Z29uIGZpbGw9IiNCOEQ0MzIiIHBvaW50cz0iMTIuMiwyMi4yIDE5LjUsMjkuNSAxMi4yLDM2LjkgMTUuNSw0MC4yIDI2LjIsMjkuNCAxNS41LDE4LjYgIiBpZD0icG9seWdvbjExMTQiLz4mI3hhOzxwYXRoIGZpbGw9IiM1OUI0RDkiIGQ9Ik0yNSwwQzExLjEsMCwwLDExLjQsMCwyNWMwLDEzLjksMTEuNCwyNSwyNSwyNXMyNS0xMS40LDI1LTI1UzM4LjksMCwyNSwweiBNMjUsMy4zQzM3LDMuMyw0Ni43LDEzLDQ2LjcsMjUgIFMzNi45LDQ2LjcsMjUsNDYuN1MzLjMsMzYuOSwzLjMsMjVTMTMsMy4zLDI1LDMuM3oiIGlkPSJwYXRoMTExNiIvPiYjeGE7PC9zdmc+" parent="1" vertex="1">
                    <mxGeometry x="550" y="580" width="50" height="50" as="geometry"/>
                </mxCell>
                <mxCell id="RHqKMBRxgFxfujLm67wK-7" value="Core VM" style="text;html=1;strokeColor=none;fillColor=none;align=center;verticalAlign=middle;whiteSpace=wrap;rounded=0;" parent="1" vertex="1">
                    <mxGeometry x="280" y="560" width="40" height="25" as="geometry"/>
                </mxCell>
                <mxCell id="RHqKMBRxgFxfujLm67wK-8" value="Core Disk" style="text;html=1;strokeColor=none;fillColor=none;align=center;verticalAlign=middle;whiteSpace=wrap;rounded=0;" parent="1" vertex="1">
                    <mxGeometry x="340" y="562.5" width="40" height="20" as="geometry"/>
                </mxCell>
                <mxCell id="RHqKMBRxgFxfujLm67wK-9" value="VNet" style="text;html=1;strokeColor=none;fillColor=none;align=center;verticalAlign=middle;whiteSpace=wrap;rounded=0;" parent="1" vertex="1">
                    <mxGeometry x="245" y="680" width="40" height="20" as="geometry"/>
                </mxCell>
                <mxCell id="RHqKMBRxgFxfujLm67wK-10" value="NSG" style="text;html=1;strokeColor=none;fillColor=none;align=center;verticalAlign=middle;whiteSpace=wrap;rounded=0;" parent="1" vertex="1">
                    <mxGeometry x="295" y="690" width="40" height="20" as="geometry"/>
                </mxCell>
                <mxCell id="RHqKMBRxgFxfujLm67wK-11" value="Azure Bastion" style="text;html=1;strokeColor=none;fillColor=none;align=center;verticalAlign=middle;whiteSpace=wrap;rounded=0;" parent="1" vertex="1">
                    <mxGeometry x="555" y="630" width="40" height="20" as="geometry"/>
                </mxCell>
                <mxCell id="RHqKMBRxgFxfujLm67wK-12" value="Hub RG" style="text;html=1;strokeColor=none;fillColor=none;align=center;verticalAlign=middle;whiteSpace=wrap;rounded=0;" parent="1" vertex="1">
                    <mxGeometry x="195" y="700" width="40" height="30" as="geometry"/>
                </mxCell>
                <mxCell id="RHqKMBRxgFxfujLm67wK-14" value="Task" style="shape=ext;rounded=1;html=1;whiteSpace=wrap;" parent="1" vertex="1">
                    <mxGeometry x="55" y="190" width="230" height="120" as="geometry"/>
                </mxCell>
                <mxCell id="RHqKMBRxgFxfujLm67wK-15" value="" style="shape=image;verticalLabelPosition=bottom;verticalAlign=top;imageAspect=0;aspect=fixed;image=data:image/svg+xml,PHN2ZyB4bWxuczpkYz0iaHR0cDovL3B1cmwub3JnL2RjL2VsZW1lbnRzLzEuMS8iIHhtbG5zOmNjPSJodHRwOi8vY3JlYXRpdmVjb21tb25zLm9yZy9ucyMiIHhtbG5zOnJkZj0iaHR0cDovL3d3dy53My5vcmcvMTk5OS8wMi8yMi1yZGYtc3ludGF4LW5zIyIgeG1sbnM6c3ZnPSJodHRwOi8vd3d3LnczLm9yZy8yMDAwL3N2ZyIgeG1sbnM9Imh0dHA6Ly93d3cudzMub3JnLzIwMDAvc3ZnIiB4bWxuczpzb2RpcG9kaT0iaHR0cDovL3NvZGlwb2RpLnNvdXJjZWZvcmdlLm5ldC9EVEQvc29kaXBvZGktMC5kdGQiIHhtbG5zOmlua3NjYXBlPSJodHRwOi8vd3d3Lmlua3NjYXBlLm9yZy9uYW1lc3BhY2VzL2lua3NjYXBlIiB2ZXJzaW9uPSIxLjEiIGlkPSJMYXllcl8xIiB4PSIwcHgiIHk9IjBweCIgd2lkdGg9IjUwcHgiIGhlaWdodD0iNTBweCIgdmlld0JveD0iMCAwIDUwIDUwIiBlbmFibGUtYmFja2dyb3VuZD0ibmV3IDAgMCA1MCA1MCIgeG1sOnNwYWNlPSJwcmVzZXJ2ZSIgc29kaXBvZGk6ZG9jbmFtZT0iUmVzb3VyY2UgR3JvdXBzLnN2ZyIgaW5rc2NhcGU6dmVyc2lvbj0iMC45Mi4zICgyNDA1NTQ2LCAyMDE4LTAzLTExKSI+PG1ldGFkYXRhIGlkPSJtZXRhZGF0YTMzODAiPjxyZGY6UkRGPjxjYzpXb3JrIHJkZjphYm91dD0iIj48ZGM6Zm9ybWF0PmltYWdlL3N2Zyt4bWw8L2RjOmZvcm1hdD48ZGM6dHlwZSByZGY6cmVzb3VyY2U9Imh0dHA6Ly9wdXJsLm9yZy9kYy9kY21pdHlwZS9TdGlsbEltYWdlIi8+PGRjOnRpdGxlLz48L2NjOldvcms+PC9yZGY6UkRGPjwvbWV0YWRhdGE+PGRlZnMgaWQ9ImRlZnMzMzc4Ii8+PHNvZGlwb2RpOm5hbWVkdmlldyBwYWdlY29sb3I9IiNmZmZmZmYiIGJvcmRlcmNvbG9yPSIjNjY2NjY2IiBib3JkZXJvcGFjaXR5PSIxIiBvYmplY3R0b2xlcmFuY2U9IjEwIiBncmlkdG9sZXJhbmNlPSIxMCIgZ3VpZGV0b2xlcmFuY2U9IjEwIiBpbmtzY2FwZTpwYWdlb3BhY2l0eT0iMCIgaW5rc2NhcGU6cGFnZXNoYWRvdz0iMiIgaW5rc2NhcGU6d2luZG93LXdpZHRoPSIxNjAwIiBpbmtzY2FwZTp3aW5kb3ctaGVpZ2h0PSI4MzciIGlkPSJuYW1lZHZpZXczMzc2IiBzaG93Z3JpZD0iZmFsc2UiIGlua3NjYXBlOnpvb209IjYuMjYiIGlua3NjYXBlOmN4PSIyNSIgaW5rc2NhcGU6Y3k9IjI1IiBpbmtzY2FwZTp3aW5kb3cteD0iLTgiIGlua3NjYXBlOndpbmRvdy15PSItOCIgaW5rc2NhcGU6d2luZG93LW1heGltaXplZD0iMSIgaW5rc2NhcGU6Y3VycmVudC1sYXllcj0iTGF5ZXJfMSIvPiYjeGE7PHBhdGggZmlsbD0iIzM5OTlDNiIgZD0iTTI1LjA0NywyMi42NDdjLTAuMDc4LDAtMC4xNS0wLjAyMy0wLjIyLTAuMDY0bC0xNC43MTEtOC40OWMtMC4xNC0wLjA4LTAuMjIzLTAuMjI4LTAuMjIzLTAuMzg5ICBjMC0wLjE1NiwwLjA4My0wLjMwNCwwLjIyMy0wLjM4MmwxNC42MTYtOC40MzVjMC4xMzktMC4wNzcsMC4zMDktMC4wNzcsMC40NDIsMGwxNC43MTQsOC40OTVjMC4xMzMsMC4wNzgsMC4yMjEsMC4yMjQsMC4yMjEsMC4zODIgIGMwLDAuMTYzLTAuMDg4LDAuMzA4LTAuMjIxLDAuMzg3bC0xNC42MTksOC40MzNDMjUuMiwyMi42MjQsMjUuMTI2LDIyLjY0NywyNS4wNDcsMjIuNjQ3IiBpZD0icGF0aDMzNjMiLz4mI3hhOzxwYXRoIGZpbGw9IiM1OUI0RDkiIGQ9Ik0yMi45MzIsNDMuMjg0Yy0wLjA4LDAtMC4xNTgtMC4wMTktMC4yMjYtMC4wNTlMOC4wNDIsMzQuNzYxYy0wLjE0Mi0wLjA3OS0wLjIyNi0wLjIyNC0wLjIyNi0wLjM4NlYxNy4zOSAgYzAtMC4xNTksMC4wODQtMC4zMDUsMC4yMjYtMC4zODljMC4xMzQtMC4wNzcsMC4zMDYtMC4wNzcsMC40NDgsMGwxNC42NjIsOC40NjRjMC4xMzYsMC4wODIsMC4yMTgsMC4yMjgsMC4yMTgsMC4zODd2MTYuOTg3ICBjMCwwLjE2My0wLjA4MywwLjMwNS0wLjIxOCwwLjM4NkMyMy4wNzksNDMuMjY2LDIzLjAwNiw0My4yODQsMjIuOTMyLDQzLjI4NCIgaWQ9InBhdGgzMzY1Ii8+JiN4YTs8cGF0aCBmaWxsPSIjNTlCNEQ5IiBkPSJNMjcuMDgxLDQzLjI4NGMtMC4wNzUsMC0wLjE1Mi0wLjAxOS0wLjIyNi0wLjA1OWMtMC4xMzYtMC4wODEtMC4yMi0wLjIyMy0wLjIyLTAuMzg2VjI1Ljk2MiAgYzAtMC4xNTksMC4wODQtMC4zMDUsMC4yMi0wLjM4N2wxNC42Ni04LjQ2MWMwLjE0Mi0wLjA3OCwwLjMwOC0wLjA3OCwwLjQ0OCwwYzAuMTM0LDAuMDgsMC4yMiwwLjIyNywwLjIyLDAuMzg1djE2Ljg3NyAgYzAsMC4xNjItMC4wODUsMC4zMDYtMC4yMiwwLjM4NmwtMTQuNjY1LDguNDY0QzI3LjIzNyw0My4yNjYsMjcuMTU4LDQzLjI4NCwyNy4wODEsNDMuMjg0IiBpZD0icGF0aDMzNjciLz4mI3hhOzxwYXRoIG9wYWNpdHk9IjAuNSIgZmlsbD0iI0ZGRkZGRiIgZD0iTTI3LjA4MSw0My4yODRjLTAuMDc1LDAtMC4xNTItMC4wMTktMC4yMjYtMC4wNTljLTAuMTM2LTAuMDgxLTAuMjItMC4yMjMtMC4yMi0wLjM4NlYyNS45NjIgIGMwLTAuMTU5LDAuMDg0LTAuMzA1LDAuMjItMC4zODdsMTQuNjYtOC40NjFjMC4xNDItMC4wNzgsMC4zMDgtMC4wNzgsMC40NDgsMGMwLjEzNCwwLjA4LDAuMjIsMC4yMjcsMC4yMiwwLjM4NXYxNi44NzcgIGMwLDAuMTYyLTAuMDg1LDAuMzA2LTAuMjIsMC4zODZsLTE0LjY2NSw4LjQ2NEMyNy4yMzcsNDMuMjY2LDI3LjE1OCw0My4yODQsMjcuMDgxLDQzLjI4NCIgaWQ9InBhdGgzMzY5Ii8+JiN4YTs8cGF0aCBmaWxsPSIjN0E3QTdBIiBkPSJNOS41NTgsNDUuMTcxYy0wLjI0NywwLTAuNDk3LTAuMDYzLTAuNzI2LTAuMTk1bC02Ljg0NS0zLjk1MkMwLjgzNSw0MC4zNTgsMCwzOC45MTEsMCwzNy41ODJWMTIuNDE4ICBjMC0xLjMyOSwwLjgzNS0yLjc3NywxLjk4Ny0zLjQ0MWw2Ljg0NS0zLjk1MmMwLjY5Ny0wLjQwMSwxLjU4Ni0wLjE2MywxLjk4NywwLjUzMmMwLjQwMiwwLjY5NiwwLjE2MywxLjU4NS0wLjUzMiwxLjk4NyAgbC02Ljg0NSwzLjk1MmMtMC4yNDMsMC4xNDEtMC41MzIsMC42NDEtMC41MzIsMC45MjJ2MjUuMTY0YzAsMC4yODEsMC4yODksMC43ODIsMC41MzIsMC45MjJsNi44NDUsMy45NTIgIGMwLjY5NiwwLjQwMiwwLjkzNCwxLjI5MSwwLjUzMiwxLjk4N0MxMC41NSw0NC45MSwxMC4wNjEsNDUuMTcxLDkuNTU4LDQ1LjE3MXoiIGlkPSJwYXRoMzM3MSIvPiYjeGE7PHBhdGggZmlsbD0iIzdBN0E3QSIgZD0iTTQwLjQ0Miw0LjgyOWMwLjI0NywwLDAuNDk3LDAuMDYzLDAuNzI2LDAuMTk1bDYuODQ1LDMuOTUyQzQ5LjE2NSw5LjY0Miw1MCwxMS4wODksNTAsMTIuNDE4djI1LjE2NCAgYzAsMS4zMjktMC44MzUsMi43NzctMS45ODcsMy40NDFsLTYuODQ1LDMuOTUyYy0wLjY5NywwLjQwMS0xLjU4NiwwLjE2My0xLjk4Ny0wLjUzMmMtMC40MDItMC42OTYtMC4xNjMtMS41ODUsMC41MzItMS45ODcgIGw2Ljg0NS0zLjk1MmMwLjI0My0wLjE0MSwwLjUzMi0wLjY0MSwwLjUzMi0wLjkyMlYxMi40MThjMC0wLjI4MS0wLjI4OS0wLjc4Mi0wLjUzMi0wLjkyMmwtNi44NDUtMy45NTIgIGMtMC42OTYtMC40MDItMC45MzQtMS4yOTEtMC41MzItMS45ODdDMzkuNDUsNS4wOSwzOS45MzksNC44MjksNDAuNDQyLDQuODI5eiIgaWQ9InBhdGgzMzczIi8+JiN4YTs8L3N2Zz4=" parent="1" vertex="1">
                    <mxGeometry x="15" y="310" width="50" height="50" as="geometry"/>
                </mxCell>
                <mxCell id="RHqKMBRxgFxfujLm67wK-16" value="" style="shape=image;verticalLabelPosition=bottom;verticalAlign=top;imageAspect=0;aspect=fixed;image=data:image/svg+xml,PHN2ZyB4bWxuczpkYz0iaHR0cDovL3B1cmwub3JnL2RjL2VsZW1lbnRzLzEuMS8iIHhtbG5zOmNjPSJodHRwOi8vY3JlYXRpdmVjb21tb25zLm9yZy9ucyMiIHhtbG5zOnJkZj0iaHR0cDovL3d3dy53My5vcmcvMTk5OS8wMi8yMi1yZGYtc3ludGF4LW5zIyIgeG1sbnM6c3ZnPSJodHRwOi8vd3d3LnczLm9yZy8yMDAwL3N2ZyIgeG1sbnM9Imh0dHA6Ly93d3cudzMub3JnLzIwMDAvc3ZnIiB4bWxuczpzb2RpcG9kaT0iaHR0cDovL3NvZGlwb2RpLnNvdXJjZWZvcmdlLm5ldC9EVEQvc29kaXBvZGktMC5kdGQiIHhtbG5zOmlua3NjYXBlPSJodHRwOi8vd3d3Lmlua3NjYXBlLm9yZy9uYW1lc3BhY2VzL2lua3NjYXBlIiB2ZXJzaW9uPSIxLjEiIGlkPSJMYXllcl8xIiB4PSIwcHgiIHk9IjBweCIgaGVpZ2h0PSI1MHB4IiB3aWR0aD0iNTBweCIgdmlld0JveD0iMCAwIDUwIDUwIiBlbmFibGUtYmFja2dyb3VuZD0ibmV3IDAgMCA1MCA1MCIgeG1sOnNwYWNlPSJwcmVzZXJ2ZSIgc29kaXBvZGk6ZG9jbmFtZT0iVmlydHVhbCBOZXR3b3Jrcy5zdmciIGlua3NjYXBlOnZlcnNpb249IjAuOTIuMyAoMjQwNTU0NiwgMjAxOC0wMy0xMSkiPjxtZXRhZGF0YSBpZD0ibWV0YWRhdGEzMTQ3Ij48cmRmOlJERj48Y2M6V29yayByZGY6YWJvdXQ9IiI+PGRjOmZvcm1hdD5pbWFnZS9zdmcreG1sPC9kYzpmb3JtYXQ+PGRjOnR5cGUgcmRmOnJlc291cmNlPSJodHRwOi8vcHVybC5vcmcvZGMvZGNtaXR5cGUvU3RpbGxJbWFnZSIvPjxkYzp0aXRsZS8+PC9jYzpXb3JrPjwvcmRmOlJERj48L21ldGFkYXRhPjxkZWZzIGlkPSJkZWZzMzE0NSIvPjxzb2RpcG9kaTpuYW1lZHZpZXcgcGFnZWNvbG9yPSIjZmZmZmZmIiBib3JkZXJjb2xvcj0iIzY2NjY2NiIgYm9yZGVyb3BhY2l0eT0iMSIgb2JqZWN0dG9sZXJhbmNlPSIxMCIgZ3JpZHRvbGVyYW5jZT0iMTAiIGd1aWRldG9sZXJhbmNlPSIxMCIgaW5rc2NhcGU6cGFnZW9wYWNpdHk9IjAiIGlua3NjYXBlOnBhZ2VzaGFkb3c9IjIiIGlua3NjYXBlOndpbmRvdy13aWR0aD0iNjQwIiBpbmtzY2FwZTp3aW5kb3ctaGVpZ2h0PSI0ODAiIGlkPSJuYW1lZHZpZXczMTQzIiBzaG93Z3JpZD0iZmFsc2UiIGlua3NjYXBlOnpvb209IjYuMjYiIGlua3NjYXBlOmN4PSIyNSIgaW5rc2NhcGU6Y3k9IjI1IiBpbmtzY2FwZTp3aW5kb3cteD0iMCIgaW5rc2NhcGU6d2luZG93LXk9IjAiIGlua3NjYXBlOndpbmRvdy1tYXhpbWl6ZWQ9IjEiIGlua3NjYXBlOmN1cnJlbnQtbGF5ZXI9IkxheWVyXzEiLz4mI3hhOzxwYXRoIGZpbGw9IiMzOTk5QzYiIGQ9Ik00OS43LDI1LjdjMC41LTAuNSwwLjQtMS4zLDAtMS44bC0yLjQtMi40TDM2LjUsMTFjLTAuNS0wLjUtMS4yLTAuNS0xLjcsMGwwLDBjLTAuNSwwLjUtMC42LDEuMywwLDEuOCAgbDExLjMsMTEuMWMwLjUsMC41LDAuNSwxLjMsMCwxLjhMMzQuNiwzNy4yYy0wLjUsMC41LTAuNSwxLjMsMCwxLjhsMCwwYzAuNSwwLjUsMS4zLDAuNCwxLjcsMGwxMC43LTEwLjZjMCwwLDAsMCwwLjEtMC4xTDQ5LjcsMjUuNyAgeiIgaWQ9InBhdGgzMTMyIi8+JiN4YTs8cGF0aCBmaWxsPSIjMzk5OUM2IiBkPSJNMC4zLDI1LjdjLTAuNS0wLjUtMC40LTEuMywwLTEuOGwyLjQtMi40TDEzLjUsMTFjMC41LTAuNSwxLjItMC41LDEuNywwbDAsMGMwLjUsMC41LDAuNiwxLjMsMCwxLjggIEw0LjEsMjMuOWMtMC41LDAuNS0wLjUsMS4zLDAsMS44bDExLjMsMTEuNWMwLjUsMC41LDAuNSwxLjMsMCwxLjhsMCwwYy0wLjUsMC41LTEuMywwLjQtMS43LDBMMi44LDI4LjVjMCwwLDAsMC0wLjEtMC4xTDAuMywyNS43eiIgaWQ9InBhdGgzMTM0Ii8+JiN4YTs8cGF0aCBmaWxsPSIjN0ZCQTAwIiBkPSJNMTguMiwyNC44YzAsMS45LTEuNiwzLjMtMy4zLDMuM3MtMy41LTEuNi0zLjUtMy4zczEuNC0zLjMsMy41LTMuM0MxNi45LDIxLjUsMTguMiwyMy4xLDE4LjIsMjQuOHoiIGlkPSJwYXRoMzEzNiIvPiYjeGE7PHBhdGggZmlsbD0iIzdGQkEwMCIgZD0iTTI4LjMsMjQuOGMwLDEuOS0xLjYsMy4zLTMuMywzLjNzLTMuNS0xLjYtMy41LTMuM3MxLjYtMy4zLDMuNS0zLjNTMjguMywyMy4xLDI4LjMsMjQuOHoiIGlkPSJwYXRoMzEzOCIvPiYjeGE7PGNpcmNsZSBmaWxsPSIjN0ZCQTAwIiBjeD0iMzUuMiIgY3k9IjI0LjgiIHI9IjMuMyIgaWQ9ImNpcmNsZTMxNDAiLz4mI3hhOzwvc3ZnPg==" parent="1" vertex="1">
                    <mxGeometry x="85" y="290" width="50" height="50" as="geometry"/>
                </mxCell>
                <mxCell id="RHqKMBRxgFxfujLm67wK-18" value="" style="shape=image;verticalLabelPosition=bottom;verticalAlign=top;imageAspect=0;aspect=fixed;image=data:image/svg+xml,PHN2ZyB4bWxuczpkYz0iaHR0cDovL3B1cmwub3JnL2RjL2VsZW1lbnRzLzEuMS8iIHhtbG5zOmNjPSJodHRwOi8vY3JlYXRpdmVjb21tb25zLm9yZy9ucyMiIHhtbG5zOnJkZj0iaHR0cDovL3d3dy53My5vcmcvMTk5OS8wMi8yMi1yZGYtc3ludGF4LW5zIyIgeG1sbnM6c3ZnPSJodHRwOi8vd3d3LnczLm9yZy8yMDAwL3N2ZyIgeG1sbnM9Imh0dHA6Ly93d3cudzMub3JnLzIwMDAvc3ZnIiB4bWxuczpzb2RpcG9kaT0iaHR0cDovL3NvZGlwb2RpLnNvdXJjZWZvcmdlLm5ldC9EVEQvc29kaXBvZGktMC5kdGQiIHhtbG5zOmlua3NjYXBlPSJodHRwOi8vd3d3Lmlua3NjYXBlLm9yZy9uYW1lc3BhY2VzL2lua3NjYXBlIiB2ZXJzaW9uPSIxLjEiIGlkPSJMYXllcl8xIiB4PSIwcHgiIHk9IjBweCIgaGVpZ2h0PSI1MHB4IiB3aWR0aD0iNTBweCIgdmlld0JveD0iMCAwIDUwIDUwIiB4bWw6c3BhY2U9InByZXNlcnZlIiBzb2RpcG9kaTpkb2NuYW1lPSJEaXNrcy5zdmciIGlua3NjYXBlOnZlcnNpb249IjAuOTIuMyAoMjQwNTU0NiwgMjAxOC0wMy0xMSkiPjxtZXRhZGF0YSBpZD0ibWV0YWRhdGE5OTQiPjxyZGY6UkRGPjxjYzpXb3JrIHJkZjphYm91dD0iIj48ZGM6Zm9ybWF0PmltYWdlL3N2Zyt4bWw8L2RjOmZvcm1hdD48ZGM6dHlwZSByZGY6cmVzb3VyY2U9Imh0dHA6Ly9wdXJsLm9yZy9kYy9kY21pdHlwZS9TdGlsbEltYWdlIi8+PGRjOnRpdGxlLz48L2NjOldvcms+PC9yZGY6UkRGPjwvbWV0YWRhdGE+PGRlZnMgaWQ9ImRlZnM5OTIiLz48c29kaXBvZGk6bmFtZWR2aWV3IHBhZ2Vjb2xvcj0iI2ZmZmZmZiIgYm9yZGVyY29sb3I9IiM2NjY2NjYiIGJvcmRlcm9wYWNpdHk9IjEiIG9iamVjdHRvbGVyYW5jZT0iMTAiIGdyaWR0b2xlcmFuY2U9IjEwIiBndWlkZXRvbGVyYW5jZT0iMTAiIGlua3NjYXBlOnBhZ2VvcGFjaXR5PSIwIiBpbmtzY2FwZTpwYWdlc2hhZG93PSIyIiBpbmtzY2FwZTp3aW5kb3ctd2lkdGg9IjY0MCIgaW5rc2NhcGU6d2luZG93LWhlaWdodD0iNDgwIiBpZD0ibmFtZWR2aWV3OTkwIiBzaG93Z3JpZD0iZmFsc2UiIGlua3NjYXBlOnpvb209IjYuMjYiIGlua3NjYXBlOmN4PSIyNSIgaW5rc2NhcGU6Y3k9IjI1IiBpbmtzY2FwZTp3aW5kb3cteD0iMCIgaW5rc2NhcGU6d2luZG93LXk9IjAiIGlua3NjYXBlOndpbmRvdy1tYXhpbWl6ZWQ9IjEiIGlua3NjYXBlOmN1cnJlbnQtbGF5ZXI9IkxheWVyXzEiLz4mI3hhOzxwYXRoIGZpbGw9IiM3RkJBMDAiIGQ9Ik01MCwzNy4xOThjMCw1LjAwMS0xMS4xOTQsOS4wNTQtMjUsOS4wNTRTMCw0Mi4xOTksMCwzNy4xOTh2LTQuODhoNTBWMzcuMTk4eiIgaWQ9InBhdGg5NjkiLz4mI3hhOzxwYXRoIGZpbGw9IiNCOEQ0MzIiIGQ9Ik01MCwzMi4zMThjMCw1LjAwMS0xMS4xOTQsOS4wNTQtMjUsOS4wNTRTMCwzNy4zMTksMCwzMi4zMThjMC01LDExLjE5My05LjA1NCwyNS05LjA1NFM1MCwyNy4zMTgsNTAsMzIuMzE4ICAiIGlkPSJwYXRoOTcxIi8+JiN4YTs8cGF0aCBmaWxsPSIjN0ZCQTAwIiBkPSJNMzMuMDEzLDMxLjc5N2MwLDEuMzMtMy41ODgsMi40MDctOC4wMTQsMi40MDdzLTguMDE1LTEuMDc3LTguMDE1LTIuNDA3czMuNTg5LTIuNDA3LDguMDE1LTIuNDA3ICBTMzMuMDEzLDMwLjQ2OCwzMy4wMTMsMzEuNzk3IiBpZD0icGF0aDk3MyIvPiYjeGE7PHBhdGggb3BhY2l0eT0iMC4yNSIgZmlsbD0iI0ZGRkZGRiIgZD0iTTQzLjA3MSwyNi4xMTVjLTMuNTAyLTEuMzI3LTguMTA0LTIuMjY5LTEzLjI3OS0yLjYzM2wtMy4yNDQsNi4wMDQgIGMxLjU5NiwwLjA5NCwzLjAyMywwLjMyOSw0LjEyNywwLjY2Mkw0My4wNzEsMjYuMTE1eiIgaWQ9InBhdGg5NzUiLz4mI3hhOzxwYXRoIG9wYWNpdHk9IjAuMjUiIGZpbGw9IiNGRkZGRkYiIGQ9Ik01LjkwMiwzOC4yMDhjMy42MDEsMS41NDMsOC41OTgsMi42NDMsMTQuMjg4LDMuMDQ1bDMuNzkzLTcuMDIgIGMtMS41NzktMC4wNi0zLjAxNC0wLjI1Ny00LjE2OC0wLjU1Mkw1LjkwMiwzOC4yMDh6IiBpZD0icGF0aDk3NyIvPiYjeGE7PHBhdGggZmlsbD0iIzAwNzJDNiIgZD0iTTUwLDE3LjY4MmMwLDUuMDAxLTExLjE5NCw5LjA1NC0yNSw5LjA1NFMwLDIyLjY4MiwwLDE3LjY4MnYtNC44OGg1MFYxNy42ODJ6IiBpZD0icGF0aDk3OSIvPiYjeGE7PHBhdGggZmlsbD0iIzU5QjREOSIgZD0iTTUwLDEyLjgwMmMwLDUuMDAxLTExLjE5NCw5LjA1NC0yNSw5LjA1NFMwLDE3LjgwMiwwLDEyLjgwMnMxMS4xOTMtOS4wNTQsMjUtOS4wNTRTNTAsNy44MDEsNTAsMTIuODAyIiBpZD0icGF0aDk4MSIvPiYjeGE7PHBhdGggZmlsbD0iIzAwNzJDNiIgZD0iTTMzLjAxMywxMi4yODFjMCwxLjMzLTMuNTg4LDIuNDA3LTguMDE0LDIuNDA3cy04LjAxNS0xLjA3Ny04LjAxNS0yLjQwN3MzLjU4OS0yLjQwNyw4LjAxNS0yLjQwNyAgUzMzLjAxMywxMC45NTEsMzMuMDEzLDEyLjI4MSIgaWQ9InBhdGg5ODMiLz4mI3hhOzxwYXRoIG9wYWNpdHk9IjAuMjUiIGZpbGw9IiNGRkZGRkYiIGQ9Ik00My4wNzEsNi41NDljLTMuNTAyLTEuMzI3LTguMTA0LTIuMjY5LTEzLjI3OS0yLjYzM0wyNi41NDgsOS45MiAgYzEuNTk2LDAuMDk0LDMuMDIzLDAuMzI5LDQuMTI3LDAuNjYyTDQzLjA3MSw2LjU0OXoiIGlkPSJwYXRoOTg1Ii8+JiN4YTs8cGF0aCBvcGFjaXR5PSIwLjI1IiBmaWxsPSIjRkZGRkZGIiBkPSJNNS45MDIsMTguNjQyYzMuNjAxLDEuNTQzLDguNTk4LDIuNjQzLDE0LjI4OCwzLjA0NWwzLjc5My03LjAyICBjLTEuNTc5LTAuMDYtMy4wMTQtMC4yNTctNC4xNjgtMC41NTJMNS45MDIsMTguNjQyeiIgaWQ9InBhdGg5ODciLz4mI3hhOzwvc3ZnPg==" parent="1" vertex="1">
                    <mxGeometry x="195" y="225" width="50" height="50" as="geometry"/>
                </mxCell>
                <mxCell id="RHqKMBRxgFxfujLm67wK-19" value="" style="shape=image;verticalLabelPosition=bottom;verticalAlign=top;imageAspect=0;aspect=fixed;image=data:image/svg+xml,PHN2ZyB4bWxuczpkYz0iaHR0cDovL3B1cmwub3JnL2RjL2VsZW1lbnRzLzEuMS8iIHhtbG5zOmNjPSJodHRwOi8vY3JlYXRpdmVjb21tb25zLm9yZy9ucyMiIHhtbG5zOnJkZj0iaHR0cDovL3d3dy53My5vcmcvMTk5OS8wMi8yMi1yZGYtc3ludGF4LW5zIyIgeG1sbnM6c3ZnPSJodHRwOi8vd3d3LnczLm9yZy8yMDAwL3N2ZyIgeG1sbnM9Imh0dHA6Ly93d3cudzMub3JnLzIwMDAvc3ZnIiB4bWxuczpzb2RpcG9kaT0iaHR0cDovL3NvZGlwb2RpLnNvdXJjZWZvcmdlLm5ldC9EVEQvc29kaXBvZGktMC5kdGQiIHhtbG5zOmlua3NjYXBlPSJodHRwOi8vd3d3Lmlua3NjYXBlLm9yZy9uYW1lc3BhY2VzL2lua3NjYXBlIiB2aWV3Qm94PSIwIDAgNTAgNTAiIGNsYXNzPSJmeHMtcG9ydGFsLXN2ZyIgcm9sZT0icHJlc2VudGF0aW9uIiBmb2N1c2FibGU9ImZhbHNlIiBpZD0iRnhTeW1ib2wwLTA2ZiIgdmVyc2lvbj0iMS4xIiBzb2RpcG9kaTpkb2NuYW1lPSJOZXR3b3JrIFNlY3VyaXR5IEdyb3VwcyAoQ2xhc3NpYykuc3ZnIiBpbmtzY2FwZTp2ZXJzaW9uPSIwLjkyLjMgKDI0MDU1NDYsIDIwMTgtMDMtMTEpIj4mI3hhOyAgPG1ldGFkYXRhIGlkPSJtZXRhZGF0YTIxMzEiPiYjeGE7ICAgIDxyZGY6UkRGPiYjeGE7ICAgICAgPGNjOldvcmsgcmRmOmFib3V0PSIiPiYjeGE7ICAgICAgICA8ZGM6Zm9ybWF0PmltYWdlL3N2Zyt4bWw8L2RjOmZvcm1hdD4mI3hhOyAgICAgICAgPGRjOnR5cGUgcmRmOnJlc291cmNlPSJodHRwOi8vcHVybC5vcmcvZGMvZGNtaXR5cGUvU3RpbGxJbWFnZSIvPiYjeGE7ICAgICAgICA8ZGM6dGl0bGUvPiYjeGE7ICAgICAgPC9jYzpXb3JrPiYjeGE7ICAgIDwvcmRmOlJERj4mI3hhOyAgPC9tZXRhZGF0YT4mI3hhOyAgPGRlZnMgaWQ9ImRlZnMyMTI5Ii8+JiN4YTsgIDxzb2RpcG9kaTpuYW1lZHZpZXcgcGFnZWNvbG9yPSIjZmZmZmZmIiBib3JkZXJjb2xvcj0iIzY2NjY2NiIgYm9yZGVyb3BhY2l0eT0iMSIgb2JqZWN0dG9sZXJhbmNlPSIxMCIgZ3JpZHRvbGVyYW5jZT0iMTAiIGd1aWRldG9sZXJhbmNlPSIxMCIgaW5rc2NhcGU6cGFnZW9wYWNpdHk9IjAiIGlua3NjYXBlOnBhZ2VzaGFkb3c9IjIiIGlua3NjYXBlOndpbmRvdy13aWR0aD0iNjQwIiBpbmtzY2FwZTp3aW5kb3ctaGVpZ2h0PSI0ODAiIGlkPSJuYW1lZHZpZXcyMTI3IiBzaG93Z3JpZD0iZmFsc2UiIGlua3NjYXBlOnpvb209IjYuMjYiIGlua3NjYXBlOmN4PSIyNSIgaW5rc2NhcGU6Y3k9IjI1IiBpbmtzY2FwZTp3aW5kb3cteD0iMCIgaW5rc2NhcGU6d2luZG93LXk9IjAiIGlua3NjYXBlOndpbmRvdy1tYXhpbWl6ZWQ9IjEiIGlua3NjYXBlOmN1cnJlbnQtbGF5ZXI9IkZ4U3ltYm9sMC0wNmYiLz4mI3hhOyAgPGcgaWQ9ImcyMTI0Ij4mI3hhOyAgICA8dGl0bGUgaWQ9InRpdGxlMjExMCIvPiYjeGE7ICAgIDxwYXRoIGQ9Ik0zOC4yIDZjLTExLTEuMi0xMi45LTYtMTIuOS02UzIyLjggNi4yIDcgNi4ydjI1LjZjMCAzLjEgMS43IDYgNC4xIDguNSA1LjQgNS43IDE0LjIgOS42IDE0LjIgOS42czE4LjMtOCAxOC4zLTE4LjFWNi4yYy0yIDAtMy44LS4xLTUuNC0uMnoiIGNsYXNzPSJtc3BvcnRhbGZ4LXN2Zy1jMTkiIGZpbGw9IiMwMDcyYzYiIGlkPSJwYXRoMjExMiIvPiYjeGE7ICAgIDxwYXRoIG9wYWNpdHk9Ii40IiBkPSJNMjkuOSAxNi41TDM4LjIgNmMtMTEtMS4yLTEyLjktNi0xMi45LTZTMjIuOCA2LjIgNyA2LjJ2MjUuNmMwIDMuMSAxLjcgNiA0LjEgOC41bDYuMi03LjggMTIuNi0xNnoiIGNsYXNzPSJtc3BvcnRhbGZ4LXN2Zy1jMTYiIGZpbGw9IiMzOTk5YzYiIGlkPSJwYXRoMjExNCIvPiYjeGE7ICAgIDxnIGNsYXNzPSJtc3BvcnRhbGZ4LXN2Zy1jMDEiIGZpbGw9IiNmZmZmZmYiIGlkPSJnMjEyMiI+JiN4YTsgICAgICA8cGF0aCBvcGFjaXR5PSIuMyIgZD0iTTEwLjggMjQuNHY2LjFjMCAyLjUgMS40IDQuOCAzLjMgNi44IDQuMyA0LjYgMTEuMyA3LjYgMTEuMyA3LjZWMjQuNEgxMC44eiIgaWQ9InBhdGgyMTE2Ii8+JiN4YTsgICAgICA8cGF0aCBvcGFjaXR5PSIuNyIgZD0iTTI1LjMgNDQuOXMxNC42LTYuNCAxNC42LTE0LjR2LTYuMUgyNS4zdjIwLjV6bTAtMzkuOHMtMiA1LTE0LjYgNXYxNC4zaDE0LjZWNS4xeiIgaWQ9InBhdGgyMTE4Ii8+JiN4YTsgICAgICA8cGF0aCBvcGFjaXR5PSIuMyIgZD0iTTM1LjUgOS45Yy04LjctMS0xMC4yLTQuNy0xMC4yLTQuN3YxOS4yaDE0LjZWMTAuMWMtMS42IDAtMy4xLS4xLTQuNC0uMnoiIGlkPSJwYXRoMjEyMCIvPiYjeGE7ICAgIDwvZz4mI3hhOyAgPC9nPiYjeGE7PC9zdmc+" parent="1" vertex="1">
                    <mxGeometry x="135" y="290" width="50" height="50" as="geometry"/>
                </mxCell>
                <mxCell id="RHqKMBRxgFxfujLm67wK-21" value="Show VM" style="text;html=1;strokeColor=none;fillColor=none;align=center;verticalAlign=middle;whiteSpace=wrap;rounded=0;" parent="1" vertex="1">
                    <mxGeometry x="140" y="200" width="40" height="25" as="geometry"/>
                </mxCell>
                <mxCell id="RHqKMBRxgFxfujLm67wK-22" value="Show Disk" style="text;html=1;strokeColor=none;fillColor=none;align=center;verticalAlign=middle;whiteSpace=wrap;rounded=0;" parent="1" vertex="1">
                    <mxGeometry x="200" y="205" width="40" height="20" as="geometry"/>
                </mxCell>
                <mxCell id="RHqKMBRxgFxfujLm67wK-23" value="VNet" style="text;html=1;strokeColor=none;fillColor=none;align=center;verticalAlign=middle;whiteSpace=wrap;rounded=0;" parent="1" vertex="1">
                    <mxGeometry x="90" y="330" width="40" height="20" as="geometry"/>
                </mxCell>
                <mxCell id="RHqKMBRxgFxfujLm67wK-24" value="NSG" style="text;html=1;strokeColor=none;fillColor=none;align=center;verticalAlign=middle;whiteSpace=wrap;rounded=0;" parent="1" vertex="1">
                    <mxGeometry x="140" y="340" width="40" height="20" as="geometry"/>
                </mxCell>
                <mxCell id="RHqKMBRxgFxfujLm67wK-26" value="Show RG" style="text;html=1;strokeColor=none;fillColor=none;align=center;verticalAlign=middle;whiteSpace=wrap;rounded=0;" parent="1" vertex="1">
                    <mxGeometry x="20" y="360" width="40" height="20" as="geometry"/>
                </mxCell>
                <mxCell id="RHqKMBRxgFxfujLm67wK-28" value="" style="shape=image;verticalLabelPosition=bottom;verticalAlign=top;imageAspect=0;aspect=fixed;image=data:image/svg+xml,PHN2ZyB4bWxuczpkYz0iaHR0cDovL3B1cmwub3JnL2RjL2VsZW1lbnRzLzEuMS8iIHhtbG5zOmNjPSJodHRwOi8vY3JlYXRpdmVjb21tb25zLm9yZy9ucyMiIHhtbG5zOnJkZj0iaHR0cDovL3d3dy53My5vcmcvMTk5OS8wMi8yMi1yZGYtc3ludGF4LW5zIyIgeG1sbnM6c3ZnPSJodHRwOi8vd3d3LnczLm9yZy8yMDAwL3N2ZyIgeG1sbnM9Imh0dHA6Ly93d3cudzMub3JnLzIwMDAvc3ZnIiB4bWxuczpzb2RpcG9kaT0iaHR0cDovL3NvZGlwb2RpLnNvdXJjZWZvcmdlLm5ldC9EVEQvc29kaXBvZGktMC5kdGQiIHhtbG5zOmlua3NjYXBlPSJodHRwOi8vd3d3Lmlua3NjYXBlLm9yZy9uYW1lc3BhY2VzL2lua3NjYXBlIiB2ZXJzaW9uPSIxLjEiIGlkPSJMYXllcl8xIiB4PSIwcHgiIHk9IjBweCIgd2lkdGg9IjUwcHgiIGhlaWdodD0iNTBweCIgdmlld0JveD0iMCAwIDUwIDUwIiBlbmFibGUtYmFja2dyb3VuZD0ibmV3IDAgMCA1MCA1MCIgeG1sOnNwYWNlPSJwcmVzZXJ2ZSIgc29kaXBvZGk6ZG9jbmFtZT0iVk0gU2NhbGUgU2V0cy5zdmciIGlua3NjYXBlOnZlcnNpb249IjAuOTIuMyAoMjQwNTU0NiwgMjAxOC0wMy0xMSkiPjxtZXRhZGF0YSBpZD0ibWV0YWRhdGExNTk0Ij48cmRmOlJERj48Y2M6V29yayByZGY6YWJvdXQ9IiI+PGRjOmZvcm1hdD5pbWFnZS9zdmcreG1sPC9kYzpmb3JtYXQ+PGRjOnR5cGUgcmRmOnJlc291cmNlPSJodHRwOi8vcHVybC5vcmcvZGMvZGNtaXR5cGUvU3RpbGxJbWFnZSIvPjxkYzp0aXRsZS8+PC9jYzpXb3JrPjwvcmRmOlJERj48L21ldGFkYXRhPjxkZWZzIGlkPSJkZWZzMTU5MiIvPjxzb2RpcG9kaTpuYW1lZHZpZXcgcGFnZWNvbG9yPSIjZmZmZmZmIiBib3JkZXJjb2xvcj0iIzY2NjY2NiIgYm9yZGVyb3BhY2l0eT0iMSIgb2JqZWN0dG9sZXJhbmNlPSIxMCIgZ3JpZHRvbGVyYW5jZT0iMTAiIGd1aWRldG9sZXJhbmNlPSIxMCIgaW5rc2NhcGU6cGFnZW9wYWNpdHk9IjAiIGlua3NjYXBlOnBhZ2VzaGFkb3c9IjIiIGlua3NjYXBlOndpbmRvdy13aWR0aD0iNjQwIiBpbmtzY2FwZTp3aW5kb3ctaGVpZ2h0PSI0ODAiIGlkPSJuYW1lZHZpZXcxNTkwIiBzaG93Z3JpZD0iZmFsc2UiIGlua3NjYXBlOnpvb209IjYuMjYiIGlua3NjYXBlOmN4PSIyNSIgaW5rc2NhcGU6Y3k9IjI1IiBpbmtzY2FwZTp3aW5kb3cteD0iMCIgaW5rc2NhcGU6d2luZG93LXk9IjAiIGlua3NjYXBlOndpbmRvdy1tYXhpbWl6ZWQ9IjEiIGlua3NjYXBlOmN1cnJlbnQtbGF5ZXI9IkxheWVyXzEiLz4mI3hhOzxwYXRoIGZpbGw9IiNBMEExQTIiIGQ9Ik0zNS43MjMsMEgyLjA2NkMwLjkyMywwLDAuMDAxLDEuMDIxLDAuMDAxLDIuMTYydjIzLjQzOWMwLDEuMTM0LDAuOTIyLDIuMTQ0LDIuMDY2LDIuMTQ0aDMzLjY1NiAgYzEuMTQxLDAsMi4yOTctMS4wMSwyLjI5Ny0yLjE0NFYyLjE2MkMzOC4wMiwxLjAxOCwzNi44NjQsMCwzNS43MjMsMCIgaWQ9InBhdGgxNTUxIi8+JiN4YTs8cGF0aCBvcGFjaXR5PSIwLjIiIGZpbGw9IiNGRkZGRkYiIGQ9Ik0zNS43NDYsMC4wMDJjLTAuMDA4LDAtMC4wMTYtMC4wMDItMC4wMjQtMC4wMDJIMi4wNjZDMC45MjIsMC4wMDEsMCwxLjAyMSwwLDIuMTYzdjIzLjQzOCAgYzAsMS4xMzQsMC45MjIsMi4xNDQsMi4wNjYsMi4xNDRoMC44MDFMMzUuNzQ2LDAuMDAyeiIgaWQ9InBhdGgxNTUzIi8+JiN4YTs8cG9seWdvbiBmaWxsPSIjNTlCNEQ5IiBwb2ludHM9IjM1LjEyOSwyNC44MjMgMi44ODIsMjQuODIzIDIuODgyLDIuOTIyIDM1LjEyOSwyLjg3NSAiIGlkPSJwb2x5Z29uMTU1NSIvPiYjeGE7PHBhdGggZmlsbD0iI0I4RDQzMiIgZD0iTTE5LjQwNCwxLjU5MWMwLDAuMjk4LTAuMjQyLDAuNTM5LTAuNTQsMC41MzljLTAuMjk5LDAtMC41MzktMC4yNDEtMC41MzktMC41MzkgIGMwLTAuMjk4LDAuMjQtMC41MzksMC41MzktMC41MzlDMTkuMTYyLDEuMDUyLDE5LjQwNCwxLjI5MywxOS40MDQsMS41OTEiIGlkPSJwYXRoMTU1NyIvPiYjeGE7PHBhdGggZmlsbD0iI0ZGRkZGRiIgZD0iTTE5LjQyNSwxMy4yMDljLTAuMDM1LDAtMC4wNjktMC4wMTEtMC4xMDItMC4wMjlsLTYuNjk1LTMuODU5Yy0wLjA2MS0wLjAzNi0wLjEtMC4xMDQtMC4xLTAuMTc1ICBjMC0wLjA3MiwwLjAzOS0wLjEzOSwwLjEtMC4xNzVsNi42NTQtMy44MzRjMC4wNjItMC4wMzUsMC4xMzgtMC4wMzUsMC4yLDBsNi42OTcsMy44NjFjMC4wNjIsMC4wMzYsMC4xLDAuMTAzLDAuMSwwLjE3NSAgYzAsMC4wNzMtMC4wMzcsMC4xMzktMC4xLDAuMTc1bC02LjY1MiwzLjgzM0MxOS40OTUsMTMuMTk4LDE5LjQ2MiwxMy4yMDksMTkuNDI1LDEzLjIwOSIgaWQ9InBhdGgxNTU5Ii8+JiN4YTs8cGF0aCBmaWxsPSIjQTBBMUEyIiBkPSJNNDEuNjcxLDcuNDU2SDguMDE1Yy0xLjE0NCwwLTIuMDY2LDEuMDIxLTIuMDY2LDIuMTYydjIzLjQzOWMwLDEuMTM0LDAuOTIyLDIuMTQ0LDIuMDY2LDIuMTQ0aDMzLjY1NiAgYzEuMTQxLDAsMi4yOTctMS4wMSwyLjI5Ny0yLjE0NFY5LjYxOEM0My45NjksOC40NzQsNDIuODEzLDcuNDU2LDQxLjY3MSw3LjQ1NiIgaWQ9InBhdGgxNTYxIi8+JiN4YTs8cGF0aCBvcGFjaXR5PSIwLjIiIGZpbGw9IiNGRkZGRkYiIGQ9Ik00MS42OTUsNy40NThjLTAuMDA4LDAtMC4wMTYtMC4wMDItMC4wMjQtMC4wMDJIOC4wMTVjLTEuMTQ0LDAtMi4wNjYsMS4wMjEtMi4wNjYsMi4xNjIgIHYyMy40MzhjMCwxLjEzNCwwLjkyMiwyLjE0NCwyLjA2NiwyLjE0NGgwLjgwMUw0MS42OTUsNy40NTh6IiBpZD0icGF0aDE1NjMiLz4mI3hhOzxwb2x5Z29uIGZpbGw9IiM1OUI0RDkiIHBvaW50cz0iNDEuMDc4LDMyLjI3OSA4LjgzLDMyLjI3OSA4LjgzLDEwLjM3OCA0MS4wNzgsMTAuMzMxICIgaWQ9InBvbHlnb24xNTY1Ii8+JiN4YTs8cGF0aCBmaWxsPSIjQjhENDMyIiBkPSJNMjUuMzUyLDkuMDQ3YzAsMC4yOTgtMC4yNDIsMC41MzktMC41NCwwLjUzOWMtMC4yOTksMC0wLjUzOS0wLjI0MS0wLjUzOS0wLjUzOSAgYzAtMC4yOTgsMC4yNC0wLjUzOSwwLjUzOS0wLjUzOUMyNS4xMSw4LjUwOCwyNS4zNTIsOC43NDgsMjUuMzUyLDkuMDQ3IiBpZD0icGF0aDE1NjciLz4mI3hhOzxwYXRoIGZpbGw9IiNGRkZGRkYiIGQ9Ik0yNS4zNzQsMjAuNjY0Yy0wLjAzNSwwLTAuMDY5LTAuMDExLTAuMTAyLTAuMDI5bC02LjY5NS0zLjg1OWMtMC4wNjEtMC4wMzYtMC4xLTAuMTA0LTAuMS0wLjE3NSAgYzAtMC4wNzIsMC4wMzktMC4xMzksMC4xLTAuMTc1bDYuNjU0LTMuODM0YzAuMDYyLTAuMDM1LDAuMTM4LTAuMDM1LDAuMiwwbDYuNjk3LDMuODYxYzAuMDYyLDAuMDM2LDAuMSwwLjEwMywwLjEsMC4xNzUgIGMwLDAuMDczLTAuMDM3LDAuMTM5LTAuMSwwLjE3NWwtNi42NTIsMy44MzNDMjUuNDQzLDIwLjY1NCwyNS40MTEsMjAuNjY0LDI1LjM3NCwyMC42NjQiIGlkPSJwYXRoMTU2OSIvPiYjeGE7PHBhdGggZmlsbD0iIzdBN0E3QSIgZD0iTTM2LjYzNiw0Mi42OThoLTAuOTA2aC04Ljk2NWgtMC40NjhjMS4yNDIsNC4zOC0wLjQyNyw1LjAwOC03LjczNyw1LjAwOFY1MGg5LjI5N2g2Ljc4OGg4Ljc3M3YtMi4yOTMgIEMzNi4xMDksNDcuNzA2LDM1LjM5Miw0Ny4wODEsMzYuNjM2LDQyLjY5OCIgaWQ9InBhdGgxNTcxIi8+JiN4YTs8cGF0aCBmaWxsPSIjQTBBMUEyIiBkPSJNNDcuNzAzLDE0Ljk1NUgxNC4wNDdjLTEuMTQ0LDAtMi4wNjYsMS4wMjEtMi4wNjYsMi4xNjJ2MjMuNDM5YzAsMS4xMzQsMC45MjIsMi4xNDQsMi4wNjYsMi4xNDRoMzMuNjU2ICBjMS4xNDEsMCwyLjI5Ny0xLjAxLDIuMjk3LTIuMTQ0VjE3LjExN0M1MCwxNS45NzQsNDguODQ0LDE0Ljk1NSw0Ny43MDMsMTQuOTU1IiBpZD0icGF0aDE1NzMiLz4mI3hhOzxwYXRoIG9wYWNpdHk9IjAuMiIgZmlsbD0iI0ZGRkZGRiIgZD0iTTQ3LjcyNywxNC45NThjLTAuMDA4LDAtMC4wMTYtMC4wMDItMC4wMjQtMC4wMDJIMTQuMDQ2Yy0xLjE0NCwwLTIuMDY2LDEuMDIxLTIuMDY2LDIuMTYyICB2MjMuNDM4YzAsMS4xMzQsMC45MjIsMi4xNDQsMi4wNjYsMi4xNDRoMC44MDFMNDcuNzI3LDE0Ljk1OHoiIGlkPSJwYXRoMTU3NSIvPiYjeGE7PHBvbHlnb24gZmlsbD0iIzU5QjREOSIgcG9pbnRzPSI0Ny4xMDksMzkuNzc5IDE0Ljg2MiwzOS43NzkgMTQuODYyLDE3Ljg3OCA0Ny4xMDksMTcuODMgIiBpZD0icG9seWdvbjE1NzciLz4mI3hhOzxyZWN0IHg9IjE4LjU2MSIgeT0iNDcuNzA2IiBmaWxsPSIjQTBBMUEyIiB3aWR0aD0iMjQuODU4IiBoZWlnaHQ9IjIuMjk0IiBpZD0icmVjdDE1NzkiLz4mI3hhOzxwYXRoIGZpbGw9IiNCOEQ0MzIiIGQ9Ik0zMS4zODQsMTYuNTQ2YzAsMC4yOTgtMC4yNDIsMC41MzktMC41NCwwLjUzOWMtMC4yOTksMC0wLjUzOS0wLjI0MS0wLjUzOS0wLjUzOSAgYzAtMC4yOTgsMC4yNC0wLjUzOSwwLjUzOS0wLjUzOUMzMS4xNDIsMTYuMDA3LDMxLjM4NCwxNi4yNDgsMzEuMzg0LDE2LjU0NiIgaWQ9InBhdGgxNTgxIi8+JiN4YTs8cGF0aCBmaWxsPSIjRkZGRkZGIiBkPSJNMzEuNDA1LDI4LjE2NGMtMC4wMzUsMC0wLjA2OS0wLjAxMS0wLjEwMi0wLjAyOWwtNi42OTUtMy44NTljLTAuMDYxLTAuMDM2LTAuMS0wLjEwNC0wLjEtMC4xNzUgIGMwLTAuMDcyLDAuMDM5LTAuMTM5LDAuMS0wLjE3NWw2LjY1NC0zLjgzNGMwLjA2Mi0wLjAzNSwwLjEzOC0wLjAzNSwwLjIsMGw2LjY5NywzLjg2MWMwLjA2MiwwLjAzNiwwLjEsMC4xMDMsMC4xLDAuMTc1ICBjMCwwLjA3My0wLjAzNywwLjEzOS0wLjEsMC4xNzVsLTYuNjUyLDMuODMzQzMxLjQ3NSwyOC4xNTMsMzEuNDQyLDI4LjE2NCwzMS40MDUsMjguMTY0IiBpZD0icGF0aDE1ODMiLz4mI3hhOzxwYXRoIG9wYWNpdHk9IjAuNyIgZmlsbD0iI0ZGRkZGRiIgZD0iTTMwLjQ0MywzNy41NDRjLTAuMDM4LDAtMC4wNzItMC4wMDktMC4xMDItMC4wMjdsLTYuNjc1LTMuODQ3ICBjLTAuMDY1LTAuMDM2LTAuMTA0LTAuMTAxLTAuMTA0LTAuMTc1di03LjcyYzAtMC4wNzMsMC4wMzktMC4xMzksMC4xMDQtMC4xNzVjMC4wNjItMC4wMzcsMC4xMzctMC4wMzcsMC4yMDQsMGw2LjY3NCwzLjg0NiAgYzAuMDU5LDAuMDM4LDAuMDk5LDAuMTA0LDAuMDk5LDAuMTc3djcuNzJjMCwwLjA3NC0wLjAzOSwwLjEzOS0wLjA5OSwwLjE3NUMzMC41MTEsMzcuNTM1LDMwLjQ3NiwzNy41NDQsMzAuNDQzLDM3LjU0NCIgaWQ9InBhdGgxNTg1Ii8+JiN4YTs8cGF0aCBvcGFjaXR5PSIwLjQiIGZpbGw9IiNGRkZGRkYiIGQ9Ik0zMi4zMzMsMzcuNTQ0Yy0wLjAzNywwLTAuMDcxLTAuMDA5LTAuMTA1LTAuMDI3Yy0wLjA1OS0wLjAzNi0wLjA5OC0wLjEwMi0wLjA5OC0wLjE3NVYyOS42NyAgYzAtMC4wNzEsMC4wMzktMC4xMzgsMC4wOTgtMC4xNzVsNi42NzQtMy44NDVjMC4wNjQtMC4wMzYsMC4xMzgtMC4wMzYsMC4yMDEsMGMwLjA2NCwwLjAzNiwwLjEwMiwwLjEwMiwwLjEwMiwwLjE3NXY3LjY3MSAgYzAsMC4wNzQtMC4wMzksMC4xNC0wLjEwMiwwLjE3NWwtNi42NzIsMy44NDdDMzIuNDAzLDM3LjUzNSwzMi4zNjcsMzcuNTQ0LDMyLjMzMywzNy41NDQiIGlkPSJwYXRoMTU4NyIvPiYjeGE7PC9zdmc+" parent="1" vertex="1">
                    <mxGeometry x="140" y="225" width="50" height="50" as="geometry"/>
                </mxCell>
                <mxCell id="RHqKMBRxgFxfujLm67wK-29" value="" style="shape=image;verticalLabelPosition=bottom;verticalAlign=top;imageAspect=0;aspect=fixed;image=data:image/svg+xml,PHN2ZyB4bWxuczpkYz0iaHR0cDovL3B1cmwub3JnL2RjL2VsZW1lbnRzLzEuMS8iIHhtbG5zOmNjPSJodHRwOi8vY3JlYXRpdmVjb21tb25zLm9yZy9ucyMiIHhtbG5zOnJkZj0iaHR0cDovL3d3dy53My5vcmcvMTk5OS8wMi8yMi1yZGYtc3ludGF4LW5zIyIgeG1sbnM6c3ZnPSJodHRwOi8vd3d3LnczLm9yZy8yMDAwL3N2ZyIgeG1sbnM9Imh0dHA6Ly93d3cudzMub3JnLzIwMDAvc3ZnIiB4bWxuczpzb2RpcG9kaT0iaHR0cDovL3NvZGlwb2RpLnNvdXJjZWZvcmdlLm5ldC9EVEQvc29kaXBvZGktMC5kdGQiIHhtbG5zOmlua3NjYXBlPSJodHRwOi8vd3d3Lmlua3NjYXBlLm9yZy9uYW1lc3BhY2VzL2lua3NjYXBlIiB2ZXJzaW9uPSIxLjEiIGlkPSJMYXllcl8xIiB4PSIwcHgiIHk9IjBweCIgd2lkdGg9IjUwcHgiIGhlaWdodD0iNTBweCIgdmlld0JveD0iMCAwIDUwIDUwIiBlbmFibGUtYmFja2dyb3VuZD0ibmV3IDAgMCA1MCA1MCIgeG1sOnNwYWNlPSJwcmVzZXJ2ZSIgc29kaXBvZGk6ZG9jbmFtZT0iU3RvcmFnZSBBY2NvdW50cy5zdmciIGlua3NjYXBlOnZlcnNpb249IjAuOTIuMyAoMjQwNTU0NiwgMjAxOC0wMy0xMSkiPjxtZXRhZGF0YSBpZD0ibWV0YWRhdGE1NjQyIj48cmRmOlJERj48Y2M6V29yayByZGY6YWJvdXQ9IiI+PGRjOmZvcm1hdD5pbWFnZS9zdmcreG1sPC9kYzpmb3JtYXQ+PGRjOnR5cGUgcmRmOnJlc291cmNlPSJodHRwOi8vcHVybC5vcmcvZGMvZGNtaXR5cGUvU3RpbGxJbWFnZSIvPjxkYzp0aXRsZS8+PC9jYzpXb3JrPjwvcmRmOlJERj48L21ldGFkYXRhPjxkZWZzIGlkPSJkZWZzNTY0MCIvPjxzb2RpcG9kaTpuYW1lZHZpZXcgcGFnZWNvbG9yPSIjZmZmZmZmIiBib3JkZXJjb2xvcj0iIzY2NjY2NiIgYm9yZGVyb3BhY2l0eT0iMSIgb2JqZWN0dG9sZXJhbmNlPSIxMCIgZ3JpZHRvbGVyYW5jZT0iMTAiIGd1aWRldG9sZXJhbmNlPSIxMCIgaW5rc2NhcGU6cGFnZW9wYWNpdHk9IjAiIGlua3NjYXBlOnBhZ2VzaGFkb3c9IjIiIGlua3NjYXBlOndpbmRvdy13aWR0aD0iNjQwIiBpbmtzY2FwZTp3aW5kb3ctaGVpZ2h0PSI0ODAiIGlkPSJuYW1lZHZpZXc1NjM4IiBzaG93Z3JpZD0iZmFsc2UiIGlua3NjYXBlOnpvb209IjYuMjYiIGlua3NjYXBlOmN4PSIyNSIgaW5rc2NhcGU6Y3k9IjI1IiBpbmtzY2FwZTp3aW5kb3cteD0iMCIgaW5rc2NhcGU6d2luZG93LXk9IjAiIGlua3NjYXBlOndpbmRvdy1tYXhpbWl6ZWQ9IjEiIGlua3NjYXBlOmN1cnJlbnQtbGF5ZXI9IkxheWVyXzEiLz4mI3hhOzxwYXRoIGZpbGw9IiMzRTNFM0UiIGQ9Ik00NCw1MEg2Yy0zLjMxNCwwLTYtMi42ODYtNi02VjVoNTB2MzlDNTAsNDcuMzE0LDQ3LjMxNCw1MCw0NCw1MHoiIGlkPSJwYXRoNTYyMyIvPiYjeGE7PHJlY3QgeD0iNCIgeT0iMTYiIG9wYWNpdHk9IjAuOSIgZmlsbD0iI0ZDRDExNiIgd2lkdGg9IjQyIiBoZWlnaHQ9IjExIiBpZD0icmVjdDU2MjUiLz4mI3hhOzxyZWN0IHg9IjQiIHk9IjMxIiBmaWxsPSIjN0ZCQTAwIiB3aWR0aD0iNDIiIGhlaWdodD0iMTUiIGlkPSJyZWN0NTYyNyIvPiYjeGE7PHJlY3QgeD0iNCIgeT0iNSIgb3BhY2l0eT0iMC45IiBmaWxsPSIjRkZGRkZGIiB3aWR0aD0iNDIiIGhlaWdodD0iNyIgaWQ9InJlY3Q1NjI5Ii8+JiN4YTs8cmVjdCB4PSI0IiB5PSIzMSIgb3BhY2l0eT0iMC4zIiBmaWxsPSIjRkZGRkZGIiBlbmFibGUtYmFja2dyb3VuZD0ibmV3ICAgICIgd2lkdGg9IjQyIiBoZWlnaHQ9IjIiIGlkPSJyZWN0NTYzMSIvPiYjeGE7PHJlY3QgeD0iNCIgeT0iMTYiIG9wYWNpdHk9IjAuMyIgZmlsbD0iI0ZGRkZGRiIgZW5hYmxlLWJhY2tncm91bmQ9Im5ldyAgICAiIHdpZHRoPSI0MiIgaGVpZ2h0PSIyIiBpZD0icmVjdDU2MzMiLz4mI3hhOzxwYXRoIG9wYWNpdHk9IjAuMTUiIGZpbGw9IiNGRkZGRkYiIGVuYWJsZS1iYWNrZ3JvdW5kPSJuZXcgICAgIiBkPSJNMCw1djQyLjY5M0MwLDQ4LjkwNywwLjk4NSw0OS45LDIuMTg4LDQ5LjlIOEw0MCw1SDB6IiBpZD0icGF0aDU2MzUiLz4mI3hhOzwvc3ZnPg==" parent="1" vertex="1">
                    <mxGeometry x="92.5" y="232.5" width="35" height="35" as="geometry"/>
                </mxCell>
                <mxCell id="RHqKMBRxgFxfujLm67wK-30" value="Storage Account" style="text;html=1;strokeColor=none;fillColor=none;align=center;verticalAlign=middle;whiteSpace=wrap;rounded=0;" parent="1" vertex="1">
                    <mxGeometry x="90" y="202.5" width="40" height="20" as="geometry"/>
                </mxCell>
                <mxCell id="w8AWbL9sRovNboO9tG6S-1" value="" style="shape=image;verticalLabelPosition=bottom;verticalAlign=top;imageAspect=0;aspect=fixed;image=data:image/svg+xml,PHN2ZyB4bWxuczpkYz0iaHR0cDovL3B1cmwub3JnL2RjL2VsZW1lbnRzLzEuMS8iIHhtbG5zOmNjPSJodHRwOi8vY3JlYXRpdmVjb21tb25zLm9yZy9ucyMiIHhtbG5zOnJkZj0iaHR0cDovL3d3dy53My5vcmcvMTk5OS8wMi8yMi1yZGYtc3ludGF4LW5zIyIgeG1sbnM6c3ZnPSJodHRwOi8vd3d3LnczLm9yZy8yMDAwL3N2ZyIgeG1sbnM9Imh0dHA6Ly93d3cudzMub3JnLzIwMDAvc3ZnIiB4bWxuczpzb2RpcG9kaT0iaHR0cDovL3NvZGlwb2RpLnNvdXJjZWZvcmdlLm5ldC9EVEQvc29kaXBvZGktMC5kdGQiIHhtbG5zOmlua3NjYXBlPSJodHRwOi8vd3d3Lmlua3NjYXBlLm9yZy9uYW1lc3BhY2VzL2lua3NjYXBlIiB2aWV3Qm94PSIwIDAgNTAgNTAiIGNsYXNzPSJmeHMtcG9ydGFsLXN2ZyIgcm9sZT0icHJlc2VudGF0aW9uIiBmb2N1c2FibGU9ImZhbHNlIiBpZD0iRnhTeW1ib2wwLTA2YSIgdmVyc2lvbj0iMS4xIiBzb2RpcG9kaTpkb2NuYW1lPSJWaXJ0dWFsIE5ldHdvcmsgR2F0ZXdheXMuc3ZnIiBpbmtzY2FwZTp2ZXJzaW9uPSIwLjkyLjMgKDI0MDU1NDYsIDIwMTgtMDMtMTEpIj4mI3hhOyAgPG1ldGFkYXRhIGlkPSJtZXRhZGF0YTMwOTUiPiYjeGE7ICAgIDxyZGY6UkRGPiYjeGE7ICAgICAgPGNjOldvcmsgcmRmOmFib3V0PSIiPiYjeGE7ICAgICAgICA8ZGM6Zm9ybWF0PmltYWdlL3N2Zyt4bWw8L2RjOmZvcm1hdD4mI3hhOyAgICAgICAgPGRjOnR5cGUgcmRmOnJlc291cmNlPSJodHRwOi8vcHVybC5vcmcvZGMvZGNtaXR5cGUvU3RpbGxJbWFnZSIvPiYjeGE7ICAgICAgICA8ZGM6dGl0bGUvPiYjeGE7ICAgICAgPC9jYzpXb3JrPiYjeGE7ICAgIDwvcmRmOlJERj4mI3hhOyAgPC9tZXRhZGF0YT4mI3hhOyAgPGRlZnMgaWQ9ImRlZnMzMDkzIi8+JiN4YTsgIDxzb2RpcG9kaTpuYW1lZHZpZXcgcGFnZWNvbG9yPSIjZmZmZmZmIiBib3JkZXJjb2xvcj0iIzY2NjY2NiIgYm9yZGVyb3BhY2l0eT0iMSIgb2JqZWN0dG9sZXJhbmNlPSIxMCIgZ3JpZHRvbGVyYW5jZT0iMTAiIGd1aWRldG9sZXJhbmNlPSIxMCIgaW5rc2NhcGU6cGFnZW9wYWNpdHk9IjAiIGlua3NjYXBlOnBhZ2VzaGFkb3c9IjIiIGlua3NjYXBlOndpbmRvdy13aWR0aD0iNjQwIiBpbmtzY2FwZTp3aW5kb3ctaGVpZ2h0PSI0ODAiIGlkPSJuYW1lZHZpZXczMDkxIiBzaG93Z3JpZD0iZmFsc2UiIGlua3NjYXBlOnpvb209IjYuMjYiIGlua3NjYXBlOmN4PSIyNSIgaW5rc2NhcGU6Y3k9IjI1IiBpbmtzY2FwZTp3aW5kb3cteD0iMCIgaW5rc2NhcGU6d2luZG93LXk9IjAiIGlua3NjYXBlOndpbmRvdy1tYXhpbWl6ZWQ9IjEiIGlua3NjYXBlOmN1cnJlbnQtbGF5ZXI9IkZ4U3ltYm9sMC0wNmEiLz4mI3hhOyAgPGcgaWQ9ImczMDg4Ij4mI3hhOyAgICA8dGl0bGUgaWQ9InRpdGxlMzA3OCIvPiYjeGE7ICAgIDxwYXRoIGQ9Ik00Mi4xIDE4LjV2LTIuMmMwLTQuNC0xLjYtOC41LTQuNC0xMS40QzM1LjEgMS45IDI5LjMgMCAyNSAwUzE0LjkgMS45IDEyLjMgNC45Yy0yLjcgMi45LTQuNCA3LTQuNCAxMS40djIuMmw3LjkuOXYtMmMwLTIuNi45LTUuOSAyLjQtNy42czQuNy0yLjUgNi44LTIuNmMyLjEgMCA1LjMuOSA2LjggMi42czIuNCAzLjkgMi40IDYuNHYzLjJsNy45LS45eiIgY2xhc3M9Im1zcG9ydGFsZngtc3ZnLWMwMyIgZmlsbD0iI2EwYTFhMiIgaWQ9InBhdGgzMDgwIi8+JiN4YTsgICAgPHBhdGggZD0iTTcuOSAxOC41Yy0zLjkgMC01LjMgMi4zLTUuMyA1LjN2MjAuOWMwIDIuNiAxLjYgNS4zIDQuNiA1LjNoMzUuNmMzLjQgMCA0LjYtMi43IDQuNi01LjNWMjMuOGMwLTIuNy0xLjEtNS4zLTUuMy01LjNINy45eiIgY2xhc3M9Im1zcG9ydGFsZngtc3ZnLWMxNSIgZmlsbD0iIzU5YjRkOSIgaWQ9InBhdGgzMDgyIi8+JiN4YTsgICAgPHBhdGggb3BhY2l0eT0iLjE1IiBkPSJNMzQuMSAxOC41SDcuOWMtMy45IDAtNS4zIDIuMy01LjMgNS4zdjIwLjljMCAyLjYgMS42IDUuMyA0LjYgNS4zaDYuN2wyMC4yLTMxLjV6IiBjbGFzcz0ibXNwb3J0YWxmeC1zdmctYzAxIiBmaWxsPSIjZmZmZmZmIiBpZD0icGF0aDMwODQiLz4mI3hhOyAgICA8cGF0aCBkPSJNMTkgMjcuMWw1LjgtNS44IDUuOCA1LjhoLTQuMXY0LjJIMjN2LTQuMmgtNHpNOC4zIDM1Ljl2LTMuNGg2di00bDUuNiA1LjYtNS42IDUuNnYtMy45aC02di4xem0xNi41IDExLjNsLTUuOS01LjlIMjN2LTQuMWgzLjV2NC4xaDQuMmwtNS45IDUuOXptMTYuNS0xMS4zaC02djRsLTUuNy01LjcgNS43LTUuN3Y0aDZ2My40eiIgY2xhc3M9Im1zcG9ydGFsZngtc3ZnLWMwMSIgZmlsbD0iI2ZmZmZmZiIgaWQ9InBhdGgzMDg2Ii8+JiN4YTsgIDwvZz4mI3hhOzwvc3ZnPg==" parent="1" vertex="1">
                    <mxGeometry x="400" y="620" width="50" height="50" as="geometry"/>
                </mxCell>
                <mxCell id="w8AWbL9sRovNboO9tG6S-2" value="" style="shape=image;verticalLabelPosition=bottom;verticalAlign=top;imageAspect=0;aspect=fixed;image=data:image/svg+xml,PHN2ZyB4bWxuczpkYz0iaHR0cDovL3B1cmwub3JnL2RjL2VsZW1lbnRzLzEuMS8iIHhtbG5zOmNjPSJodHRwOi8vY3JlYXRpdmVjb21tb25zLm9yZy9ucyMiIHhtbG5zOnJkZj0iaHR0cDovL3d3dy53My5vcmcvMTk5OS8wMi8yMi1yZGYtc3ludGF4LW5zIyIgeG1sbnM6c3ZnPSJodHRwOi8vd3d3LnczLm9yZy8yMDAwL3N2ZyIgeG1sbnM9Imh0dHA6Ly93d3cudzMub3JnLzIwMDAvc3ZnIiB4bWxuczpzb2RpcG9kaT0iaHR0cDovL3NvZGlwb2RpLnNvdXJjZWZvcmdlLm5ldC9EVEQvc29kaXBvZGktMC5kdGQiIHhtbG5zOmlua3NjYXBlPSJodHRwOi8vd3d3Lmlua3NjYXBlLm9yZy9uYW1lc3BhY2VzL2lua3NjYXBlIiB2ZXJzaW9uPSIxLjEiIGlkPSJMYXllcl8xIiB4PSIwcHgiIHk9IjBweCIgd2lkdGg9IjUwcHgiIGhlaWdodD0iNTBweCIgdmlld0JveD0iMCAwIDUwIDUwIiBlbmFibGUtYmFja2dyb3VuZD0ibmV3IDAgMCA1MCA1MCIgeG1sOnNwYWNlPSJwcmVzZXJ2ZSIgc29kaXBvZGk6ZG9jbmFtZT0iT24tcHJlbWlzZXMgRGF0YSBHYXRld2F5cy5zdmciIGlua3NjYXBlOnZlcnNpb249IjAuOTIuMyAoMjQwNTU0NiwgMjAxOC0wMy0xMSkiPjxtZXRhZGF0YSBpZD0ibWV0YWRhdGEyMjk0Ij48cmRmOlJERj48Y2M6V29yayByZGY6YWJvdXQ9IiI+PGRjOmZvcm1hdD5pbWFnZS9zdmcreG1sPC9kYzpmb3JtYXQ+PGRjOnR5cGUgcmRmOnJlc291cmNlPSJodHRwOi8vcHVybC5vcmcvZGMvZGNtaXR5cGUvU3RpbGxJbWFnZSIvPjxkYzp0aXRsZS8+PC9jYzpXb3JrPjwvcmRmOlJERj48L21ldGFkYXRhPjxkZWZzIGlkPSJkZWZzMjI5MiIvPjxzb2RpcG9kaTpuYW1lZHZpZXcgcGFnZWNvbG9yPSIjZmZmZmZmIiBib3JkZXJjb2xvcj0iIzY2NjY2NiIgYm9yZGVyb3BhY2l0eT0iMSIgb2JqZWN0dG9sZXJhbmNlPSIxMCIgZ3JpZHRvbGVyYW5jZT0iMTAiIGd1aWRldG9sZXJhbmNlPSIxMCIgaW5rc2NhcGU6cGFnZW9wYWNpdHk9IjAiIGlua3NjYXBlOnBhZ2VzaGFkb3c9IjIiIGlua3NjYXBlOndpbmRvdy13aWR0aD0iNjQwIiBpbmtzY2FwZTp3aW5kb3ctaGVpZ2h0PSI0ODAiIGlkPSJuYW1lZHZpZXcyMjkwIiBzaG93Z3JpZD0iZmFsc2UiIGlua3NjYXBlOnpvb209IjYuMjYiIGlua3NjYXBlOmN4PSIyNSIgaW5rc2NhcGU6Y3k9IjI1IiBpbmtzY2FwZTp3aW5kb3cteD0iMCIgaW5rc2NhcGU6d2luZG93LXk9IjAiIGlua3NjYXBlOndpbmRvdy1tYXhpbWl6ZWQ9IjEiIGlua3NjYXBlOmN1cnJlbnQtbGF5ZXI9IkxheWVyXzEiLz4mI3hhOzxwYXRoIGZpbGw9IiM1OUI0RDkiIGQ9Ik00NCwxNC4yYzAtMC40LDAuMS0wLjksMC4xLTEuM2MwLTcuMS01LjgtMTIuOC0xMy0xMi44QzI2LjksMCwyMywyLDIwLjYsNS4zYy0xLjUtMS0zLjMtMS41LTUuMi0xLjUgIGMtNS40LDAtOS44LDQuNC05LjgsOS43djAuOEMyLDE2LjIsMCwxOS4zLDAsMjMuMWMwLDYsNC45LDEwLjcsMTEuMiwxMC43aDI3LjZjNi4zLDAsMTEuMi00LjcsMTEuMi0xMC43QzUwLDE5LjEsNDcuOCwxNS45LDQ0LDE0LjIgIHoiIGlkPSJwYXRoMjI4MSIvPiYjeGE7PHBhdGggb3BhY2l0eT0iMC4yIiBmaWxsPSIjRkZGRkZGIiBlbmFibGUtYmFja2dyb3VuZD0ibmV3ICAgICIgZD0iTTcsMjhjMC00LjEsMi4xLTcuMyw2LTkuM3YtMC44YzAtNS43LDQuNy0xMC4zLDEwLjQtMTAuMyAgYzIsMCwzLjksMC41LDUuNSwxLjVjMi41LTMuNSw2LjctNS43LDExLjItNS43bDAsMGMtMi40LTIuMS01LjUtMy40LTktMy40QzI2LjksMCwyMywyLDIwLjYsNS4zYy0xLjUtMS0zLjMtMS41LTUuMi0xLjUgIGMtNS40LDAtOS44LDQuNC05LjgsOS43djAuOEMyLDE2LjIsMCwxOS4zLDAsMjMuMWMwLDUuMSwzLjUsOS4zLDguNCwxMC40QzcuNSwzMS45LDcsMzAsNywyOHoiIGlkPSJwYXRoMjI4MyIvPiYjeGE7PHBvbHlnb24gZmlsbD0iIzgwNDk5OCIgcG9pbnRzPSIyNi45MzEsNDQuMjQ0IDMzLjgzMywzNy42OTYgMzMuODMzLDQxLjI0OSAyNS41MDQsNTAgMTcuMTY3LDQxLjI4IDE3LjE2NywzNy43MzggMjQuMDMyLDQ0LjI0NCAgIDI0LjAzMiwzMi42NDYgMjYuOTMxLDMyLjY0NiAiIGlkPSJwb2x5Z29uMjI4NSIvPiYjeGE7PHBvbHlnb24gZmlsbD0iI0ZGRkZGRiIgcG9pbnRzPSIyNC4wNjksMjIuNDAyIDE3LjE2NywyOC45NSAxNy4xNjcsMjUuMzk3IDI1LjQ5NiwxNi42NDYgMzMuODMzLDI1LjM2NiAzMy44MzMsMjguOTA4ICAgMjYuOTY4LDIyLjQwMiAyNi45NjgsMzQgMjQuMDY5LDM0ICIgaWQ9InBvbHlnb24yMjg3Ii8+JiN4YTs8L3N2Zz4=" parent="1" vertex="1">
                    <mxGeometry x="400" y="760" width="50" height="50" as="geometry"/>
                </mxCell>
                <mxCell id="w8AWbL9sRovNboO9tG6S-3" value="" style="shape=image;verticalLabelPosition=bottom;verticalAlign=top;imageAspect=0;aspect=fixed;image=data:image/svg+xml,PHN2ZyB4bWxuczpkYz0iaHR0cDovL3B1cmwub3JnL2RjL2VsZW1lbnRzLzEuMS8iIHhtbG5zOmNjPSJodHRwOi8vY3JlYXRpdmVjb21tb25zLm9yZy9ucyMiIHhtbG5zOnJkZj0iaHR0cDovL3d3dy53My5vcmcvMTk5OS8wMi8yMi1yZGYtc3ludGF4LW5zIyIgeG1sbnM6c3ZnPSJodHRwOi8vd3d3LnczLm9yZy8yMDAwL3N2ZyIgeG1sbnM9Imh0dHA6Ly93d3cudzMub3JnLzIwMDAvc3ZnIiB4bWxuczpzb2RpcG9kaT0iaHR0cDovL3NvZGlwb2RpLnNvdXJjZWZvcmdlLm5ldC9EVEQvc29kaXBvZGktMC5kdGQiIHhtbG5zOmlua3NjYXBlPSJodHRwOi8vd3d3Lmlua3NjYXBlLm9yZy9uYW1lc3BhY2VzL2lua3NjYXBlIiB2ZXJzaW9uPSIxLjEiIGlkPSJMYXllcl8xIiB4PSIwcHgiIHk9IjBweCIgd2lkdGg9IjE2cHgiIGhlaWdodD0iMTZweCIgdmlld0JveD0iMCAwIDE2IDE2IiBlbmFibGUtYmFja2dyb3VuZD0ibmV3IDAgMCAxNiAxNiIgeG1sOnNwYWNlPSJwcmVzZXJ2ZSIgc29kaXBvZGk6ZG9jbmFtZT0iTm9uLWF6dXJlLW1hY2hpbmUuc3ZnIiBpbmtzY2FwZTp2ZXJzaW9uPSIwLjkyLjMgKDI0MDU1NDYsIDIwMTgtMDMtMTEpIj48bWV0YWRhdGEgaWQ9Im1ldGFkYXRhMTQxMiI+PHJkZjpSREY+PGNjOldvcmsgcmRmOmFib3V0PSIiPjxkYzpmb3JtYXQ+aW1hZ2Uvc3ZnK3htbDwvZGM6Zm9ybWF0PjxkYzp0eXBlIHJkZjpyZXNvdXJjZT0iaHR0cDovL3B1cmwub3JnL2RjL2RjbWl0eXBlL1N0aWxsSW1hZ2UiLz48ZGM6dGl0bGUvPjwvY2M6V29yaz48L3JkZjpSREY+PC9tZXRhZGF0YT48ZGVmcyBpZD0iZGVmczE0MTAiLz48c29kaXBvZGk6bmFtZWR2aWV3IHBhZ2Vjb2xvcj0iI2ZmZmZmZiIgYm9yZGVyY29sb3I9IiM2NjY2NjYiIGJvcmRlcm9wYWNpdHk9IjEiIG9iamVjdHRvbGVyYW5jZT0iMTAiIGdyaWR0b2xlcmFuY2U9IjEwIiBndWlkZXRvbGVyYW5jZT0iMTAiIGlua3NjYXBlOnBhZ2VvcGFjaXR5PSIwIiBpbmtzY2FwZTpwYWdlc2hhZG93PSIyIiBpbmtzY2FwZTp3aW5kb3ctd2lkdGg9IjY0MCIgaW5rc2NhcGU6d2luZG93LWhlaWdodD0iNDgwIiBpZD0ibmFtZWR2aWV3MTQwOCIgc2hvd2dyaWQ9ImZhbHNlIiBpbmtzY2FwZTp6b29tPSIxOS41NjI1IiBpbmtzY2FwZTpjeD0iOCIgaW5rc2NhcGU6Y3k9IjgiIGlua3NjYXBlOndpbmRvdy14PSIwIiBpbmtzY2FwZTp3aW5kb3cteT0iMCIgaW5rc2NhcGU6d2luZG93LW1heGltaXplZD0iMSIgaW5rc2NhcGU6Y3VycmVudC1sYXllcj0iTGF5ZXJfMSIvPiYjeGE7PHBhdGggZmlsbD0iIzgwNDk5OCIgZD0iTTExLDBINUMzLjksMCwzLDAuOSwzLDJ2MTRoMTBWMkMxMywwLjksMTIuMSwwLDExLDB6IiBpZD0icGF0aDEzOTkiLz4mI3hhOzxwYXRoIGZpbGw9IiNFNUU1RTUiIGQ9Ik0xMC41LDRoLTVDNS4yMiw0LDUsMy43OCw1LDMuNWwwLDBDNSwzLjIyLDUuMjIsMyw1LjUsM2g1QzEwLjc4LDMsMTEsMy4yMiwxMSwzLjVsMCwwICBDMTEsMy43OCwxMC43OCw0LDEwLjUsNHoiIGlkPSJwYXRoMTQwMSIvPiYjeGE7PHBhdGggZmlsbD0iI0U1RTVFNSIgZD0iTTEwLjUsOGgtNUM1LjIyLDgsNSw3Ljc4LDUsNy41bDAsMEM1LDcuMjIsNS4yMiw3LDUuNSw3aDVDMTAuNzgsNywxMSw3LjIyLDExLDcuNWwwLDAgIEMxMSw3Ljc4LDEwLjc4LDgsMTAuNSw4eiIgaWQ9InBhdGgxNDAzIi8+JiN4YTs8Y2lyY2xlIGZpbGw9IiNCOEQ0MzIiIGN4PSI4IiBjeT0iMTMiIHI9IjEiIGlkPSJjaXJjbGUxNDA1Ii8+JiN4YTs8L3N2Zz4=" parent="1" vertex="1">
                    <mxGeometry x="399" y="850" width="53" height="53" as="geometry"/>
                </mxCell>
                <mxCell id="w8AWbL9sRovNboO9tG6S-4" value="" style="endArrow=classic;html=1;entryX=0.5;entryY=1;entryDx=0;entryDy=0;exitX=0.5;exitY=0;exitDx=0;exitDy=0;" parent="1" source="w8AWbL9sRovNboO9tG6S-2" target="w8AWbL9sRovNboO9tG6S-1" edge="1">
                    <mxGeometry width="50" height="50" relative="1" as="geometry">
                        <mxPoint x="405" y="740" as="sourcePoint"/>
                        <mxPoint x="455" y="690" as="targetPoint"/>
                    </mxGeometry>
                </mxCell>
                <mxCell id="w8AWbL9sRovNboO9tG6S-5" value="" style="endArrow=classic;html=1;entryX=0.5;entryY=0;entryDx=0;entryDy=0;exitX=0.5;exitY=1;exitDx=0;exitDy=0;" parent="1" source="w8AWbL9sRovNboO9tG6S-2" target="w8AWbL9sRovNboO9tG6S-3" edge="1">
                    <mxGeometry width="50" height="50" relative="1" as="geometry">
                        <mxPoint x="435" y="770" as="sourcePoint"/>
                        <mxPoint x="435" y="680" as="targetPoint"/>
                    </mxGeometry>
                </mxCell>
                <mxCell id="w8AWbL9sRovNboO9tG6S-14" value="Core subnet" style="text;html=1;strokeColor=none;fillColor=none;align=center;verticalAlign=middle;whiteSpace=wrap;rounded=0;" parent="1" vertex="1">
                    <mxGeometry x="210" y="430" width="40" height="20" as="geometry"/>
                </mxCell>
                <mxCell id="w8AWbL9sRovNboO9tG6S-16" value="Bastion subnet" style="text;html=1;strokeColor=none;fillColor=none;align=center;verticalAlign=middle;whiteSpace=wrap;rounded=0;" parent="1" vertex="1">
                    <mxGeometry x="512.5" y="555" width="40" height="20" as="geometry"/>
                </mxCell>
                <mxCell id="w8AWbL9sRovNboO9tG6S-20" value="" style="shape=image;verticalLabelPosition=bottom;verticalAlign=top;imageAspect=0;aspect=fixed;image=data:image/svg+xml,PHN2ZyB4bWxuczpkYz0iaHR0cDovL3B1cmwub3JnL2RjL2VsZW1lbnRzLzEuMS8iIHhtbG5zOmNjPSJodHRwOi8vY3JlYXRpdmVjb21tb25zLm9yZy9ucyMiIHhtbG5zOnJkZj0iaHR0cDovL3d3dy53My5vcmcvMTk5OS8wMi8yMi1yZGYtc3ludGF4LW5zIyIgeG1sbnM6c3ZnPSJodHRwOi8vd3d3LnczLm9yZy8yMDAwL3N2ZyIgeG1sbnM9Imh0dHA6Ly93d3cudzMub3JnLzIwMDAvc3ZnIiB4bWxuczpzb2RpcG9kaT0iaHR0cDovL3NvZGlwb2RpLnNvdXJjZWZvcmdlLm5ldC9EVEQvc29kaXBvZGktMC5kdGQiIHhtbG5zOmlua3NjYXBlPSJodHRwOi8vd3d3Lmlua3NjYXBlLm9yZy9uYW1lc3BhY2VzL2lua3NjYXBlIiB2ZXJzaW9uPSIxLjEiIGlkPSJMYXllcl8xIiB4PSIwcHgiIHk9IjBweCIgd2lkdGg9IjUwcHgiIGhlaWdodD0iNTBweCIgdmlld0JveD0iMCAwIDUwIDUwIiBlbmFibGUtYmFja2dyb3VuZD0ibmV3IDAgMCA1MCA1MCIgeG1sOnNwYWNlPSJwcmVzZXJ2ZSIgc29kaXBvZGk6ZG9jbmFtZT0iU3RvcmFnZSBBY2NvdW50cy5zdmciIGlua3NjYXBlOnZlcnNpb249IjAuOTIuMyAoMjQwNTU0NiwgMjAxOC0wMy0xMSkiPjxtZXRhZGF0YSBpZD0ibWV0YWRhdGE1NjQyIj48cmRmOlJERj48Y2M6V29yayByZGY6YWJvdXQ9IiI+PGRjOmZvcm1hdD5pbWFnZS9zdmcreG1sPC9kYzpmb3JtYXQ+PGRjOnR5cGUgcmRmOnJlc291cmNlPSJodHRwOi8vcHVybC5vcmcvZGMvZGNtaXR5cGUvU3RpbGxJbWFnZSIvPjxkYzp0aXRsZS8+PC9jYzpXb3JrPjwvcmRmOlJERj48L21ldGFkYXRhPjxkZWZzIGlkPSJkZWZzNTY0MCIvPjxzb2RpcG9kaTpuYW1lZHZpZXcgcGFnZWNvbG9yPSIjZmZmZmZmIiBib3JkZXJjb2xvcj0iIzY2NjY2NiIgYm9yZGVyb3BhY2l0eT0iMSIgb2JqZWN0dG9sZXJhbmNlPSIxMCIgZ3JpZHRvbGVyYW5jZT0iMTAiIGd1aWRldG9sZXJhbmNlPSIxMCIgaW5rc2NhcGU6cGFnZW9wYWNpdHk9IjAiIGlua3NjYXBlOnBhZ2VzaGFkb3c9IjIiIGlua3NjYXBlOndpbmRvdy13aWR0aD0iNjQwIiBpbmtzY2FwZTp3aW5kb3ctaGVpZ2h0PSI0ODAiIGlkPSJuYW1lZHZpZXc1NjM4IiBzaG93Z3JpZD0iZmFsc2UiIGlua3NjYXBlOnpvb209IjYuMjYiIGlua3NjYXBlOmN4PSIyNSIgaW5rc2NhcGU6Y3k9IjI1IiBpbmtzY2FwZTp3aW5kb3cteD0iMCIgaW5rc2NhcGU6d2luZG93LXk9IjAiIGlua3NjYXBlOndpbmRvdy1tYXhpbWl6ZWQ9IjEiIGlua3NjYXBlOmN1cnJlbnQtbGF5ZXI9IkxheWVyXzEiLz4mI3hhOzxwYXRoIGZpbGw9IiMzRTNFM0UiIGQ9Ik00NCw1MEg2Yy0zLjMxNCwwLTYtMi42ODYtNi02VjVoNTB2MzlDNTAsNDcuMzE0LDQ3LjMxNCw1MCw0NCw1MHoiIGlkPSJwYXRoNTYyMyIvPiYjeGE7PHJlY3QgeD0iNCIgeT0iMTYiIG9wYWNpdHk9IjAuOSIgZmlsbD0iI0ZDRDExNiIgd2lkdGg9IjQyIiBoZWlnaHQ9IjExIiBpZD0icmVjdDU2MjUiLz4mI3hhOzxyZWN0IHg9IjQiIHk9IjMxIiBmaWxsPSIjN0ZCQTAwIiB3aWR0aD0iNDIiIGhlaWdodD0iMTUiIGlkPSJyZWN0NTYyNyIvPiYjeGE7PHJlY3QgeD0iNCIgeT0iNSIgb3BhY2l0eT0iMC45IiBmaWxsPSIjRkZGRkZGIiB3aWR0aD0iNDIiIGhlaWdodD0iNyIgaWQ9InJlY3Q1NjI5Ii8+JiN4YTs8cmVjdCB4PSI0IiB5PSIzMSIgb3BhY2l0eT0iMC4zIiBmaWxsPSIjRkZGRkZGIiBlbmFibGUtYmFja2dyb3VuZD0ibmV3ICAgICIgd2lkdGg9IjQyIiBoZWlnaHQ9IjIiIGlkPSJyZWN0NTYzMSIvPiYjeGE7PHJlY3QgeD0iNCIgeT0iMTYiIG9wYWNpdHk9IjAuMyIgZmlsbD0iI0ZGRkZGRiIgZW5hYmxlLWJhY2tncm91bmQ9Im5ldyAgICAiIHdpZHRoPSI0MiIgaGVpZ2h0PSIyIiBpZD0icmVjdDU2MzMiLz4mI3hhOzxwYXRoIG9wYWNpdHk9IjAuMTUiIGZpbGw9IiNGRkZGRkYiIGVuYWJsZS1iYWNrZ3JvdW5kPSJuZXcgICAgIiBkPSJNMCw1djQyLjY5M0MwLDQ4LjkwNywwLjk4NSw0OS45LDIuMTg4LDQ5LjlIOEw0MCw1SDB6IiBpZD0icGF0aDU2MzUiLz4mI3hhOzwvc3ZnPg==" parent="1" vertex="1">
                    <mxGeometry x="454.5" y="467.5" width="35" height="35" as="geometry"/>
                </mxCell>
                <mxCell id="w8AWbL9sRovNboO9tG6S-21" value="Storage Account" style="text;html=1;strokeColor=none;fillColor=none;align=center;verticalAlign=middle;whiteSpace=wrap;rounded=0;" parent="1" vertex="1">
                    <mxGeometry x="454.5" y="507.5" width="40" height="20" as="geometry"/>
                </mxCell>
                <mxCell id="w8AWbL9sRovNboO9tG6S-22" value="" style="shape=image;verticalLabelPosition=bottom;verticalAlign=top;imageAspect=0;aspect=fixed;image=data:image/svg+xml,PHN2ZyB4bWxuczpkYz0iaHR0cDovL3B1cmwub3JnL2RjL2VsZW1lbnRzLzEuMS8iIHhtbG5zOmNjPSJodHRwOi8vY3JlYXRpdmVjb21tb25zLm9yZy9ucyMiIHhtbG5zOnJkZj0iaHR0cDovL3d3dy53My5vcmcvMTk5OS8wMi8yMi1yZGYtc3ludGF4LW5zIyIgeG1sbnM6c3ZnPSJodHRwOi8vd3d3LnczLm9yZy8yMDAwL3N2ZyIgeG1sbnM9Imh0dHA6Ly93d3cudzMub3JnLzIwMDAvc3ZnIiB4bWxuczpzb2RpcG9kaT0iaHR0cDovL3NvZGlwb2RpLnNvdXJjZWZvcmdlLm5ldC9EVEQvc29kaXBvZGktMC5kdGQiIHhtbG5zOmlua3NjYXBlPSJodHRwOi8vd3d3Lmlua3NjYXBlLm9yZy9uYW1lc3BhY2VzL2lua3NjYXBlIiB2aWV3Qm94PSIwIDAgMjQgMjQiIGNsYXNzPSIiIHJvbGU9InByZXNlbnRhdGlvbiIgZm9jdXNhYmxlPSJmYWxzZSIgaWQ9IkZ4U3ltYm9sMC0wNDgiIHZlcnNpb249IjEuMSIgc29kaXBvZGk6ZG9jbmFtZT0iS2V5IFZhdWx0cy5zdmciIGlua3NjYXBlOnZlcnNpb249IjAuOTIuMyAoMjQwNTU0NiwgMjAxOC0wMy0xMSkiPiYjeGE7ICA8bWV0YWRhdGEgaWQ9Im1ldGFkYXRhNDg3OCI+JiN4YTsgICAgPHJkZjpSREY+JiN4YTsgICAgICA8Y2M6V29yayByZGY6YWJvdXQ9IiI+JiN4YTsgICAgICAgIDxkYzpmb3JtYXQ+aW1hZ2Uvc3ZnK3htbDwvZGM6Zm9ybWF0PiYjeGE7ICAgICAgICA8ZGM6dHlwZSByZGY6cmVzb3VyY2U9Imh0dHA6Ly9wdXJsLm9yZy9kYy9kY21pdHlwZS9TdGlsbEltYWdlIi8+JiN4YTsgICAgICAgIDxkYzp0aXRsZS8+JiN4YTsgICAgICA8L2NjOldvcms+JiN4YTsgICAgPC9yZGY6UkRGPiYjeGE7ICA8L21ldGFkYXRhPiYjeGE7ICA8ZGVmcyBpZD0iZGVmczQ4NzYiLz4mI3hhOyAgPHNvZGlwb2RpOm5hbWVkdmlldyBwYWdlY29sb3I9IiNmZmZmZmYiIGJvcmRlcmNvbG9yPSIjNjY2NjY2IiBib3JkZXJvcGFjaXR5PSIxIiBvYmplY3R0b2xlcmFuY2U9IjEwIiBncmlkdG9sZXJhbmNlPSIxMCIgZ3VpZGV0b2xlcmFuY2U9IjEwIiBpbmtzY2FwZTpwYWdlb3BhY2l0eT0iMCIgaW5rc2NhcGU6cGFnZXNoYWRvdz0iMiIgaW5rc2NhcGU6d2luZG93LXdpZHRoPSI2NDAiIGlua3NjYXBlOndpbmRvdy1oZWlnaHQ9IjQ4MCIgaWQ9Im5hbWVkdmlldzQ4NzQiIHNob3dncmlkPSJmYWxzZSIgaW5rc2NhcGU6em9vbT0iMTMuMDQxNjY3IiBpbmtzY2FwZTpjeD0iMTIiIGlua3NjYXBlOmN5PSIxMiIgaW5rc2NhcGU6d2luZG93LXg9IjAiIGlua3NjYXBlOndpbmRvdy15PSIwIiBpbmtzY2FwZTp3aW5kb3ctbWF4aW1pemVkPSIxIiBpbmtzY2FwZTpjdXJyZW50LWxheWVyPSJGeFN5bWJvbDAtMDQ4Ii8+JiN4YTsgIDxnIGlkPSJnNDg3MSI+JiN4YTsgICAgPHRpdGxlIGlkPSJ0aXRsZTQ4NjEiLz4mI3hhOyAgICA8cGF0aCBkPSJNMTEuNSAxQzguNSAxIDYgMy41IDYgNi41IDYgOSA3LjYgMTEgOS43IDExLjdMOC41IDEzbDEuNSAxLjMtMS41IDEuNEwxMCAxN2wtMS41IDEuNSAzIDIuOCAyLjUtMi42di03LjNjMS44LTEgMy0yLjggMy01IDAtMy0yLjUtNS40LTUuNS01LjR6bTEgNHMtLjIgMC0uMy4yLS4yLjItLjMuMkgxMWwtLjItLjItLjItLjNWNGwuMi0uMi4zLS4yaC45bC4yLjIuMi4zVjV6IiBjbGFzcz0ibXNwb3J0YWxmeC1zdmctYzExIiBmaWxsPSIjZmNkMTE2IiBpZD0icGF0aDQ4NjMiLz4mI3hhOyAgICA8cGF0aCBvcGFjaXR5PSIuNCIgZD0iTTEyIDEydjcuMmwxLTF2LTYuNGE1LjUgNS41IDAgMCAxLTEgLjJ6IiBjbGFzcz0ibXNwb3J0YWxmeC1zdmctYzEwIiBmaWxsPSIjZmY4YzAwIiBpZD0icGF0aDQ4NjUiLz4mI3hhOyAgICA8cGF0aCBvcGFjaXR5PSIuNCIgZD0iTTExLjUgMTBBMy41IDMuNSAwIDAgMCAxNSA3SDhhMy41IDMuNSAwIDAgMCAzLjUgM3oiIGNsYXNzPSJtc3BvcnRhbGZ4LXN2Zy1jMDEiIGZpbGw9IiNmZmZmZmYiIGlkPSJwYXRoNDg2NyIvPiYjeGE7ICAgIDxwYXRoIGQ9Ik0xNy40IDMuOGMuMy42LjQgMSAuNSAxLjdhOS41IDkuNSAwIDAgMSAzIDdjMCA1LjItNC4zIDkuNS05LjUgOS41UzIgMTcuNyAyIDEyLjVhOS41IDkuNSAwIDAgMSAzLTdsLjYtMS43QTEwLjUgMTAuNSAwIDAgMCAxIDEyLjVDMSAxOC4zIDUuNyAyMyAxMS41IDIzUzIyIDE4LjMgMjIgMTIuNWMwLTMuNi0xLjgtNi44LTQuNi04Ljd6IiBjbGFzcz0ibXNwb3J0YWxmeC1zdmctYzE0IiBmaWxsPSIjN2ZiYTAwIiBpZD0icGF0aDQ4NjkiLz4mI3hhOyAgPC9nPiYjeGE7PC9zdmc+" parent="1" vertex="1">
                    <mxGeometry x="522.5" y="467.5" width="40" height="40" as="geometry"/>
                </mxCell>
                <mxCell id="w8AWbL9sRovNboO9tG6S-23" value="KeyVault" style="text;html=1;strokeColor=none;fillColor=none;align=center;verticalAlign=middle;whiteSpace=wrap;rounded=0;" parent="1" vertex="1">
                    <mxGeometry x="522.5" y="507.5" width="40" height="20" as="geometry"/>
                </mxCell>
                <mxCell id="w8AWbL9sRovNboO9tG6S-26" value="" style="shape=image;verticalLabelPosition=bottom;verticalAlign=top;imageAspect=0;aspect=fixed;image=data:image/svg+xml,PHN2ZyB4bWxuczpkYz0iaHR0cDovL3B1cmwub3JnL2RjL2VsZW1lbnRzLzEuMS8iIHhtbG5zOmNjPSJodHRwOi8vY3JlYXRpdmVjb21tb25zLm9yZy9ucyMiIHhtbG5zOnJkZj0iaHR0cDovL3d3dy53My5vcmcvMTk5OS8wMi8yMi1yZGYtc3ludGF4LW5zIyIgeG1sbnM6c3ZnPSJodHRwOi8vd3d3LnczLm9yZy8yMDAwL3N2ZyIgeG1sbnM9Imh0dHA6Ly93d3cudzMub3JnLzIwMDAvc3ZnIiB4bWxuczpzb2RpcG9kaT0iaHR0cDovL3NvZGlwb2RpLnNvdXJjZWZvcmdlLm5ldC9EVEQvc29kaXBvZGktMC5kdGQiIHhtbG5zOmlua3NjYXBlPSJodHRwOi8vd3d3Lmlua3NjYXBlLm9yZy9uYW1lc3BhY2VzL2lua3NjYXBlIiB2ZXJzaW9uPSIxLjEiIGlkPSJMYXllcl8xIiB4PSIwcHgiIHk9IjBweCIgd2lkdGg9IjUwcHgiIGhlaWdodD0iNTBweCIgdmlld0JveD0iMCAwIDUwIDUwIiBlbmFibGUtYmFja2dyb3VuZD0ibmV3IDAgMCA1MCA1MCIgeG1sOnNwYWNlPSJwcmVzZXJ2ZSIgc29kaXBvZGk6ZG9jbmFtZT0iRE5TIFByaXZhdGUgWm9uZXMuc3ZnIiBpbmtzY2FwZTp2ZXJzaW9uPSIwLjkyLjMgKDI0MDU1NDYsIDIwMTgtMDMtMTEpIj48bWV0YWRhdGEgaWQ9Im1ldGFkYXRhMTI1NSI+PHJkZjpSREY+PGNjOldvcmsgcmRmOmFib3V0PSIiPjxkYzpmb3JtYXQ+aW1hZ2Uvc3ZnK3htbDwvZGM6Zm9ybWF0PjxkYzp0eXBlIHJkZjpyZXNvdXJjZT0iaHR0cDovL3B1cmwub3JnL2RjL2RjbWl0eXBlL1N0aWxsSW1hZ2UiLz48ZGM6dGl0bGUvPjwvY2M6V29yaz48L3JkZjpSREY+PC9tZXRhZGF0YT48ZGVmcyBpZD0iZGVmczEyNTMiLz48c29kaXBvZGk6bmFtZWR2aWV3IHBhZ2Vjb2xvcj0iI2ZmZmZmZiIgYm9yZGVyY29sb3I9IiM2NjY2NjYiIGJvcmRlcm9wYWNpdHk9IjEiIG9iamVjdHRvbGVyYW5jZT0iMTAiIGdyaWR0b2xlcmFuY2U9IjEwIiBndWlkZXRvbGVyYW5jZT0iMTAiIGlua3NjYXBlOnBhZ2VvcGFjaXR5PSIwIiBpbmtzY2FwZTpwYWdlc2hhZG93PSIyIiBpbmtzY2FwZTp3aW5kb3ctd2lkdGg9IjY0MCIgaW5rc2NhcGU6d2luZG93LWhlaWdodD0iNDgwIiBpZD0ibmFtZWR2aWV3MTI1MSIgc2hvd2dyaWQ9ImZhbHNlIiBpbmtzY2FwZTp6b29tPSI2LjI2IiBpbmtzY2FwZTpjeD0iMjUiIGlua3NjYXBlOmN5PSIyNSIgaW5rc2NhcGU6d2luZG93LXg9IjAiIGlua3NjYXBlOndpbmRvdy15PSIwIiBpbmtzY2FwZTp3aW5kb3ctbWF4aW1pemVkPSIxIiBpbmtzY2FwZTpjdXJyZW50LWxheWVyPSJMYXllcl8xIi8+JiN4YTs8Y2lyY2xlIGZpbGw9IiMwMDcyQzYiIGN4PSIyMSIgY3k9IjIxIiByPSIyMSIgaWQ9ImNpcmNsZTEyMjgiLz4mI3hhOzxwYXRoIG9wYWNpdHk9IjAuMiIgZmlsbD0iI0ZGRkZGRiIgZW5hYmxlLWJhY2tncm91bmQ9Im5ldyAgICAiIGQ9Ik02LjE1LDM1Ljg1Yy04LjIwMS04LjIwMS04LjIwMS0yMS40OTcsMC0yOS42OTggIHMyMS40OTctOC4yMDEsMjkuNjk4LDBMNi4xNSwzNS44NXoiIGlkPSJwYXRoMTIzMCIvPiYjeGE7PHBhdGggb3BhY2l0eT0iMC44IiBmaWxsPSIjRkZGRkZGIiBlbmFibGUtYmFja2dyb3VuZD0ibmV3ICAgICIgZD0iTTQwLjMyLDIwLjk5N2MwLTQuMzI4LTEuNDY4LTguNTAxLTQuMTczLTExLjkwMWwwLDAgIGwtMC4xNTUtMC4xNTVjLTAuMDc3LTAuMDc3LTAuMDc3LTAuMTU1LTAuMTU1LTAuMjMybC0xLjIzNi0xLjMxNGwwLDBDMzAuOTY5LDMuNjg2LDI2LjE3OCwxLjY3NywyMSwxLjY3N2MwLDAsMCwwLTAuMDc3LDBsMCwwICBoLTAuMDc3Yy01LjEsMC4wNzctOS44MTUsMi4wMDktMTMuNDQ3LDUuNjQxbDAsMEw2LjA4NSw4LjcwOUM2LjAwOCw4Ljc4Niw2LjAwOCw4Ljg2NCw1LjkzLDguOTQxTDUuNzc2LDkuMDE4bDAsMCAgYy0yLjYyOCwzLjQtNC4wOTYsNy42NTEtNC4wOTYsMTEuOTc4YzAsNC4zMjgsMS40NjgsOC41MDEsNC4xNzMsMTEuOTAxbDAsMGwwLjE1NSwwLjE1NWMwLjA3NywwLjA3NywwLjA3NywwLjE1NSwwLjE1NSwwLjIzMiAgbDEuMjM2LDEuMzE0bDAsMGMzLjYzMiwzLjYzMiw4LjM0Niw1LjY0MSwxMy40NDcsNS42NDFoMC4wNzdsMCwwYzAsMCwwLDAsMC4wNzcsMGM1LjEsMCw5Ljk2OS0yLjAwOSwxMy42MDEtNS42NDFsMCwwbDEuMjM2LTEuMzkxICBjMC4wNzctMC4wNzcsMC4wNzctMC4xNTUsMC4xNTUtMC4yMzJsMC4xNTUtMC4xNTVsMCwwQzM4Ljg1MiwyOS41NzUsNDAuMzIsMjUuMzI0LDQwLjMyLDIwLjk5N3ogTTMyLjUxNSw4LjQgIGMtMC4wNzcsMC0wLjE1NSwwLjA3Ny0wLjIzMiwwLjA3N2MtMC4xNTUsMC4wNzctMC4zMDksMC4xNTUtMC4zODYsMC4xNTVjLTAuMzA5LDAuMTU1LTAuNjk2LDAuMjMyLTEuMDgyLDAuMzg2ICBjLTAuMDc3LDAtMC4xNTUsMC4wNzctMC4yMzIsMC4wNzdjLTAuNDY0LDAuMTU1LTAuODUsMC4yMzItMS4zMTQsMC4zODZsMCwwYy0wLjA3NywwLTAuMjMyLDAuMDc3LTAuMzA5LDAuMDc3ICBjLTAuNjk2LTEuODU1LTEuNTQ2LTMuNDc4LTIuNTUtNC43MTRDMjguNjUxLDUuNTQxLDMwLjczNyw2Ljc3NywzMi41MTUsOC40eiBNMjAuODQ1LDMuOTE4aDAuMDc3YzIuMDg3LDAsNC4yNSwyLjI0MSw1Ljc5Niw2LjEwNSAgYy0xLjc3NywwLjMwOS0zLjcwOSwwLjQ2NC01LjcxOSwwLjQ2NHMtNC4wMTktMC4xNTUtNS44NzMtMC40NjRDMTYuNTk1LDYuMjM2LDE4Ljc1OSwzLjk5NSwyMC44NDUsMy45MTh6IE0xNS4zNTksNC45MjIgIGMtMC45MjcsMS4yMzYtMS43NzcsMi43ODItMi40NzMsNC42MzdjLTAuMDc3LDAtMC4wNzcsMC0wLjE1NSwwbDAsMGMtMC40NjQtMC4xNTUtMC45MjctMC4yMzItMS4zMTQtMC4zODYgIGMtMC4wNzcsMC0wLjE1NS0wLjA3Ny0wLjIzMi0wLjA3N2MtMC4zMDktMC4xNTUtMC42OTYtMC4zMDktMS4wMDUtMC40NjRjLTAuMTU1LTAuMDc3LTAuMjMyLTAuMDc3LTAuMzg2LTAuMTU1ICBDOS43MTcsOC40LDkuNjQsOC40LDkuNDg1LDguMzIzQzExLjI2Myw2Ljg1NCwxMy4xOTUsNS42MTgsMTUuMzU5LDQuOTIyeiBNOS40ODUsMzMuNTkzYzAuMDc3LDAsMC4xNTUtMC4wNzcsMC4yMzItMC4wNzcgIGMwLjE1NS0wLjA3NywwLjIzMi0wLjA3NywwLjM4Ni0wLjE1NWMwLjMwOS0wLjE1NSwwLjY5Ni0wLjIzMiwxLjA4Mi0wLjM4NmMwLjA3NywwLDAuMTU1LTAuMDc3LDAuMjMyLTAuMDc3ICBjMC40NjQtMC4xNTUsMC44NS0wLjIzMiwxLjMxNC0wLjM4NmwwLDBjMC4wNzcsMCwwLjA3NywwLDAuMTU1LDBjMC42OTYsMS43NzcsMS41NDYsMy40LDIuNDczLDQuNjM3ICBDMTMuMTk1LDM2LjM3NSwxMS4xODUsMzUuMTM5LDkuNDg1LDMzLjU5M3ogTTIwLjkyMywzOC4wNzZoLTAuMDc3Yy0yLjA4Ny0wLjA3Ny00LjI1LTIuMjQxLTUuNzE5LTYuMDI4ICBjMS44NTUtMC4zMDksMy44NjQtMC40NjQsNS44NzMtMC40NjRzMy44NjQsMC4xNTUsNS43MTksMC40NjRDMjUuMjUsMzUuODM0LDIzLjAwOSwzOC4wNzYsMjAuOTIzLDM4LjA3NnogTTI2LjQxLDM3LjE0OCAgYzEuMDA1LTEuMjM2LDEuODU1LTIuODU5LDIuNTUtNC43MTRjMC4wNzcsMCwwLjIzMiwwLjA3NywwLjMwOSwwLjA3N2wwLDBjMC40NjQsMC4xNTUsMC45MjcsMC4yMzIsMS4zMTQsMC4zODYgIGMwLjA3NywwLDAuMTU1LDAuMDc3LDAuMjMyLDAuMDc3YzAuMzg2LDAuMTU1LDAuNjk2LDAuMjMyLDEuMDgyLDAuMzg2YzAuMTU1LDAuMDc3LDAuMjMyLDAuMDc3LDAuMzg2LDAuMTU1ICBjMC4wNzcsMCwwLjE1NSwwLjA3NywwLjMwOSwwLjE1NUMzMC43MzcsMzUuMjE2LDI4LjY1MSwzNi40NTMsMjYuNDEsMzcuMTQ4eiBNMzQuMjE1LDMxLjgxNkwzNC4yMTUsMzEuODE2ICBjLTAuMjMyLDAtMC4zODYtMC4wNzctMC42MTgtMC4xNTVjLTAuMjMyLTAuMDc3LTAuNTQxLTAuMjMyLTAuNzczLTAuMzA5Yy0wLjA3NywwLTAuMTU1LTAuMDc3LTAuMjMyLTAuMDc3ICBjLTAuOTI3LTAuMzg2LTEuOTMyLTAuNjE4LTIuOTM3LTAuOTI3YzAuMjMyLTAuOTI3LDAuNDY0LTEuODU1LDAuNjE4LTIuNzgyaC0yLjMxOGMtMC4xNTUsMC44NS0wLjMwOSwxLjYyMy0wLjU0MSwyLjMxOCAgYy0yLjAwOS0wLjM4Ni00LjE3My0wLjU0MS02LjQxNC0wLjU0MWMtMi4zMTgsMC00LjQ4MiwwLjIzMi02LjU2OSwwLjYxOGMtMC4yMzItMC43NzMtMC4zODYtMS41NDYtMC41NDEtMi4zOTZoLTIuMzE4ICBjMC4xNTUsMS4wMDUsMC4zODYsMS45MzIsMC42MTgsMi44NTljLTAuOTI3LDAuMjMyLTEuODU1LDAuNTQxLTIuNzA1LDAuODVjLTAuMDc3LDAuMDc3LTAuMjMyLDAuMDc3LTAuMzA5LDAuMTU1ICBjLTAuMjMyLDAuMDc3LTAuNTQxLDAuMjMyLTAuNzczLDAuMzA5Yy0wLjE1NSwwLTAuMzg2LDAuMDc3LTAuNTQxLDAuMTU1bDAsMGMtMi4zMTgtMi43ODItMy42MzItNi4yNi0zLjg2NC05LjgxNUg1Ljkzdi0yLjI0MSAgSDMuOTk4YzAuMjMyLTMuNTU1LDEuNTQ2LTYuOTU1LDMuNzg3LTkuNjZMNy44NjIsMTAuMWMwLjE1NSwwLjA3NywwLjM4NiwwLjE1NSwwLjU0MSwwLjIzMmMwLjMwOSwwLjE1NSwwLjU0MSwwLjIzMiwwLjg1LDAuMzg2ICBjMC4wNzcsMCwwLjE1NSwwLjA3NywwLjIzMiwwLjA3N2MwLjg1LDAuMzA5LDEuNzc3LDAuNjE4LDIuNzgyLDAuODVjLTAuMjMyLDAuODUtMC4zODYsMS43LTAuNTQxLDIuNTVoMi4zMTggIGMwLjE1NS0wLjY5NiwwLjMwOS0xLjQ2OCwwLjQ2NC0yLjA4N2MyLjA4NywwLjM4Niw0LjMyOCwwLjYxOCw2LjU2OSwwLjYxOHM0LjQwNS0wLjIzMiw2LjQxNC0wLjU0MSAgYzAuMTU1LDAuNjE4LDAuMzA5LDEuMzE0LDAuNDY0LDIuMDg3aDIuMzE4Yy0wLjE1NS0wLjg1LTAuMzA5LTEuNy0wLjU0MS0yLjU1YzEuMDA1LTAuMjMyLDEuOTMyLTAuNTQxLDIuODU5LTAuOTI3ICBjMC4wNzcsMCwwLjIzMi0wLjA3NywwLjMwOS0wLjA3N2MwLjMwOS0wLjA3NywwLjU0MS0wLjIzMiwwLjg1LTAuMzA5YzAuMTU1LTAuMDc3LDAuMzg2LTAuMTU1LDAuNTQxLTAuMjMybDAsMCAgYzIuMjQxLDIuNzgyLDMuNjMyLDYuMTgyLDMuODY0LDkuNzM3aC0yLjMxOHYyLjI0MWgyLjMxOEMzNy43NywyNS42MzMsMzYuNDU2LDI5LjExMSwzNC4yMTUsMzEuODE2eiIgaWQ9InBhdGgxMjMyIi8+JiN4YTs8cGF0aCBmaWxsPSIjRkZGRkZGIiBkPSJNMTYuMTQ2LDIwLjg3OGMwLDAuOTE2LTAuMTIsMS42OTktMC4zNTksMi4zNDljLTAuMjM5LDAuNjUxLTAuNTgzLDEuMTgyLTEuMDMsMS41OTMgIGMtMC40NDgsMC40MTItMC45OTEsMC43MTQtMS42MzIsMC45MDZjLTAuNjQsMC4xOTItMS40MDMsMC4yODktMi4yODcsMC4yODlIOC40NTVjLTAuMTY5LDAtMC4zMTMtMC4wNS0wLjQyOC0wLjE1ICBjLTAuMTE2LTAuMTAxLTAuMTczLTAuMjY0LTAuMTczLTAuNDl2LTguNzAyYzAtMC4yMjcsMC4wNTgtMC4zOSwwLjE3My0wLjQ5YzAuMTE2LTAuMTAxLDAuMjU5LTAuMTUsMC40MjgtMC4xNWgyLjU2MSAgYzAuODksMCwxLjY0NSwwLjEwNCwyLjI2NSwwLjMxM2MwLjYyLDAuMjA4LDEuMTQyLDAuNTE3LDEuNTY3LDAuOTI2YzAuNDI0LDAuNDA5LDAuNzQ3LDAuOTE0LDAuOTY5LDEuNTE1ICBDMTYuMDM2LDE5LjM4OSwxNi4xNDYsMjAuMDg3LDE2LjE0NiwyMC44Nzh6IE0xNC4wNDgsMjAuOTQ4YzAtMC40NzQtMC4wNTUtMC45MTMtMC4xNjYtMS4zMmMtMC4xMTEtMC40MDYtMC4yODgtMC43NTktMC41MzMtMS4wNTcgIGMtMC4yNDQtMC4yOTgtMC41NTgtMC41MzEtMC45NDItMC42OThjLTAuMzgzLTAuMTY4LTAuODg1LTAuMjUxLTEuNTA5LTAuMjUxSDkuODczdjYuNzg5aDEuMDU4YzAuNTU1LDAsMS4wMjMtMC4wNzEsMS40MDQtMC4yMTYgIGMwLjM4MS0wLjE0NCwwLjY5OC0wLjM2MSwwLjk1My0wLjY1MnMwLjQ0NS0wLjY1MiwwLjU3MS0xLjA4NEMxMy45ODQsMjIuMDI4LDE0LjA0OCwyMS41MjQsMTQuMDQ4LDIwLjk0OHoiIGlkPSJwYXRoMTIzNCIvPiYjeGE7PHBhdGggZmlsbD0iI0ZGRkZGRiIgZD0iTTI2LjA0NCwyNS4zMDhjMCwwLjExOC0wLjAyLDAuMjI0LTAuMDYxLDAuMzE2Yy0wLjA0MywwLjA5Mi0wLjA5NywwLjE2OS0wLjE2NywwLjIzMiAgYy0wLjA2OCwwLjA2Mi0wLjE1MSwwLjEwNi0wLjI0NiwwLjEzNGMtMC4wOTYsMC4wMjktMC4xOTIsMC4wNDMtMC4yOSwwLjA0M2gtMC44NjRjLTAuMTgxLDAtMC4zMzUtMC4wMTgtMC40NjgtMC4wNTQgIGMtMC4xMy0wLjAzNS0wLjI1Mi0wLjEwMi0wLjM2Mi0wLjE5N2MtMC4xMTEtMC4wOTUtMC4yMTgtMC4yMjQtMC4zMi0wLjM4NmMtMC4xMDMtMC4xNjItMC4yMTgtMC4zNzItMC4zNDYtMC42MjlsLTIuNDg1LTQuNjY4ICBjLTAuMTQ0LTAuMjc3LTAuMjkxLTAuNTc3LTAuNDM5LTAuODk5Yy0wLjE1LTAuMzIyLTAuMjgzLTAuNjMzLTAuNDAyLTAuOTM3SDE5LjU4YzAuMDIxLDAuMzcsMC4wMzYsMC43MzksMC4wNDYsMS4xMDYgIGMwLjAxLDAuMzY3LDAuMDE1LDAuNzQ4LDAuMDE1LDEuMTM3djUuMjIzYzAsMC4wNTItMC4wMTQsMC4wOTgtMC4wNDMsMC4xMzljLTAuMDI5LDAuMDQxLTAuMDc3LDAuMDc2LTAuMTQ3LDAuMTA0ICBjLTAuMDcsMC4wMjktMC4xNjQsMC4wNS0wLjI4MSwwLjA2NWMtMC4xMTgsMC4wMTYtMC4yNywwLjAyNC0wLjQ1NSwwLjAyNGMtMC4xOCwwLTAuMzI5LTAuMDA4LTAuNDQ4LTAuMDI0ICBjLTAuMTE4LTAuMDE2LTAuMjExLTAuMDM3LTAuMjc3LTAuMDY1Yy0wLjA2Ny0wLjAyOC0wLjExMy0wLjA2My0wLjEzOS0wLjEwNGMtMC4wMjUtMC4wNDEtMC4wMzktMC4wODctMC4wMzktMC4xMzl2LTguOTcyICBjMC0wLjI0MiwwLjA3MS0wLjQyMywwLjIxMi0wLjU0NGMwLjE0MS0wLjEyLDAuMzE1LTAuMTgxLDAuNTIxLTAuMTgxaDEuMDg3YzAuMTk2LDAsMC4zNiwwLjAxNywwLjQ5NCwwLjA1ICBjMC4xMzQsMC4wMzQsMC4yNTMsMC4wODgsMC4zNTksMC4xNjZjMC4xMDUsMC4wNzcsMC4yMDYsMC4xODQsMC4yOTcsMC4zMmMwLjA5MiwwLjEzNywwLjE4NywwLjMwNSwwLjI4NSwwLjUwNmwxLjk0NSwzLjY0OSAgYzAuMTEyLDAuMjIxLDAuMjI1LDAuNDM5LDAuMzM1LDAuNjUyYzAuMTEsMC4yMTMsMC4yMTgsMC40MjgsMC4zMiwwLjY0MWMwLjEwMiwwLjIxMywwLjIwMiwwLjQyMywwLjMwMSwwLjYyOCAgYzAuMDk3LDAuMjA2LDAuMTkyLDAuNDEyLDAuMjg1LDAuNjE3aDAuMDA4Yy0wLjAxNS0wLjM2LTAuMDI3LTAuNzM3LTAuMDM0LTEuMTI2Yy0wLjAwOC0wLjM5MS0wLjAxMS0wLjc2NC0wLjAxMS0xLjExOHYtNC42ODMgIGMwLTAuMDUxLDAuMDE1LTAuMDk3LDAuMDQ1LTAuMTM5YzAuMDMtMC4wNDEsMC4wODItMC4wNzcsMC4xNTUtMC4xMDhjMC4wNzEtMC4wMzEsMC4xNjctMC4wNTMsMC4yODUtMC4wNjYgIGMwLjExOC0wLjAxMywwLjI3LTAuMDE5LDAuNDU1LTAuMDE5YzAuMTc1LDAsMC4zMiwwLjAwNiwwLjQzOSwwLjAxOWMwLjExOCwwLjAxMywwLjIwOSwwLjAzNCwwLjI3NSwwLjA2NiAgYzAuMDYzLDAuMDMxLDAuMTA5LDAuMDY2LDAuMTM1LDAuMTA4YzAuMDI1LDAuMDQyLDAuMDM4LDAuMDg3LDAuMDM4LDAuMTM5djguOTczTDI2LjA0NCwyNS4zMDhMMjYuMDQ0LDI1LjMwOHoiIGlkPSJwYXRoMTIzNiIvPiYjeGE7PHBhdGggZmlsbD0iI0ZGRkZGRiIgZD0iTTM0LjEzOCwyMy4wMjNjMCwwLjUyNi0wLjA5OCwwLjk4NS0wLjI5MywxLjM4MWMtMC4xOTYsMC4zOTYtMC40NiwwLjcyNy0wLjc5NSwwLjk5MSAgYy0wLjMzNCwwLjI2NS0wLjcyNiwwLjQ2NC0xLjE3MywwLjU5OGMtMC40NDcsMC4xMzQtMC45MjYsMC4yLTEuNDM1LDAuMmMtMC4zNDQsMC0wLjY2NC0wLjAyOS0wLjk2LTAuMDg1ICBjLTAuMjk2LTAuMDU3LTAuNTU3LTAuMTI0LTAuNzgzLTAuMjA0Yy0wLjIyNy0wLjA4LTAuNDE2LTAuMTYzLTAuNTY3LTAuMjUxYy0wLjE1MS0wLjA4Ny0wLjI2Mi0wLjE2NS0wLjMyOC0wLjIzMiAgYy0wLjA2Ni0wLjA2Ni0wLjExMy0wLjE2My0wLjE0My0wLjI4OWMtMC4wMjgtMC4xMjYtMC4wNDMtMC4zMDctMC4wNDMtMC41NDRjMC0wLjE2LDAuMDA1LTAuMjkzLDAuMDE2LTAuNDAxICBjMC4wMS0wLjEwOCwwLjAyNi0wLjE5NiwwLjA1LTAuMjYzYzAuMDIzLTAuMDY2LDAuMDU0LTAuMTE0LDAuMDkyLTAuMTQzYzAuMDM5LTAuMDI4LDAuMDgzLTAuMDQzLDAuMTM1LTAuMDQzICBjMC4wNzIsMCwwLjE3NCwwLjA0MywwLjMwNCwwLjEyOGMwLjEzMSwwLjA4NCwwLjMsMC4xNzksMC41MDYsMC4yODFjMC4yMDYsMC4xMDIsMC40NTEsMC4xOTcsMC43MzcsMC4yODEgIGMwLjI4NSwwLjA4NSwwLjYxNiwwLjEyOCwwLjk5MSwwLjEyOGMwLjI0NiwwLDAuNDY4LTAuMDI5LDAuNjYzLTAuMDg5YzAuMTk1LTAuMDYsMC4zNjEtMC4xNDMsMC40OTctMC4yNTEgIGMwLjEzNi0wLjEwOCwwLjIzOS0wLjI0MSwwLjMxMi0wLjQwMWMwLjA3Mi0wLjE2LDAuMTA4LTAuMzM3LDAuMTA4LTAuNTMzYzAtMC4yMjctMC4wNjItMC40Mi0wLjE4Ni0wLjU4MiAgYy0wLjEyMy0wLjE2Mi0wLjI4NS0wLjMwNy0wLjQ4My0wLjQzM2MtMC4xOTgtMC4xMjYtMC40MjMtMC4yNDQtMC42NzUtMC4zNTRjLTAuMjUyLTAuMTExLTAuNTEyLTAuMjI4LTAuNzc5LTAuMzUyICBjLTAuMjY4LTAuMTIzLTAuNTI3LTAuMjY0LTAuNzc5LTAuNDJjLTAuMjUyLTAuMTU3LTAuNDc4LTAuMzQ0LTAuNjc1LTAuNTY0Yy0wLjE5OC0wLjIxOC0wLjM1OS0wLjQ3OC0wLjQ4My0wLjc3NiAgYy0wLjEyNC0wLjI5OC0wLjE4Ni0wLjY1NS0wLjE4Ni0xLjA3M2MwLTAuNDc4LDAuMDg5LTAuODk5LDAuMjY2LTEuMjYyYzAuMTc4LTAuMzYzLDAuNDE3LTAuNjYzLDAuNzE3LTAuOTAzICBjMC4zMDItMC4yMzksMC42NTYtMC40MTgsMS4wNjUtMC41MzZjMC40MDktMC4xMTgsMC44NDMtMC4xNzcsMS4yOTktMC4xNzdjMC4yMzcsMCwwLjQ3NCwwLjAxOCwwLjcxLDAuMDU0czAuNDU4LDAuMDg1LDAuNjYzLDAuMTQ3ICBjMC4yMDUsMC4wNjIsMC4zODksMC4xMzEsMC41NDgsMC4yMDhjMC4xNiwwLjA3NywwLjI2NSwwLjE0MSwwLjMxNiwwLjE5M2MwLjA1MSwwLjA1MSwwLjA4NiwwLjA5NSwwLjEwNCwwLjEzMSAgczAuMDM0LDAuMDg0LDAuMDQ2LDAuMTQzYzAuMDEzLDAuMDYsMC4wMjIsMC4xMzQsMC4wMjYsMC4yMjRjMC4wMDUsMC4wOSwwLjAwOCwwLjIwMiwwLjAwOCwwLjMzNmMwLDAuMTUtMC4wMDQsMC4yNzYtMC4wMTMsMC4zNzggIGMtMC4wMDgsMC4xMDItMC4wMjEsMC4xODgtMC4wMzgsMC4yNTVjLTAuMDE4LDAuMDY2LTAuMDQ0LDAuMTE2LTAuMDc3LDAuMTQ3Yy0wLjAzNCwwLjAzMS0wLjA3OSwwLjA0Ni0wLjEzNSwwLjA0NiAgYy0wLjA1NywwLTAuMTQ3LTAuMDM1LTAuMjctMC4xMDhjLTAuMTIzLTAuMDcyLTAuMjc2LTAuMTUtMC40NTUtMC4yMzZjLTAuMTgtMC4wODQtMC4zODgtMC4xNjItMC42MjQtMC4yMzIgIGMtMC4yMzctMC4wNy0wLjQ5Ni0wLjEwNC0wLjc3OS0wLjEwNGMtMC4yMjEsMC0wLjQxNCwwLjAyNy0wLjU3OCwwLjA4MWMtMC4xNjUsMC4wNTQtMC4zMDMsMC4xMjktMC40MTIsMC4yMjQgIGMtMC4xMTEsMC4wOTUtMC4xOTMsMC4yMS0wLjI0NywwLjM0M2MtMC4wNTQsMC4xMzQtMC4wODEsMC4yNzYtMC4wODEsMC40MjRjMCwwLjIyMSwwLjA2LDAuNDEyLDAuMTgxLDAuNTc1ICBjMC4xMjEsMC4xNjIsMC4yODMsMC4zMDYsMC40ODYsMC40MzJjMC4yMDMsMC4xMjYsMC40MzMsMC4yNDQsMC42OTEsMC4zNTRjMC4yNTcsMC4xMTEsMC41MTksMC4yMjgsMC43ODcsMC4zNTIgIGMwLjI2NywwLjEyMywwLjUyOSwwLjI2NCwwLjc4NywwLjQyYzAuMjU3LDAuMTU3LDAuNDg2LDAuMzQ0LDAuNjg3LDAuNTY0YzAuMiwwLjIxOCwwLjM2MiwwLjQ3NiwwLjQ4NiwwLjc3MiAgQzM0LjA3NSwyMi4yNzQsMzQuMTM4LDIyLjYyMiwzNC4xMzgsMjMuMDIzeiIgaWQ9InBhdGgxMjM4Ii8+JiN4YTs8ZyBpZD0iZzEyNDQiPiYjeGE7CTxjaXJjbGUgZmlsbD0iIzFFMUUxRSIgY3g9IjM3IiBjeT0iMzciIHI9IjEyIiBpZD0iY2lyY2xlMTI0MCIvPiYjeGE7CTxwYXRoIGZpbGw9IiNFNUU1RTUiIGQ9Ik0zNywyNmM2LjA2NSwwLDExLDQuOTM1LDExLDExcy00LjkzNSwxMS0xMSwxMXMtMTEtNC45MzUtMTEtMTFTMzAuOTM1LDI2LDM3LDI2IE0zNywyNCAgIGMtNy4xOCwwLTEzLDUuODItMTMsMTNzNS44MiwxMywxMywxM3MxMy01LjgyLDEzLTEzUzQ0LjE4LDI0LDM3LDI0TDM3LDI0eiIgaWQ9InBhdGgxMjQyIi8+JiN4YTs8L2c+JiN4YTs8cGF0aCBmaWxsPSIjRTVFNUU1IiBkPSJNNDAuMTkzLDQyLjQxMmMtMC4zMjEsMC0wLjYyNi0wLjE1NC0wLjgxNC0wLjQxNEwzNywzOC43NDRsLTIuMzc5LDMuMjU0ICBjLTAuMTg4LDAuMjYtMC40OTMsMC40MTQtMC44MTQsMC40MTRjLTAuMjE1LDAtMC40MjEtMC4wNjctMC41OTUtMC4xOTVjLTAuMjE4LTAuMTU4LTAuMzYtMC4zOTMtMC40MDEtMC42NTkgIGMtMC4wNDItMC4yNjcsMC4wMjMtMC41MzIsMC4xODMtMC43NDlsMi40NTEtMy4zNTRsLTMuNjg4LTEuMDc2Yy0wLjUzNC0wLjE1Ni0wLjg0MS0wLjcxOC0wLjY4NS0xLjI1MSAgYzAuMTI0LTAuNDI4LDAuNTIxLTAuNzI3LDAuOTY3LTAuNzI3YzAuMDk2LDAsMC4xOSwwLjAxNCwwLjI4MywwLjA0MWwzLjY3LDEuMDdWMzEuNDRjMC0wLjU1NiwwLjQ1Mi0xLjAwOCwxLjAwOS0xLjAwOCAgczEuMDA5LDAuNDUyLDEuMDA5LDEuMDA4djQuMDcxbDMuNjctMS4wN2MwLjA5My0wLjAyNywwLjE4OC0wLjA0MSwwLjI4My0wLjA0MWMwLjQ0NSwwLDAuODQzLDAuMjk5LDAuOTY4LDAuNzI3ICBjMC4xNTUsMC41MzMtMC4xNTEsMS4wOTUtMC42ODYsMS4yNTFsLTMuNjg4LDEuMDc2bDIuNDUxLDMuMzU0YzAuMTU5LDAuMjE3LDAuMjI1LDAuNDgyLDAuMTgzLDAuNzQ5ICBjLTAuMDQxLDAuMjY3LTAuMTg0LDAuNTAxLTAuNDAxLDAuNjU5QzQwLjYxNCw0Mi4zNDUsNDAuNDA4LDQyLjQxMiw0MC4xOTMsNDIuNDEyTDQwLjE5Myw0Mi40MTJ6IiBpZD0icGF0aDEyNDYiLz4mI3hhOzxwYXRoIGZpbGw9IiNGRkZGRkYiIGQ9Ik0zNywzN2wtMy43ODgsNS4yMTdjLTAuMjE4LTAuMTU4LTAuMzYtMC4zOTMtMC40MDEtMC42NTljLTAuMDQyLTAuMjY3LDAuMDIzLTAuNTMyLDAuMTgzLTAuNzQ5bDIuNDUxLTMuMzU0ICBsLTMuNjg4LTEuMDc2Yy0wLjUzNC0wLjE1Ni0wLjg0MS0wLjcxOC0wLjY4NS0xLjI1MWMwLjEyNC0wLjQyOCwwLjUyMS0wLjcyNywwLjk2Ny0wLjcyN2MwLjA5NiwwLDAuMTksMC4wMTQsMC4yODMsMC4wNDFsMy42NywxLjA3ICBWMzEuNDRjMC0wLjU1NiwwLjQ1Mi0xLjAwOCwxLjAwOS0xLjAwOEwzNywzN3oiIGlkPSJwYXRoMTI0OCIvPiYjeGE7PC9zdmc+" parent="1" vertex="1">
                    <mxGeometry x="340" y="650" width="50" height="50" as="geometry"/>
                </mxCell>
                <mxCell id="w8AWbL9sRovNboO9tG6S-27" value="" style="shape=image;verticalLabelPosition=bottom;verticalAlign=top;imageAspect=0;aspect=fixed;image=data:image/svg+xml,PHN2ZyB4bWxuczpkYz0iaHR0cDovL3B1cmwub3JnL2RjL2VsZW1lbnRzLzEuMS8iIHhtbG5zOmNjPSJodHRwOi8vY3JlYXRpdmVjb21tb25zLm9yZy9ucyMiIHhtbG5zOnJkZj0iaHR0cDovL3d3dy53My5vcmcvMTk5OS8wMi8yMi1yZGYtc3ludGF4LW5zIyIgeG1sbnM6c3ZnPSJodHRwOi8vd3d3LnczLm9yZy8yMDAwL3N2ZyIgeG1sbnM9Imh0dHA6Ly93d3cudzMub3JnLzIwMDAvc3ZnIiB4bWxuczpzb2RpcG9kaT0iaHR0cDovL3NvZGlwb2RpLnNvdXJjZWZvcmdlLm5ldC9EVEQvc29kaXBvZGktMC5kdGQiIHhtbG5zOmlua3NjYXBlPSJodHRwOi8vd3d3Lmlua3NjYXBlLm9yZy9uYW1lc3BhY2VzL2lua3NjYXBlIiB2aWV3Qm94PSIwIDAgNTAgNTAiIGNsYXNzPSJmeHMtcG9ydGFsLXN2ZyIgcm9sZT0icHJlc2VudGF0aW9uIiBmb2N1c2FibGU9ImZhbHNlIiBpZD0iRnhTeW1ib2wwLTA2ZCIgdmVyc2lvbj0iMS4xIiBzb2RpcG9kaTpkb2NuYW1lPSJFeHByZXNzUm91dGUgQ2lyY3VpdHMuc3ZnIiBpbmtzY2FwZTp2ZXJzaW9uPSIwLjkyLjMgKDI0MDU1NDYsIDIwMTgtMDMtMTEpIj4mI3hhOyAgPG1ldGFkYXRhIGlkPSJtZXRhZGF0YTEzNDMiPiYjeGE7ICAgIDxyZGY6UkRGPiYjeGE7ICAgICAgPGNjOldvcmsgcmRmOmFib3V0PSIiPiYjeGE7ICAgICAgICA8ZGM6Zm9ybWF0PmltYWdlL3N2Zyt4bWw8L2RjOmZvcm1hdD4mI3hhOyAgICAgICAgPGRjOnR5cGUgcmRmOnJlc291cmNlPSJodHRwOi8vcHVybC5vcmcvZGMvZGNtaXR5cGUvU3RpbGxJbWFnZSIvPiYjeGE7ICAgICAgICA8ZGM6dGl0bGUvPiYjeGE7ICAgICAgPC9jYzpXb3JrPiYjeGE7ICAgIDwvcmRmOlJERj4mI3hhOyAgPC9tZXRhZGF0YT4mI3hhOyAgPGRlZnMgaWQ9ImRlZnMxMzQxIi8+JiN4YTsgIDxzb2RpcG9kaTpuYW1lZHZpZXcgcGFnZWNvbG9yPSIjZmZmZmZmIiBib3JkZXJjb2xvcj0iIzY2NjY2NiIgYm9yZGVyb3BhY2l0eT0iMSIgb2JqZWN0dG9sZXJhbmNlPSIxMCIgZ3JpZHRvbGVyYW5jZT0iMTAiIGd1aWRldG9sZXJhbmNlPSIxMCIgaW5rc2NhcGU6cGFnZW9wYWNpdHk9IjAiIGlua3NjYXBlOnBhZ2VzaGFkb3c9IjIiIGlua3NjYXBlOndpbmRvdy13aWR0aD0iNjQwIiBpbmtzY2FwZTp3aW5kb3ctaGVpZ2h0PSI0ODAiIGlkPSJuYW1lZHZpZXcxMzM5IiBzaG93Z3JpZD0iZmFsc2UiIGlua3NjYXBlOnpvb209IjYuMjYiIGlua3NjYXBlOmN4PSIyNSIgaW5rc2NhcGU6Y3k9IjI1IiBpbmtzY2FwZTp3aW5kb3cteD0iMCIgaW5rc2NhcGU6d2luZG93LXk9IjAiIGlua3NjYXBlOndpbmRvdy1tYXhpbWl6ZWQ9IjEiIGlua3NjYXBlOmN1cnJlbnQtbGF5ZXI9IkZ4U3ltYm9sMC0wNmQiLz4mI3hhOyAgPGcgaWQ9ImcxMzM2Ij4mI3hhOyAgICA8dGl0bGUgaWQ9InRpdGxlMTMyOCIvPiYjeGE7ICAgIDxwYXRoIGQ9Ik05LjggMzIuOGgzMXYzLjhoLTMxeiIgY2xhc3M9Im1zcG9ydGFsZngtc3ZnLWMyMCIgZmlsbD0iIzY4MjE3YSIgaWQ9InBhdGgxMzMwIi8+JiN4YTsgICAgPHBhdGggZD0iTTYuMTIgMzEuNDUybDE0Ljk5LTE0Ljk5IDIuNjg3IDIuNjg3LTE0Ljk5IDE0Ljk5em0yMi44NTktMTQuOTY2bDE0Ljk5IDE0Ljk5LTIuNjg2IDIuNjg3LTE0Ljk5MS0xNC45OXoiIGNsYXNzPSJtc3BvcnRhbGZ4LXN2Zy1jMjAiIGZpbGw9IiM2ODIxN2EiIGlkPSJwYXRoMTMzMiIvPiYjeGE7ICAgIDxwYXRoIGQ9Ik0yNSA5LjdjLTMuMSAwLTUuNiAyLjUtNS42IDUuNiAwIDMuMSAyLjUgNS42IDUuNiA1LjZzNS42LTIuNSA1LjYtNS42YzAtMy4xLTIuNS01LjYtNS42LTUuNnptMCA3LjRjLTEgMC0xLjgtLjgtMS44LTEuOHMuOC0xLjggMS44LTEuOCAxLjguOCAxLjggMS44LS44IDEuOC0xLjggMS44em0tMTkuNCAxMmMtMy4xIDAtNS42IDIuNS01LjYgNS42IDAgMy4xIDIuNSA1LjYgNS42IDUuNnM1LjYtMi41IDUuNi01LjZjMC0zLjEtMi41LTUuNi01LjYtNS42em0wIDcuNGMtMSAwLTEuOC0uOC0xLjgtMS44cy44LTEuOCAxLjgtMS44IDEuOC44IDEuOCAxLjgtLjggMS44LTEuOCAxLjh6bTM4LjgtNy40Yy0zLjEgMC01LjYgMi41LTUuNiA1LjYgMCAzLjEgMi41IDUuNiA1LjYgNS42czUuNi0yLjUgNS42LTUuNmMwLTMuMS0yLjUtNS42LTUuNi01LjZ6bTAgNy40Yy0xIDAtMS44LS44LTEuOC0xLjhzLjgtMS44IDEuOC0xLjggMS44LjggMS44IDEuOC0uOCAxLjgtMS44IDEuOHoiIGNsYXNzPSJtc3BvcnRhbGZ4LXN2Zy1jMTQiIGZpbGw9IiM3ZmJhMDAiIGlkPSJwYXRoMTMzNCIvPiYjeGE7ICA8L2c+JiN4YTs8L3N2Zz4=" parent="1" vertex="1">
                    <mxGeometry x="454.5" y="760" width="50" height="50" as="geometry"/>
                </mxCell>
                <mxCell id="w8AWbL9sRovNboO9tG6S-28" value="" style="endArrow=classic;startArrow=classic;html=1;entryX=0.75;entryY=1;entryDx=0;entryDy=0;exitX=0.25;exitY=0;exitDx=0;exitDy=0;" parent="1" source="RHqKMBRxgFxfujLm67wK-2" target="RHqKMBRxgFxfujLm67wK-14" edge="1">
                    <mxGeometry width="50" height="50" relative="1" as="geometry">
                        <mxPoint x="240" y="480" as="sourcePoint"/>
                        <mxPoint x="290" y="430" as="targetPoint"/>
                    </mxGeometry>
                </mxCell>
                <mxCell id="w8AWbL9sRovNboO9tG6S-29" value="Task" style="shape=ext;rounded=1;html=1;whiteSpace=wrap;" parent="1" vertex="1">
                    <mxGeometry x="552.5" y="190" width="230" height="120" as="geometry"/>
                </mxCell>
                <mxCell id="w8AWbL9sRovNboO9tG6S-30" value="" style="shape=image;verticalLabelPosition=bottom;verticalAlign=top;imageAspect=0;aspect=fixed;image=data:image/svg+xml,PHN2ZyB4bWxuczpkYz0iaHR0cDovL3B1cmwub3JnL2RjL2VsZW1lbnRzLzEuMS8iIHhtbG5zOmNjPSJodHRwOi8vY3JlYXRpdmVjb21tb25zLm9yZy9ucyMiIHhtbG5zOnJkZj0iaHR0cDovL3d3dy53My5vcmcvMTk5OS8wMi8yMi1yZGYtc3ludGF4LW5zIyIgeG1sbnM6c3ZnPSJodHRwOi8vd3d3LnczLm9yZy8yMDAwL3N2ZyIgeG1sbnM9Imh0dHA6Ly93d3cudzMub3JnLzIwMDAvc3ZnIiB4bWxuczpzb2RpcG9kaT0iaHR0cDovL3NvZGlwb2RpLnNvdXJjZWZvcmdlLm5ldC9EVEQvc29kaXBvZGktMC5kdGQiIHhtbG5zOmlua3NjYXBlPSJodHRwOi8vd3d3Lmlua3NjYXBlLm9yZy9uYW1lc3BhY2VzL2lua3NjYXBlIiB2ZXJzaW9uPSIxLjEiIGlkPSJMYXllcl8xIiB4PSIwcHgiIHk9IjBweCIgd2lkdGg9IjUwcHgiIGhlaWdodD0iNTBweCIgdmlld0JveD0iMCAwIDUwIDUwIiBlbmFibGUtYmFja2dyb3VuZD0ibmV3IDAgMCA1MCA1MCIgeG1sOnNwYWNlPSJwcmVzZXJ2ZSIgc29kaXBvZGk6ZG9jbmFtZT0iUmVzb3VyY2UgR3JvdXBzLnN2ZyIgaW5rc2NhcGU6dmVyc2lvbj0iMC45Mi4zICgyNDA1NTQ2LCAyMDE4LTAzLTExKSI+PG1ldGFkYXRhIGlkPSJtZXRhZGF0YTMzODAiPjxyZGY6UkRGPjxjYzpXb3JrIHJkZjphYm91dD0iIj48ZGM6Zm9ybWF0PmltYWdlL3N2Zyt4bWw8L2RjOmZvcm1hdD48ZGM6dHlwZSByZGY6cmVzb3VyY2U9Imh0dHA6Ly9wdXJsLm9yZy9kYy9kY21pdHlwZS9TdGlsbEltYWdlIi8+PGRjOnRpdGxlLz48L2NjOldvcms+PC9yZGY6UkRGPjwvbWV0YWRhdGE+PGRlZnMgaWQ9ImRlZnMzMzc4Ii8+PHNvZGlwb2RpOm5hbWVkdmlldyBwYWdlY29sb3I9IiNmZmZmZmYiIGJvcmRlcmNvbG9yPSIjNjY2NjY2IiBib3JkZXJvcGFjaXR5PSIxIiBvYmplY3R0b2xlcmFuY2U9IjEwIiBncmlkdG9sZXJhbmNlPSIxMCIgZ3VpZGV0b2xlcmFuY2U9IjEwIiBpbmtzY2FwZTpwYWdlb3BhY2l0eT0iMCIgaW5rc2NhcGU6cGFnZXNoYWRvdz0iMiIgaW5rc2NhcGU6d2luZG93LXdpZHRoPSIxNjAwIiBpbmtzY2FwZTp3aW5kb3ctaGVpZ2h0PSI4MzciIGlkPSJuYW1lZHZpZXczMzc2IiBzaG93Z3JpZD0iZmFsc2UiIGlua3NjYXBlOnpvb209IjYuMjYiIGlua3NjYXBlOmN4PSIyNSIgaW5rc2NhcGU6Y3k9IjI1IiBpbmtzY2FwZTp3aW5kb3cteD0iLTgiIGlua3NjYXBlOndpbmRvdy15PSItOCIgaW5rc2NhcGU6d2luZG93LW1heGltaXplZD0iMSIgaW5rc2NhcGU6Y3VycmVudC1sYXllcj0iTGF5ZXJfMSIvPiYjeGE7PHBhdGggZmlsbD0iIzM5OTlDNiIgZD0iTTI1LjA0NywyMi42NDdjLTAuMDc4LDAtMC4xNS0wLjAyMy0wLjIyLTAuMDY0bC0xNC43MTEtOC40OWMtMC4xNC0wLjA4LTAuMjIzLTAuMjI4LTAuMjIzLTAuMzg5ICBjMC0wLjE1NiwwLjA4My0wLjMwNCwwLjIyMy0wLjM4MmwxNC42MTYtOC40MzVjMC4xMzktMC4wNzcsMC4zMDktMC4wNzcsMC40NDIsMGwxNC43MTQsOC40OTVjMC4xMzMsMC4wNzgsMC4yMjEsMC4yMjQsMC4yMjEsMC4zODIgIGMwLDAuMTYzLTAuMDg4LDAuMzA4LTAuMjIxLDAuMzg3bC0xNC42MTksOC40MzNDMjUuMiwyMi42MjQsMjUuMTI2LDIyLjY0NywyNS4wNDcsMjIuNjQ3IiBpZD0icGF0aDMzNjMiLz4mI3hhOzxwYXRoIGZpbGw9IiM1OUI0RDkiIGQ9Ik0yMi45MzIsNDMuMjg0Yy0wLjA4LDAtMC4xNTgtMC4wMTktMC4yMjYtMC4wNTlMOC4wNDIsMzQuNzYxYy0wLjE0Mi0wLjA3OS0wLjIyNi0wLjIyNC0wLjIyNi0wLjM4NlYxNy4zOSAgYzAtMC4xNTksMC4wODQtMC4zMDUsMC4yMjYtMC4zODljMC4xMzQtMC4wNzcsMC4zMDYtMC4wNzcsMC40NDgsMGwxNC42NjIsOC40NjRjMC4xMzYsMC4wODIsMC4yMTgsMC4yMjgsMC4yMTgsMC4zODd2MTYuOTg3ICBjMCwwLjE2My0wLjA4MywwLjMwNS0wLjIxOCwwLjM4NkMyMy4wNzksNDMuMjY2LDIzLjAwNiw0My4yODQsMjIuOTMyLDQzLjI4NCIgaWQ9InBhdGgzMzY1Ii8+JiN4YTs8cGF0aCBmaWxsPSIjNTlCNEQ5IiBkPSJNMjcuMDgxLDQzLjI4NGMtMC4wNzUsMC0wLjE1Mi0wLjAxOS0wLjIyNi0wLjA1OWMtMC4xMzYtMC4wODEtMC4yMi0wLjIyMy0wLjIyLTAuMzg2VjI1Ljk2MiAgYzAtMC4xNTksMC4wODQtMC4zMDUsMC4yMi0wLjM4N2wxNC42Ni04LjQ2MWMwLjE0Mi0wLjA3OCwwLjMwOC0wLjA3OCwwLjQ0OCwwYzAuMTM0LDAuMDgsMC4yMiwwLjIyNywwLjIyLDAuMzg1djE2Ljg3NyAgYzAsMC4xNjItMC4wODUsMC4zMDYtMC4yMiwwLjM4NmwtMTQuNjY1LDguNDY0QzI3LjIzNyw0My4yNjYsMjcuMTU4LDQzLjI4NCwyNy4wODEsNDMuMjg0IiBpZD0icGF0aDMzNjciLz4mI3hhOzxwYXRoIG9wYWNpdHk9IjAuNSIgZmlsbD0iI0ZGRkZGRiIgZD0iTTI3LjA4MSw0My4yODRjLTAuMDc1LDAtMC4xNTItMC4wMTktMC4yMjYtMC4wNTljLTAuMTM2LTAuMDgxLTAuMjItMC4yMjMtMC4yMi0wLjM4NlYyNS45NjIgIGMwLTAuMTU5LDAuMDg0LTAuMzA1LDAuMjItMC4zODdsMTQuNjYtOC40NjFjMC4xNDItMC4wNzgsMC4zMDgtMC4wNzgsMC40NDgsMGMwLjEzNCwwLjA4LDAuMjIsMC4yMjcsMC4yMiwwLjM4NXYxNi44NzcgIGMwLDAuMTYyLTAuMDg1LDAuMzA2LTAuMjIsMC4zODZsLTE0LjY2NSw4LjQ2NEMyNy4yMzcsNDMuMjY2LDI3LjE1OCw0My4yODQsMjcuMDgxLDQzLjI4NCIgaWQ9InBhdGgzMzY5Ii8+JiN4YTs8cGF0aCBmaWxsPSIjN0E3QTdBIiBkPSJNOS41NTgsNDUuMTcxYy0wLjI0NywwLTAuNDk3LTAuMDYzLTAuNzI2LTAuMTk1bC02Ljg0NS0zLjk1MkMwLjgzNSw0MC4zNTgsMCwzOC45MTEsMCwzNy41ODJWMTIuNDE4ICBjMC0xLjMyOSwwLjgzNS0yLjc3NywxLjk4Ny0zLjQ0MWw2Ljg0NS0zLjk1MmMwLjY5Ny0wLjQwMSwxLjU4Ni0wLjE2MywxLjk4NywwLjUzMmMwLjQwMiwwLjY5NiwwLjE2MywxLjU4NS0wLjUzMiwxLjk4NyAgbC02Ljg0NSwzLjk1MmMtMC4yNDMsMC4xNDEtMC41MzIsMC42NDEtMC41MzIsMC45MjJ2MjUuMTY0YzAsMC4yODEsMC4yODksMC43ODIsMC41MzIsMC45MjJsNi44NDUsMy45NTIgIGMwLjY5NiwwLjQwMiwwLjkzNCwxLjI5MSwwLjUzMiwxLjk4N0MxMC41NSw0NC45MSwxMC4wNjEsNDUuMTcxLDkuNTU4LDQ1LjE3MXoiIGlkPSJwYXRoMzM3MSIvPiYjeGE7PHBhdGggZmlsbD0iIzdBN0E3QSIgZD0iTTQwLjQ0Miw0LjgyOWMwLjI0NywwLDAuNDk3LDAuMDYzLDAuNzI2LDAuMTk1bDYuODQ1LDMuOTUyQzQ5LjE2NSw5LjY0Miw1MCwxMS4wODksNTAsMTIuNDE4djI1LjE2NCAgYzAsMS4zMjktMC44MzUsMi43NzctMS45ODcsMy40NDFsLTYuODQ1LDMuOTUyYy0wLjY5NywwLjQwMS0xLjU4NiwwLjE2My0xLjk4Ny0wLjUzMmMtMC40MDItMC42OTYtMC4xNjMtMS41ODUsMC41MzItMS45ODcgIGw2Ljg0NS0zLjk1MmMwLjI0My0wLjE0MSwwLjUzMi0wLjY0MSwwLjUzMi0wLjkyMlYxMi40MThjMC0wLjI4MS0wLjI4OS0wLjc4Mi0wLjUzMi0wLjkyMmwtNi44NDUtMy45NTIgIGMtMC42OTYtMC40MDItMC45MzQtMS4yOTEtMC41MzItMS45ODdDMzkuNDUsNS4wOSwzOS45MzksNC44MjksNDAuNDQyLDQuODI5eiIgaWQ9InBhdGgzMzczIi8+JiN4YTs8L3N2Zz4=" parent="1" vertex="1">
                    <mxGeometry x="782.5" y="310" width="50" height="50" as="geometry"/>
                </mxCell>
                <mxCell id="w8AWbL9sRovNboO9tG6S-31" value="" style="shape=image;verticalLabelPosition=bottom;verticalAlign=top;imageAspect=0;aspect=fixed;image=data:image/svg+xml,PHN2ZyB4bWxuczpkYz0iaHR0cDovL3B1cmwub3JnL2RjL2VsZW1lbnRzLzEuMS8iIHhtbG5zOmNjPSJodHRwOi8vY3JlYXRpdmVjb21tb25zLm9yZy9ucyMiIHhtbG5zOnJkZj0iaHR0cDovL3d3dy53My5vcmcvMTk5OS8wMi8yMi1yZGYtc3ludGF4LW5zIyIgeG1sbnM6c3ZnPSJodHRwOi8vd3d3LnczLm9yZy8yMDAwL3N2ZyIgeG1sbnM9Imh0dHA6Ly93d3cudzMub3JnLzIwMDAvc3ZnIiB4bWxuczpzb2RpcG9kaT0iaHR0cDovL3NvZGlwb2RpLnNvdXJjZWZvcmdlLm5ldC9EVEQvc29kaXBvZGktMC5kdGQiIHhtbG5zOmlua3NjYXBlPSJodHRwOi8vd3d3Lmlua3NjYXBlLm9yZy9uYW1lc3BhY2VzL2lua3NjYXBlIiB2ZXJzaW9uPSIxLjEiIGlkPSJMYXllcl8xIiB4PSIwcHgiIHk9IjBweCIgaGVpZ2h0PSI1MHB4IiB3aWR0aD0iNTBweCIgdmlld0JveD0iMCAwIDUwIDUwIiBlbmFibGUtYmFja2dyb3VuZD0ibmV3IDAgMCA1MCA1MCIgeG1sOnNwYWNlPSJwcmVzZXJ2ZSIgc29kaXBvZGk6ZG9jbmFtZT0iVmlydHVhbCBOZXR3b3Jrcy5zdmciIGlua3NjYXBlOnZlcnNpb249IjAuOTIuMyAoMjQwNTU0NiwgMjAxOC0wMy0xMSkiPjxtZXRhZGF0YSBpZD0ibWV0YWRhdGEzMTQ3Ij48cmRmOlJERj48Y2M6V29yayByZGY6YWJvdXQ9IiI+PGRjOmZvcm1hdD5pbWFnZS9zdmcreG1sPC9kYzpmb3JtYXQ+PGRjOnR5cGUgcmRmOnJlc291cmNlPSJodHRwOi8vcHVybC5vcmcvZGMvZGNtaXR5cGUvU3RpbGxJbWFnZSIvPjxkYzp0aXRsZS8+PC9jYzpXb3JrPjwvcmRmOlJERj48L21ldGFkYXRhPjxkZWZzIGlkPSJkZWZzMzE0NSIvPjxzb2RpcG9kaTpuYW1lZHZpZXcgcGFnZWNvbG9yPSIjZmZmZmZmIiBib3JkZXJjb2xvcj0iIzY2NjY2NiIgYm9yZGVyb3BhY2l0eT0iMSIgb2JqZWN0dG9sZXJhbmNlPSIxMCIgZ3JpZHRvbGVyYW5jZT0iMTAiIGd1aWRldG9sZXJhbmNlPSIxMCIgaW5rc2NhcGU6cGFnZW9wYWNpdHk9IjAiIGlua3NjYXBlOnBhZ2VzaGFkb3c9IjIiIGlua3NjYXBlOndpbmRvdy13aWR0aD0iNjQwIiBpbmtzY2FwZTp3aW5kb3ctaGVpZ2h0PSI0ODAiIGlkPSJuYW1lZHZpZXczMTQzIiBzaG93Z3JpZD0iZmFsc2UiIGlua3NjYXBlOnpvb209IjYuMjYiIGlua3NjYXBlOmN4PSIyNSIgaW5rc2NhcGU6Y3k9IjI1IiBpbmtzY2FwZTp3aW5kb3cteD0iMCIgaW5rc2NhcGU6d2luZG93LXk9IjAiIGlua3NjYXBlOndpbmRvdy1tYXhpbWl6ZWQ9IjEiIGlua3NjYXBlOmN1cnJlbnQtbGF5ZXI9IkxheWVyXzEiLz4mI3hhOzxwYXRoIGZpbGw9IiMzOTk5QzYiIGQ9Ik00OS43LDI1LjdjMC41LTAuNSwwLjQtMS4zLDAtMS44bC0yLjQtMi40TDM2LjUsMTFjLTAuNS0wLjUtMS4yLTAuNS0xLjcsMGwwLDBjLTAuNSwwLjUtMC42LDEuMywwLDEuOCAgbDExLjMsMTEuMWMwLjUsMC41LDAuNSwxLjMsMCwxLjhMMzQuNiwzNy4yYy0wLjUsMC41LTAuNSwxLjMsMCwxLjhsMCwwYzAuNSwwLjUsMS4zLDAuNCwxLjcsMGwxMC43LTEwLjZjMCwwLDAsMCwwLjEtMC4xTDQ5LjcsMjUuNyAgeiIgaWQ9InBhdGgzMTMyIi8+JiN4YTs8cGF0aCBmaWxsPSIjMzk5OUM2IiBkPSJNMC4zLDI1LjdjLTAuNS0wLjUtMC40LTEuMywwLTEuOGwyLjQtMi40TDEzLjUsMTFjMC41LTAuNSwxLjItMC41LDEuNywwbDAsMGMwLjUsMC41LDAuNiwxLjMsMCwxLjggIEw0LjEsMjMuOWMtMC41LDAuNS0wLjUsMS4zLDAsMS44bDExLjMsMTEuNWMwLjUsMC41LDAuNSwxLjMsMCwxLjhsMCwwYy0wLjUsMC41LTEuMywwLjQtMS43LDBMMi44LDI4LjVjMCwwLDAsMC0wLjEtMC4xTDAuMywyNS43eiIgaWQ9InBhdGgzMTM0Ii8+JiN4YTs8cGF0aCBmaWxsPSIjN0ZCQTAwIiBkPSJNMTguMiwyNC44YzAsMS45LTEuNiwzLjMtMy4zLDMuM3MtMy41LTEuNi0zLjUtMy4zczEuNC0zLjMsMy41LTMuM0MxNi45LDIxLjUsMTguMiwyMy4xLDE4LjIsMjQuOHoiIGlkPSJwYXRoMzEzNiIvPiYjeGE7PHBhdGggZmlsbD0iIzdGQkEwMCIgZD0iTTI4LjMsMjQuOGMwLDEuOS0xLjYsMy4zLTMuMywzLjNzLTMuNS0xLjYtMy41LTMuM3MxLjYtMy4zLDMuNS0zLjNTMjguMywyMy4xLDI4LjMsMjQuOHoiIGlkPSJwYXRoMzEzOCIvPiYjeGE7PGNpcmNsZSBmaWxsPSIjN0ZCQTAwIiBjeD0iMzUuMiIgY3k9IjI0LjgiIHI9IjMuMyIgaWQ9ImNpcmNsZTMxNDAiLz4mI3hhOzwvc3ZnPg==" parent="1" vertex="1">
                    <mxGeometry x="720" y="280" width="50" height="50" as="geometry"/>
                </mxCell>
                <mxCell id="w8AWbL9sRovNboO9tG6S-32" value="" style="shape=image;verticalLabelPosition=bottom;verticalAlign=top;imageAspect=0;aspect=fixed;image=data:image/svg+xml,PHN2ZyB4bWxuczpkYz0iaHR0cDovL3B1cmwub3JnL2RjL2VsZW1lbnRzLzEuMS8iIHhtbG5zOmNjPSJodHRwOi8vY3JlYXRpdmVjb21tb25zLm9yZy9ucyMiIHhtbG5zOnJkZj0iaHR0cDovL3d3dy53My5vcmcvMTk5OS8wMi8yMi1yZGYtc3ludGF4LW5zIyIgeG1sbnM6c3ZnPSJodHRwOi8vd3d3LnczLm9yZy8yMDAwL3N2ZyIgeG1sbnM9Imh0dHA6Ly93d3cudzMub3JnLzIwMDAvc3ZnIiB4bWxuczpzb2RpcG9kaT0iaHR0cDovL3NvZGlwb2RpLnNvdXJjZWZvcmdlLm5ldC9EVEQvc29kaXBvZGktMC5kdGQiIHhtbG5zOmlua3NjYXBlPSJodHRwOi8vd3d3Lmlua3NjYXBlLm9yZy9uYW1lc3BhY2VzL2lua3NjYXBlIiB2ZXJzaW9uPSIxLjEiIGlkPSJMYXllcl8xIiB4PSIwcHgiIHk9IjBweCIgaGVpZ2h0PSI1MHB4IiB3aWR0aD0iNTBweCIgdmlld0JveD0iMCAwIDUwIDUwIiB4bWw6c3BhY2U9InByZXNlcnZlIiBzb2RpcG9kaTpkb2NuYW1lPSJEaXNrcy5zdmciIGlua3NjYXBlOnZlcnNpb249IjAuOTIuMyAoMjQwNTU0NiwgMjAxOC0wMy0xMSkiPjxtZXRhZGF0YSBpZD0ibWV0YWRhdGE5OTQiPjxyZGY6UkRGPjxjYzpXb3JrIHJkZjphYm91dD0iIj48ZGM6Zm9ybWF0PmltYWdlL3N2Zyt4bWw8L2RjOmZvcm1hdD48ZGM6dHlwZSByZGY6cmVzb3VyY2U9Imh0dHA6Ly9wdXJsLm9yZy9kYy9kY21pdHlwZS9TdGlsbEltYWdlIi8+PGRjOnRpdGxlLz48L2NjOldvcms+PC9yZGY6UkRGPjwvbWV0YWRhdGE+PGRlZnMgaWQ9ImRlZnM5OTIiLz48c29kaXBvZGk6bmFtZWR2aWV3IHBhZ2Vjb2xvcj0iI2ZmZmZmZiIgYm9yZGVyY29sb3I9IiM2NjY2NjYiIGJvcmRlcm9wYWNpdHk9IjEiIG9iamVjdHRvbGVyYW5jZT0iMTAiIGdyaWR0b2xlcmFuY2U9IjEwIiBndWlkZXRvbGVyYW5jZT0iMTAiIGlua3NjYXBlOnBhZ2VvcGFjaXR5PSIwIiBpbmtzY2FwZTpwYWdlc2hhZG93PSIyIiBpbmtzY2FwZTp3aW5kb3ctd2lkdGg9IjY0MCIgaW5rc2NhcGU6d2luZG93LWhlaWdodD0iNDgwIiBpZD0ibmFtZWR2aWV3OTkwIiBzaG93Z3JpZD0iZmFsc2UiIGlua3NjYXBlOnpvb209IjYuMjYiIGlua3NjYXBlOmN4PSIyNSIgaW5rc2NhcGU6Y3k9IjI1IiBpbmtzY2FwZTp3aW5kb3cteD0iMCIgaW5rc2NhcGU6d2luZG93LXk9IjAiIGlua3NjYXBlOndpbmRvdy1tYXhpbWl6ZWQ9IjEiIGlua3NjYXBlOmN1cnJlbnQtbGF5ZXI9IkxheWVyXzEiLz4mI3hhOzxwYXRoIGZpbGw9IiM3RkJBMDAiIGQ9Ik01MCwzNy4xOThjMCw1LjAwMS0xMS4xOTQsOS4wNTQtMjUsOS4wNTRTMCw0Mi4xOTksMCwzNy4xOTh2LTQuODhoNTBWMzcuMTk4eiIgaWQ9InBhdGg5NjkiLz4mI3hhOzxwYXRoIGZpbGw9IiNCOEQ0MzIiIGQ9Ik01MCwzMi4zMThjMCw1LjAwMS0xMS4xOTQsOS4wNTQtMjUsOS4wNTRTMCwzNy4zMTksMCwzMi4zMThjMC01LDExLjE5My05LjA1NCwyNS05LjA1NFM1MCwyNy4zMTgsNTAsMzIuMzE4ICAiIGlkPSJwYXRoOTcxIi8+JiN4YTs8cGF0aCBmaWxsPSIjN0ZCQTAwIiBkPSJNMzMuMDEzLDMxLjc5N2MwLDEuMzMtMy41ODgsMi40MDctOC4wMTQsMi40MDdzLTguMDE1LTEuMDc3LTguMDE1LTIuNDA3czMuNTg5LTIuNDA3LDguMDE1LTIuNDA3ICBTMzMuMDEzLDMwLjQ2OCwzMy4wMTMsMzEuNzk3IiBpZD0icGF0aDk3MyIvPiYjeGE7PHBhdGggb3BhY2l0eT0iMC4yNSIgZmlsbD0iI0ZGRkZGRiIgZD0iTTQzLjA3MSwyNi4xMTVjLTMuNTAyLTEuMzI3LTguMTA0LTIuMjY5LTEzLjI3OS0yLjYzM2wtMy4yNDQsNi4wMDQgIGMxLjU5NiwwLjA5NCwzLjAyMywwLjMyOSw0LjEyNywwLjY2Mkw0My4wNzEsMjYuMTE1eiIgaWQ9InBhdGg5NzUiLz4mI3hhOzxwYXRoIG9wYWNpdHk9IjAuMjUiIGZpbGw9IiNGRkZGRkYiIGQ9Ik01LjkwMiwzOC4yMDhjMy42MDEsMS41NDMsOC41OTgsMi42NDMsMTQuMjg4LDMuMDQ1bDMuNzkzLTcuMDIgIGMtMS41NzktMC4wNi0zLjAxNC0wLjI1Ny00LjE2OC0wLjU1Mkw1LjkwMiwzOC4yMDh6IiBpZD0icGF0aDk3NyIvPiYjeGE7PHBhdGggZmlsbD0iIzAwNzJDNiIgZD0iTTUwLDE3LjY4MmMwLDUuMDAxLTExLjE5NCw5LjA1NC0yNSw5LjA1NFMwLDIyLjY4MiwwLDE3LjY4MnYtNC44OGg1MFYxNy42ODJ6IiBpZD0icGF0aDk3OSIvPiYjeGE7PHBhdGggZmlsbD0iIzU5QjREOSIgZD0iTTUwLDEyLjgwMmMwLDUuMDAxLTExLjE5NCw5LjA1NC0yNSw5LjA1NFMwLDE3LjgwMiwwLDEyLjgwMnMxMS4xOTMtOS4wNTQsMjUtOS4wNTRTNTAsNy44MDEsNTAsMTIuODAyIiBpZD0icGF0aDk4MSIvPiYjeGE7PHBhdGggZmlsbD0iIzAwNzJDNiIgZD0iTTMzLjAxMywxMi4yODFjMCwxLjMzLTMuNTg4LDIuNDA3LTguMDE0LDIuNDA3cy04LjAxNS0xLjA3Ny04LjAxNS0yLjQwN3MzLjU4OS0yLjQwNyw4LjAxNS0yLjQwNyAgUzMzLjAxMywxMC45NTEsMzMuMDEzLDEyLjI4MSIgaWQ9InBhdGg5ODMiLz4mI3hhOzxwYXRoIG9wYWNpdHk9IjAuMjUiIGZpbGw9IiNGRkZGRkYiIGQ9Ik00My4wNzEsNi41NDljLTMuNTAyLTEuMzI3LTguMTA0LTIuMjY5LTEzLjI3OS0yLjYzM0wyNi41NDgsOS45MiAgYzEuNTk2LDAuMDk0LDMuMDIzLDAuMzI5LDQuMTI3LDAuNjYyTDQzLjA3MSw2LjU0OXoiIGlkPSJwYXRoOTg1Ii8+JiN4YTs8cGF0aCBvcGFjaXR5PSIwLjI1IiBmaWxsPSIjRkZGRkZGIiBkPSJNNS45MDIsMTguNjQyYzMuNjAxLDEuNTQzLDguNTk4LDIuNjQzLDE0LjI4OCwzLjA0NWwzLjc5My03LjAyICBjLTEuNTc5LTAuMDYtMy4wMTQtMC4yNTctNC4xNjgtMC41NTJMNS45MDIsMTguNjQyeiIgaWQ9InBhdGg5ODciLz4mI3hhOzwvc3ZnPg==" parent="1" vertex="1">
                    <mxGeometry x="692.5" y="225" width="50" height="50" as="geometry"/>
                </mxCell>
                <mxCell id="w8AWbL9sRovNboO9tG6S-33" value="" style="shape=image;verticalLabelPosition=bottom;verticalAlign=top;imageAspect=0;aspect=fixed;image=data:image/svg+xml,PHN2ZyB4bWxuczpkYz0iaHR0cDovL3B1cmwub3JnL2RjL2VsZW1lbnRzLzEuMS8iIHhtbG5zOmNjPSJodHRwOi8vY3JlYXRpdmVjb21tb25zLm9yZy9ucyMiIHhtbG5zOnJkZj0iaHR0cDovL3d3dy53My5vcmcvMTk5OS8wMi8yMi1yZGYtc3ludGF4LW5zIyIgeG1sbnM6c3ZnPSJodHRwOi8vd3d3LnczLm9yZy8yMDAwL3N2ZyIgeG1sbnM9Imh0dHA6Ly93d3cudzMub3JnLzIwMDAvc3ZnIiB4bWxuczpzb2RpcG9kaT0iaHR0cDovL3NvZGlwb2RpLnNvdXJjZWZvcmdlLm5ldC9EVEQvc29kaXBvZGktMC5kdGQiIHhtbG5zOmlua3NjYXBlPSJodHRwOi8vd3d3Lmlua3NjYXBlLm9yZy9uYW1lc3BhY2VzL2lua3NjYXBlIiB2aWV3Qm94PSIwIDAgNTAgNTAiIGNsYXNzPSJmeHMtcG9ydGFsLXN2ZyIgcm9sZT0icHJlc2VudGF0aW9uIiBmb2N1c2FibGU9ImZhbHNlIiBpZD0iRnhTeW1ib2wwLTA2ZiIgdmVyc2lvbj0iMS4xIiBzb2RpcG9kaTpkb2NuYW1lPSJOZXR3b3JrIFNlY3VyaXR5IEdyb3VwcyAoQ2xhc3NpYykuc3ZnIiBpbmtzY2FwZTp2ZXJzaW9uPSIwLjkyLjMgKDI0MDU1NDYsIDIwMTgtMDMtMTEpIj4mI3hhOyAgPG1ldGFkYXRhIGlkPSJtZXRhZGF0YTIxMzEiPiYjeGE7ICAgIDxyZGY6UkRGPiYjeGE7ICAgICAgPGNjOldvcmsgcmRmOmFib3V0PSIiPiYjeGE7ICAgICAgICA8ZGM6Zm9ybWF0PmltYWdlL3N2Zyt4bWw8L2RjOmZvcm1hdD4mI3hhOyAgICAgICAgPGRjOnR5cGUgcmRmOnJlc291cmNlPSJodHRwOi8vcHVybC5vcmcvZGMvZGNtaXR5cGUvU3RpbGxJbWFnZSIvPiYjeGE7ICAgICAgICA8ZGM6dGl0bGUvPiYjeGE7ICAgICAgPC9jYzpXb3JrPiYjeGE7ICAgIDwvcmRmOlJERj4mI3hhOyAgPC9tZXRhZGF0YT4mI3hhOyAgPGRlZnMgaWQ9ImRlZnMyMTI5Ii8+JiN4YTsgIDxzb2RpcG9kaTpuYW1lZHZpZXcgcGFnZWNvbG9yPSIjZmZmZmZmIiBib3JkZXJjb2xvcj0iIzY2NjY2NiIgYm9yZGVyb3BhY2l0eT0iMSIgb2JqZWN0dG9sZXJhbmNlPSIxMCIgZ3JpZHRvbGVyYW5jZT0iMTAiIGd1aWRldG9sZXJhbmNlPSIxMCIgaW5rc2NhcGU6cGFnZW9wYWNpdHk9IjAiIGlua3NjYXBlOnBhZ2VzaGFkb3c9IjIiIGlua3NjYXBlOndpbmRvdy13aWR0aD0iNjQwIiBpbmtzY2FwZTp3aW5kb3ctaGVpZ2h0PSI0ODAiIGlkPSJuYW1lZHZpZXcyMTI3IiBzaG93Z3JpZD0iZmFsc2UiIGlua3NjYXBlOnpvb209IjYuMjYiIGlua3NjYXBlOmN4PSIyNSIgaW5rc2NhcGU6Y3k9IjI1IiBpbmtzY2FwZTp3aW5kb3cteD0iMCIgaW5rc2NhcGU6d2luZG93LXk9IjAiIGlua3NjYXBlOndpbmRvdy1tYXhpbWl6ZWQ9IjEiIGlua3NjYXBlOmN1cnJlbnQtbGF5ZXI9IkZ4U3ltYm9sMC0wNmYiLz4mI3hhOyAgPGcgaWQ9ImcyMTI0Ij4mI3hhOyAgICA8dGl0bGUgaWQ9InRpdGxlMjExMCIvPiYjeGE7ICAgIDxwYXRoIGQ9Ik0zOC4yIDZjLTExLTEuMi0xMi45LTYtMTIuOS02UzIyLjggNi4yIDcgNi4ydjI1LjZjMCAzLjEgMS43IDYgNC4xIDguNSA1LjQgNS43IDE0LjIgOS42IDE0LjIgOS42czE4LjMtOCAxOC4zLTE4LjFWNi4yYy0yIDAtMy44LS4xLTUuNC0uMnoiIGNsYXNzPSJtc3BvcnRhbGZ4LXN2Zy1jMTkiIGZpbGw9IiMwMDcyYzYiIGlkPSJwYXRoMjExMiIvPiYjeGE7ICAgIDxwYXRoIG9wYWNpdHk9Ii40IiBkPSJNMjkuOSAxNi41TDM4LjIgNmMtMTEtMS4yLTEyLjktNi0xMi45LTZTMjIuOCA2LjIgNyA2LjJ2MjUuNmMwIDMuMSAxLjcgNiA0LjEgOC41bDYuMi03LjggMTIuNi0xNnoiIGNsYXNzPSJtc3BvcnRhbGZ4LXN2Zy1jMTYiIGZpbGw9IiMzOTk5YzYiIGlkPSJwYXRoMjExNCIvPiYjeGE7ICAgIDxnIGNsYXNzPSJtc3BvcnRhbGZ4LXN2Zy1jMDEiIGZpbGw9IiNmZmZmZmYiIGlkPSJnMjEyMiI+JiN4YTsgICAgICA8cGF0aCBvcGFjaXR5PSIuMyIgZD0iTTEwLjggMjQuNHY2LjFjMCAyLjUgMS40IDQuOCAzLjMgNi44IDQuMyA0LjYgMTEuMyA3LjYgMTEuMyA3LjZWMjQuNEgxMC44eiIgaWQ9InBhdGgyMTE2Ii8+JiN4YTsgICAgICA8cGF0aCBvcGFjaXR5PSIuNyIgZD0iTTI1LjMgNDQuOXMxNC42LTYuNCAxNC42LTE0LjR2LTYuMUgyNS4zdjIwLjV6bTAtMzkuOHMtMiA1LTE0LjYgNXYxNC4zaDE0LjZWNS4xeiIgaWQ9InBhdGgyMTE4Ii8+JiN4YTsgICAgICA8cGF0aCBvcGFjaXR5PSIuMyIgZD0iTTM1LjUgOS45Yy04LjctMS0xMC4yLTQuNy0xMC4yLTQuN3YxOS4yaDE0LjZWMTAuMWMtMS42IDAtMy4xLS4xLTQuNC0uMnoiIGlkPSJwYXRoMjEyMCIvPiYjeGE7ICAgIDwvZz4mI3hhOyAgPC9nPiYjeGE7PC9zdmc+" parent="1" vertex="1">
                    <mxGeometry x="632.5" y="290" width="50" height="50" as="geometry"/>
                </mxCell>
                <mxCell id="w8AWbL9sRovNboO9tG6S-34" value="Show VM" style="text;html=1;strokeColor=none;fillColor=none;align=center;verticalAlign=middle;whiteSpace=wrap;rounded=0;" parent="1" vertex="1">
                    <mxGeometry x="637.5" y="200" width="40" height="25" as="geometry"/>
                </mxCell>
                <mxCell id="w8AWbL9sRovNboO9tG6S-35" value="Show VM" style="text;html=1;strokeColor=none;fillColor=none;align=center;verticalAlign=middle;whiteSpace=wrap;rounded=0;" parent="1" vertex="1">
                    <mxGeometry x="697.5" y="205" width="40" height="20" as="geometry"/>
                </mxCell>
                <mxCell id="w8AWbL9sRovNboO9tG6S-36" value="VNet" style="text;html=1;strokeColor=none;fillColor=none;align=center;verticalAlign=middle;whiteSpace=wrap;rounded=0;" parent="1" vertex="1">
                    <mxGeometry x="725" y="325" width="40" height="20" as="geometry"/>
                </mxCell>
                <mxCell id="w8AWbL9sRovNboO9tG6S-37" value="NSG" style="text;html=1;strokeColor=none;fillColor=none;align=center;verticalAlign=middle;whiteSpace=wrap;rounded=0;" parent="1" vertex="1">
                    <mxGeometry x="637.5" y="340" width="40" height="20" as="geometry"/>
                </mxCell>
                <mxCell id="w8AWbL9sRovNboO9tG6S-38" value="Show RG" style="text;html=1;strokeColor=none;fillColor=none;align=center;verticalAlign=middle;whiteSpace=wrap;rounded=0;" parent="1" vertex="1">
                    <mxGeometry x="787.5" y="370" width="40" height="10" as="geometry"/>
                </mxCell>
                <mxCell id="w8AWbL9sRovNboO9tG6S-39" value="" style="shape=image;verticalLabelPosition=bottom;verticalAlign=top;imageAspect=0;aspect=fixed;image=data:image/svg+xml,PHN2ZyB4bWxuczpkYz0iaHR0cDovL3B1cmwub3JnL2RjL2VsZW1lbnRzLzEuMS8iIHhtbG5zOmNjPSJodHRwOi8vY3JlYXRpdmVjb21tb25zLm9yZy9ucyMiIHhtbG5zOnJkZj0iaHR0cDovL3d3dy53My5vcmcvMTk5OS8wMi8yMi1yZGYtc3ludGF4LW5zIyIgeG1sbnM6c3ZnPSJodHRwOi8vd3d3LnczLm9yZy8yMDAwL3N2ZyIgeG1sbnM9Imh0dHA6Ly93d3cudzMub3JnLzIwMDAvc3ZnIiB4bWxuczpzb2RpcG9kaT0iaHR0cDovL3NvZGlwb2RpLnNvdXJjZWZvcmdlLm5ldC9EVEQvc29kaXBvZGktMC5kdGQiIHhtbG5zOmlua3NjYXBlPSJodHRwOi8vd3d3Lmlua3NjYXBlLm9yZy9uYW1lc3BhY2VzL2lua3NjYXBlIiB2ZXJzaW9uPSIxLjEiIGlkPSJMYXllcl8xIiB4PSIwcHgiIHk9IjBweCIgd2lkdGg9IjUwcHgiIGhlaWdodD0iNTBweCIgdmlld0JveD0iMCAwIDUwIDUwIiBlbmFibGUtYmFja2dyb3VuZD0ibmV3IDAgMCA1MCA1MCIgeG1sOnNwYWNlPSJwcmVzZXJ2ZSIgc29kaXBvZGk6ZG9jbmFtZT0iVk0gU2NhbGUgU2V0cy5zdmciIGlua3NjYXBlOnZlcnNpb249IjAuOTIuMyAoMjQwNTU0NiwgMjAxOC0wMy0xMSkiPjxtZXRhZGF0YSBpZD0ibWV0YWRhdGExNTk0Ij48cmRmOlJERj48Y2M6V29yayByZGY6YWJvdXQ9IiI+PGRjOmZvcm1hdD5pbWFnZS9zdmcreG1sPC9kYzpmb3JtYXQ+PGRjOnR5cGUgcmRmOnJlc291cmNlPSJodHRwOi8vcHVybC5vcmcvZGMvZGNtaXR5cGUvU3RpbGxJbWFnZSIvPjxkYzp0aXRsZS8+PC9jYzpXb3JrPjwvcmRmOlJERj48L21ldGFkYXRhPjxkZWZzIGlkPSJkZWZzMTU5MiIvPjxzb2RpcG9kaTpuYW1lZHZpZXcgcGFnZWNvbG9yPSIjZmZmZmZmIiBib3JkZXJjb2xvcj0iIzY2NjY2NiIgYm9yZGVyb3BhY2l0eT0iMSIgb2JqZWN0dG9sZXJhbmNlPSIxMCIgZ3JpZHRvbGVyYW5jZT0iMTAiIGd1aWRldG9sZXJhbmNlPSIxMCIgaW5rc2NhcGU6cGFnZW9wYWNpdHk9IjAiIGlua3NjYXBlOnBhZ2VzaGFkb3c9IjIiIGlua3NjYXBlOndpbmRvdy13aWR0aD0iNjQwIiBpbmtzY2FwZTp3aW5kb3ctaGVpZ2h0PSI0ODAiIGlkPSJuYW1lZHZpZXcxNTkwIiBzaG93Z3JpZD0iZmFsc2UiIGlua3NjYXBlOnpvb209IjYuMjYiIGlua3NjYXBlOmN4PSIyNSIgaW5rc2NhcGU6Y3k9IjI1IiBpbmtzY2FwZTp3aW5kb3cteD0iMCIgaW5rc2NhcGU6d2luZG93LXk9IjAiIGlua3NjYXBlOndpbmRvdy1tYXhpbWl6ZWQ9IjEiIGlua3NjYXBlOmN1cnJlbnQtbGF5ZXI9IkxheWVyXzEiLz4mI3hhOzxwYXRoIGZpbGw9IiNBMEExQTIiIGQ9Ik0zNS43MjMsMEgyLjA2NkMwLjkyMywwLDAuMDAxLDEuMDIxLDAuMDAxLDIuMTYydjIzLjQzOWMwLDEuMTM0LDAuOTIyLDIuMTQ0LDIuMDY2LDIuMTQ0aDMzLjY1NiAgYzEuMTQxLDAsMi4yOTctMS4wMSwyLjI5Ny0yLjE0NFYyLjE2MkMzOC4wMiwxLjAxOCwzNi44NjQsMCwzNS43MjMsMCIgaWQ9InBhdGgxNTUxIi8+JiN4YTs8cGF0aCBvcGFjaXR5PSIwLjIiIGZpbGw9IiNGRkZGRkYiIGQ9Ik0zNS43NDYsMC4wMDJjLTAuMDA4LDAtMC4wMTYtMC4wMDItMC4wMjQtMC4wMDJIMi4wNjZDMC45MjIsMC4wMDEsMCwxLjAyMSwwLDIuMTYzdjIzLjQzOCAgYzAsMS4xMzQsMC45MjIsMi4xNDQsMi4wNjYsMi4xNDRoMC44MDFMMzUuNzQ2LDAuMDAyeiIgaWQ9InBhdGgxNTUzIi8+JiN4YTs8cG9seWdvbiBmaWxsPSIjNTlCNEQ5IiBwb2ludHM9IjM1LjEyOSwyNC44MjMgMi44ODIsMjQuODIzIDIuODgyLDIuOTIyIDM1LjEyOSwyLjg3NSAiIGlkPSJwb2x5Z29uMTU1NSIvPiYjeGE7PHBhdGggZmlsbD0iI0I4RDQzMiIgZD0iTTE5LjQwNCwxLjU5MWMwLDAuMjk4LTAuMjQyLDAuNTM5LTAuNTQsMC41MzljLTAuMjk5LDAtMC41MzktMC4yNDEtMC41MzktMC41MzkgIGMwLTAuMjk4LDAuMjQtMC41MzksMC41MzktMC41MzlDMTkuMTYyLDEuMDUyLDE5LjQwNCwxLjI5MywxOS40MDQsMS41OTEiIGlkPSJwYXRoMTU1NyIvPiYjeGE7PHBhdGggZmlsbD0iI0ZGRkZGRiIgZD0iTTE5LjQyNSwxMy4yMDljLTAuMDM1LDAtMC4wNjktMC4wMTEtMC4xMDItMC4wMjlsLTYuNjk1LTMuODU5Yy0wLjA2MS0wLjAzNi0wLjEtMC4xMDQtMC4xLTAuMTc1ICBjMC0wLjA3MiwwLjAzOS0wLjEzOSwwLjEtMC4xNzVsNi42NTQtMy44MzRjMC4wNjItMC4wMzUsMC4xMzgtMC4wMzUsMC4yLDBsNi42OTcsMy44NjFjMC4wNjIsMC4wMzYsMC4xLDAuMTAzLDAuMSwwLjE3NSAgYzAsMC4wNzMtMC4wMzcsMC4xMzktMC4xLDAuMTc1bC02LjY1MiwzLjgzM0MxOS40OTUsMTMuMTk4LDE5LjQ2MiwxMy4yMDksMTkuNDI1LDEzLjIwOSIgaWQ9InBhdGgxNTU5Ii8+JiN4YTs8cGF0aCBmaWxsPSIjQTBBMUEyIiBkPSJNNDEuNjcxLDcuNDU2SDguMDE1Yy0xLjE0NCwwLTIuMDY2LDEuMDIxLTIuMDY2LDIuMTYydjIzLjQzOWMwLDEuMTM0LDAuOTIyLDIuMTQ0LDIuMDY2LDIuMTQ0aDMzLjY1NiAgYzEuMTQxLDAsMi4yOTctMS4wMSwyLjI5Ny0yLjE0NFY5LjYxOEM0My45NjksOC40NzQsNDIuODEzLDcuNDU2LDQxLjY3MSw3LjQ1NiIgaWQ9InBhdGgxNTYxIi8+JiN4YTs8cGF0aCBvcGFjaXR5PSIwLjIiIGZpbGw9IiNGRkZGRkYiIGQ9Ik00MS42OTUsNy40NThjLTAuMDA4LDAtMC4wMTYtMC4wMDItMC4wMjQtMC4wMDJIOC4wMTVjLTEuMTQ0LDAtMi4wNjYsMS4wMjEtMi4wNjYsMi4xNjIgIHYyMy40MzhjMCwxLjEzNCwwLjkyMiwyLjE0NCwyLjA2NiwyLjE0NGgwLjgwMUw0MS42OTUsNy40NTh6IiBpZD0icGF0aDE1NjMiLz4mI3hhOzxwb2x5Z29uIGZpbGw9IiM1OUI0RDkiIHBvaW50cz0iNDEuMDc4LDMyLjI3OSA4LjgzLDMyLjI3OSA4LjgzLDEwLjM3OCA0MS4wNzgsMTAuMzMxICIgaWQ9InBvbHlnb24xNTY1Ii8+JiN4YTs8cGF0aCBmaWxsPSIjQjhENDMyIiBkPSJNMjUuMzUyLDkuMDQ3YzAsMC4yOTgtMC4yNDIsMC41MzktMC41NCwwLjUzOWMtMC4yOTksMC0wLjUzOS0wLjI0MS0wLjUzOS0wLjUzOSAgYzAtMC4yOTgsMC4yNC0wLjUzOSwwLjUzOS0wLjUzOUMyNS4xMSw4LjUwOCwyNS4zNTIsOC43NDgsMjUuMzUyLDkuMDQ3IiBpZD0icGF0aDE1NjciLz4mI3hhOzxwYXRoIGZpbGw9IiNGRkZGRkYiIGQ9Ik0yNS4zNzQsMjAuNjY0Yy0wLjAzNSwwLTAuMDY5LTAuMDExLTAuMTAyLTAuMDI5bC02LjY5NS0zLjg1OWMtMC4wNjEtMC4wMzYtMC4xLTAuMTA0LTAuMS0wLjE3NSAgYzAtMC4wNzIsMC4wMzktMC4xMzksMC4xLTAuMTc1bDYuNjU0LTMuODM0YzAuMDYyLTAuMDM1LDAuMTM4LTAuMDM1LDAuMiwwbDYuNjk3LDMuODYxYzAuMDYyLDAuMDM2LDAuMSwwLjEwMywwLjEsMC4xNzUgIGMwLDAuMDczLTAuMDM3LDAuMTM5LTAuMSwwLjE3NWwtNi42NTIsMy44MzNDMjUuNDQzLDIwLjY1NCwyNS40MTEsMjAuNjY0LDI1LjM3NCwyMC42NjQiIGlkPSJwYXRoMTU2OSIvPiYjeGE7PHBhdGggZmlsbD0iIzdBN0E3QSIgZD0iTTM2LjYzNiw0Mi42OThoLTAuOTA2aC04Ljk2NWgtMC40NjhjMS4yNDIsNC4zOC0wLjQyNyw1LjAwOC03LjczNyw1LjAwOFY1MGg5LjI5N2g2Ljc4OGg4Ljc3M3YtMi4yOTMgIEMzNi4xMDksNDcuNzA2LDM1LjM5Miw0Ny4wODEsMzYuNjM2LDQyLjY5OCIgaWQ9InBhdGgxNTcxIi8+JiN4YTs8cGF0aCBmaWxsPSIjQTBBMUEyIiBkPSJNNDcuNzAzLDE0Ljk1NUgxNC4wNDdjLTEuMTQ0LDAtMi4wNjYsMS4wMjEtMi4wNjYsMi4xNjJ2MjMuNDM5YzAsMS4xMzQsMC45MjIsMi4xNDQsMi4wNjYsMi4xNDRoMzMuNjU2ICBjMS4xNDEsMCwyLjI5Ny0xLjAxLDIuMjk3LTIuMTQ0VjE3LjExN0M1MCwxNS45NzQsNDguODQ0LDE0Ljk1NSw0Ny43MDMsMTQuOTU1IiBpZD0icGF0aDE1NzMiLz4mI3hhOzxwYXRoIG9wYWNpdHk9IjAuMiIgZmlsbD0iI0ZGRkZGRiIgZD0iTTQ3LjcyNywxNC45NThjLTAuMDA4LDAtMC4wMTYtMC4wMDItMC4wMjQtMC4wMDJIMTQuMDQ2Yy0xLjE0NCwwLTIuMDY2LDEuMDIxLTIuMDY2LDIuMTYyICB2MjMuNDM4YzAsMS4xMzQsMC45MjIsMi4xNDQsMi4wNjYsMi4xNDRoMC44MDFMNDcuNzI3LDE0Ljk1OHoiIGlkPSJwYXRoMTU3NSIvPiYjeGE7PHBvbHlnb24gZmlsbD0iIzU5QjREOSIgcG9pbnRzPSI0Ny4xMDksMzkuNzc5IDE0Ljg2MiwzOS43NzkgMTQuODYyLDE3Ljg3OCA0Ny4xMDksMTcuODMgIiBpZD0icG9seWdvbjE1NzciLz4mI3hhOzxyZWN0IHg9IjE4LjU2MSIgeT0iNDcuNzA2IiBmaWxsPSIjQTBBMUEyIiB3aWR0aD0iMjQuODU4IiBoZWlnaHQ9IjIuMjk0IiBpZD0icmVjdDE1NzkiLz4mI3hhOzxwYXRoIGZpbGw9IiNCOEQ0MzIiIGQ9Ik0zMS4zODQsMTYuNTQ2YzAsMC4yOTgtMC4yNDIsMC41MzktMC41NCwwLjUzOWMtMC4yOTksMC0wLjUzOS0wLjI0MS0wLjUzOS0wLjUzOSAgYzAtMC4yOTgsMC4yNC0wLjUzOSwwLjUzOS0wLjUzOUMzMS4xNDIsMTYuMDA3LDMxLjM4NCwxNi4yNDgsMzEuMzg0LDE2LjU0NiIgaWQ9InBhdGgxNTgxIi8+JiN4YTs8cGF0aCBmaWxsPSIjRkZGRkZGIiBkPSJNMzEuNDA1LDI4LjE2NGMtMC4wMzUsMC0wLjA2OS0wLjAxMS0wLjEwMi0wLjAyOWwtNi42OTUtMy44NTljLTAuMDYxLTAuMDM2LTAuMS0wLjEwNC0wLjEtMC4xNzUgIGMwLTAuMDcyLDAuMDM5LTAuMTM5LDAuMS0wLjE3NWw2LjY1NC0zLjgzNGMwLjA2Mi0wLjAzNSwwLjEzOC0wLjAzNSwwLjIsMGw2LjY5NywzLjg2MWMwLjA2MiwwLjAzNiwwLjEsMC4xMDMsMC4xLDAuMTc1ICBjMCwwLjA3My0wLjAzNywwLjEzOS0wLjEsMC4xNzVsLTYuNjUyLDMuODMzQzMxLjQ3NSwyOC4xNTMsMzEuNDQyLDI4LjE2NCwzMS40MDUsMjguMTY0IiBpZD0icGF0aDE1ODMiLz4mI3hhOzxwYXRoIG9wYWNpdHk9IjAuNyIgZmlsbD0iI0ZGRkZGRiIgZD0iTTMwLjQ0MywzNy41NDRjLTAuMDM4LDAtMC4wNzItMC4wMDktMC4xMDItMC4wMjdsLTYuNjc1LTMuODQ3ICBjLTAuMDY1LTAuMDM2LTAuMTA0LTAuMTAxLTAuMTA0LTAuMTc1di03LjcyYzAtMC4wNzMsMC4wMzktMC4xMzksMC4xMDQtMC4xNzVjMC4wNjItMC4wMzcsMC4xMzctMC4wMzcsMC4yMDQsMGw2LjY3NCwzLjg0NiAgYzAuMDU5LDAuMDM4LDAuMDk5LDAuMTA0LDAuMDk5LDAuMTc3djcuNzJjMCwwLjA3NC0wLjAzOSwwLjEzOS0wLjA5OSwwLjE3NUMzMC41MTEsMzcuNTM1LDMwLjQ3NiwzNy41NDQsMzAuNDQzLDM3LjU0NCIgaWQ9InBhdGgxNTg1Ii8+JiN4YTs8cGF0aCBvcGFjaXR5PSIwLjQiIGZpbGw9IiNGRkZGRkYiIGQ9Ik0zMi4zMzMsMzcuNTQ0Yy0wLjAzNywwLTAuMDcxLTAuMDA5LTAuMTA1LTAuMDI3Yy0wLjA1OS0wLjAzNi0wLjA5OC0wLjEwMi0wLjA5OC0wLjE3NVYyOS42NyAgYzAtMC4wNzEsMC4wMzktMC4xMzgsMC4wOTgtMC4xNzVsNi42NzQtMy44NDVjMC4wNjQtMC4wMzYsMC4xMzgtMC4wMzYsMC4yMDEsMGMwLjA2NCwwLjAzNiwwLjEwMiwwLjEwMiwwLjEwMiwwLjE3NXY3LjY3MSAgYzAsMC4wNzQtMC4wMzksMC4xNC0wLjEwMiwwLjE3NWwtNi42NzIsMy44NDdDMzIuNDAzLDM3LjUzNSwzMi4zNjcsMzcuNTQ0LDMyLjMzMywzNy41NDQiIGlkPSJwYXRoMTU4NyIvPiYjeGE7PC9zdmc+" parent="1" vertex="1">
                    <mxGeometry x="637.5" y="225" width="50" height="50" as="geometry"/>
                </mxCell>
                <mxCell id="w8AWbL9sRovNboO9tG6S-40" value="" style="shape=image;verticalLabelPosition=bottom;verticalAlign=top;imageAspect=0;aspect=fixed;image=data:image/svg+xml,PHN2ZyB4bWxuczpkYz0iaHR0cDovL3B1cmwub3JnL2RjL2VsZW1lbnRzLzEuMS8iIHhtbG5zOmNjPSJodHRwOi8vY3JlYXRpdmVjb21tb25zLm9yZy9ucyMiIHhtbG5zOnJkZj0iaHR0cDovL3d3dy53My5vcmcvMTk5OS8wMi8yMi1yZGYtc3ludGF4LW5zIyIgeG1sbnM6c3ZnPSJodHRwOi8vd3d3LnczLm9yZy8yMDAwL3N2ZyIgeG1sbnM9Imh0dHA6Ly93d3cudzMub3JnLzIwMDAvc3ZnIiB4bWxuczpzb2RpcG9kaT0iaHR0cDovL3NvZGlwb2RpLnNvdXJjZWZvcmdlLm5ldC9EVEQvc29kaXBvZGktMC5kdGQiIHhtbG5zOmlua3NjYXBlPSJodHRwOi8vd3d3Lmlua3NjYXBlLm9yZy9uYW1lc3BhY2VzL2lua3NjYXBlIiB2ZXJzaW9uPSIxLjEiIGlkPSJMYXllcl8xIiB4PSIwcHgiIHk9IjBweCIgd2lkdGg9IjUwcHgiIGhlaWdodD0iNTBweCIgdmlld0JveD0iMCAwIDUwIDUwIiBlbmFibGUtYmFja2dyb3VuZD0ibmV3IDAgMCA1MCA1MCIgeG1sOnNwYWNlPSJwcmVzZXJ2ZSIgc29kaXBvZGk6ZG9jbmFtZT0iU3RvcmFnZSBBY2NvdW50cy5zdmciIGlua3NjYXBlOnZlcnNpb249IjAuOTIuMyAoMjQwNTU0NiwgMjAxOC0wMy0xMSkiPjxtZXRhZGF0YSBpZD0ibWV0YWRhdGE1NjQyIj48cmRmOlJERj48Y2M6V29yayByZGY6YWJvdXQ9IiI+PGRjOmZvcm1hdD5pbWFnZS9zdmcreG1sPC9kYzpmb3JtYXQ+PGRjOnR5cGUgcmRmOnJlc291cmNlPSJodHRwOi8vcHVybC5vcmcvZGMvZGNtaXR5cGUvU3RpbGxJbWFnZSIvPjxkYzp0aXRsZS8+PC9jYzpXb3JrPjwvcmRmOlJERj48L21ldGFkYXRhPjxkZWZzIGlkPSJkZWZzNTY0MCIvPjxzb2RpcG9kaTpuYW1lZHZpZXcgcGFnZWNvbG9yPSIjZmZmZmZmIiBib3JkZXJjb2xvcj0iIzY2NjY2NiIgYm9yZGVyb3BhY2l0eT0iMSIgb2JqZWN0dG9sZXJhbmNlPSIxMCIgZ3JpZHRvbGVyYW5jZT0iMTAiIGd1aWRldG9sZXJhbmNlPSIxMCIgaW5rc2NhcGU6cGFnZW9wYWNpdHk9IjAiIGlua3NjYXBlOnBhZ2VzaGFkb3c9IjIiIGlua3NjYXBlOndpbmRvdy13aWR0aD0iNjQwIiBpbmtzY2FwZTp3aW5kb3ctaGVpZ2h0PSI0ODAiIGlkPSJuYW1lZHZpZXc1NjM4IiBzaG93Z3JpZD0iZmFsc2UiIGlua3NjYXBlOnpvb209IjYuMjYiIGlua3NjYXBlOmN4PSIyNSIgaW5rc2NhcGU6Y3k9IjI1IiBpbmtzY2FwZTp3aW5kb3cteD0iMCIgaW5rc2NhcGU6d2luZG93LXk9IjAiIGlua3NjYXBlOndpbmRvdy1tYXhpbWl6ZWQ9IjEiIGlua3NjYXBlOmN1cnJlbnQtbGF5ZXI9IkxheWVyXzEiLz4mI3hhOzxwYXRoIGZpbGw9IiMzRTNFM0UiIGQ9Ik00NCw1MEg2Yy0zLjMxNCwwLTYtMi42ODYtNi02VjVoNTB2MzlDNTAsNDcuMzE0LDQ3LjMxNCw1MCw0NCw1MHoiIGlkPSJwYXRoNTYyMyIvPiYjeGE7PHJlY3QgeD0iNCIgeT0iMTYiIG9wYWNpdHk9IjAuOSIgZmlsbD0iI0ZDRDExNiIgd2lkdGg9IjQyIiBoZWlnaHQ9IjExIiBpZD0icmVjdDU2MjUiLz4mI3hhOzxyZWN0IHg9IjQiIHk9IjMxIiBmaWxsPSIjN0ZCQTAwIiB3aWR0aD0iNDIiIGhlaWdodD0iMTUiIGlkPSJyZWN0NTYyNyIvPiYjeGE7PHJlY3QgeD0iNCIgeT0iNSIgb3BhY2l0eT0iMC45IiBmaWxsPSIjRkZGRkZGIiB3aWR0aD0iNDIiIGhlaWdodD0iNyIgaWQ9InJlY3Q1NjI5Ii8+JiN4YTs8cmVjdCB4PSI0IiB5PSIzMSIgb3BhY2l0eT0iMC4zIiBmaWxsPSIjRkZGRkZGIiBlbmFibGUtYmFja2dyb3VuZD0ibmV3ICAgICIgd2lkdGg9IjQyIiBoZWlnaHQ9IjIiIGlkPSJyZWN0NTYzMSIvPiYjeGE7PHJlY3QgeD0iNCIgeT0iMTYiIG9wYWNpdHk9IjAuMyIgZmlsbD0iI0ZGRkZGRiIgZW5hYmxlLWJhY2tncm91bmQ9Im5ldyAgICAiIHdpZHRoPSI0MiIgaGVpZ2h0PSIyIiBpZD0icmVjdDU2MzMiLz4mI3hhOzxwYXRoIG9wYWNpdHk9IjAuMTUiIGZpbGw9IiNGRkZGRkYiIGVuYWJsZS1iYWNrZ3JvdW5kPSJuZXcgICAgIiBkPSJNMCw1djQyLjY5M0MwLDQ4LjkwNywwLjk4NSw0OS45LDIuMTg4LDQ5LjlIOEw0MCw1SDB6IiBpZD0icGF0aDU2MzUiLz4mI3hhOzwvc3ZnPg==" parent="1" vertex="1">
                    <mxGeometry x="590" y="232.5" width="35" height="35" as="geometry"/>
                </mxCell>
                <mxCell id="w8AWbL9sRovNboO9tG6S-41" value="Storage Account" style="text;html=1;strokeColor=none;fillColor=none;align=center;verticalAlign=middle;whiteSpace=wrap;rounded=0;" parent="1" vertex="1">
                    <mxGeometry x="587.5" y="202.5" width="40" height="20" as="geometry"/>
                </mxCell>
                <mxCell id="w8AWbL9sRovNboO9tG6S-42" value="" style="endArrow=classic;startArrow=classic;html=1;entryX=0.25;entryY=1;entryDx=0;entryDy=0;exitX=0.75;exitY=0;exitDx=0;exitDy=0;" parent="1" source="RHqKMBRxgFxfujLm67wK-2" target="w8AWbL9sRovNboO9tG6S-29" edge="1">
                    <mxGeometry width="50" height="50" relative="1" as="geometry">
                        <mxPoint x="317.5" y="420" as="sourcePoint"/>
                        <mxPoint x="237.5" y="320" as="targetPoint"/>
                    </mxGeometry>
                </mxCell>
            </root>
        </mxGraphModel>
    </diagram>
</mxfile>